
          <style>
            @font-face {
                font-family: 'Manrope';
                font-style: normal;
                font-weight: 400;
                font-display: swap;
                src: url(https://fonts.gstatic.com/s/manrope/v15/xn7_YHE41ni1AdIRqAuZuw1Bx9mbZk79FN_C-bnTfc7AGrY.woff2) format('woff2');
                unicode-range: U+0000-00FF, U+0131, U+0152-0153, U+02BB-02BC, U+02C6, U+02DA, U+02DC, U+0304, U+0308, U+0329, U+2000-206F, U+2074, U+20AC, U+2122, U+2191, U+2193, U+2212, U+2215, U+FEFF, U+FFFD;
            }
            text {
              font-family: 'Manrope';
            }
          </style>
        <svg width="800" height="600" xmlns="http://www.w3.org/2000/svg" xmlns:xlink="http://www.w3.org/1999/xlink" version="1.1" baseProfile="full" viewBox="0 0 800 600">
<rect width="800" height="600" x="0" y="0" fill="none"></rect>
<polyline points="413.6 509.6 414.6 524.5 429.6 524.5" fill="transparent" stroke="#CFB3E8" class="zr0-cls-0"></polyline>
<polyline points="384.3 90.6 383.2 75.6 368.2 75.6" fill="transparent" stroke="#C2C3F0" class="zr0-cls-0"></polyline>
<path d="M400 100.3A10 10 0 0 1 410.5 90.3A210 210 0 1 1 362.5 93.4A10 10 0 0 1 374.2 101.9L383.3 171.5A10 10 0 0 1 375.4 182.5A120 120 0 1 0 409.2 180.4A10 10 0 0 1 400 170.4Z" fill="#CFB3E8" stroke="#fff" stroke-width="2" stroke-linejoin="round" ecmeta_series_index="0" ecmeta_data_index="0" ecmeta_ssr_type="chart" transform-origin="400px 300px" class="zr0-cls-1 zr0-cls-2"></path>
<path d="M374.2 101.9A10 10 0 0 1 383.3 90.7A210 210 0 0 1 385.3 90.5A10 10 0 0 1 396 100.3L397.5 173.3A6.9 6.9 0 0 1 383.6 174.3Z" fill="#C2C3F0" stroke="#fff" stroke-width="2" stroke-linejoin="round" ecmeta_series_index="0" ecmeta_data_index="1" ecmeta_ssr_type="chart" transform-origin="400px 300px" class="zr0-cls-3 zr0-cls-4"></path>
<path d="M395.8 92A2 2 0 1 1 399.7 92L399.8 178.9A1.1 1.1 0 0 1 397.6 178.9Z" fill="#E3A6BE" stroke="#fff" stroke-width="2" stroke-linejoin="round" ecmeta_series_index="0" ecmeta_data_index="2" ecmeta_ssr_type="chart" transform-origin="400px 300px" class="zr0-cls-5 zr0-cls-6"></path>
<path d="M399.7 90.1A0.1 0.1 0 1 1 400 90.1L400 179.9A0.1 0.1 0 0 1 399.8 179.9Z" fill="#BDE1ED" stroke="#fff" stroke-width="2" stroke-linejoin="round" ecmeta_series_index="0" ecmeta_data_index="3" ecmeta_ssr_type="chart" transform-origin="400px 300px" class="zr0-cls-7 zr0-cls-8"></path>
<text dominant-baseline="central" text-anchor="start" style="font-size:12px;font-family:Manrope;" xml:space="preserve" transform="translate(434.5511 524.529)" fill="#333" stroke="rgb(255,255,255)" stroke-width="2" paint-order="stroke" stroke-miterlimit="2">Coding: 97.94%</text>
<text dominant-baseline="central" text-anchor="end" style="font-size:12px;font-family:Manrope;" xml:space="preserve" transform="translate(363.1924 75.6286)" fill="#333" stroke="rgb(255,255,255)" stroke-width="2" paint-order="stroke" stroke-miterlimit="2">Debugging: 1.74%</text>
<style ><![CDATA[
.zr0-cls-0:hover {
cursor:pointer;
}
.zr0-cls-1 {
animation:zr0-ani-0 1s cubic-bezier(0.65,0,0.35,1) both;
}
.zr0-cls-2:hover {
cursor:pointer;
fill:rgba(227,196,255,1);
}
.zr0-cls-3 {
animation:zr0-ani-1 1s cubic-bezier(0.65,0,0.35,1) both;
}
.zr0-cls-4:hover {
cursor:pointer;
fill:rgba(213,214,255,1);
}
.zr0-cls-5 {
animation:zr0-ani-2 1s cubic-bezier(0.65,0,0.35,1) both;
}
.zr0-cls-6:hover {
cursor:pointer;
fill:rgba(249,182,209,1);
}
.zr0-cls-7 {
animation:zr0-ani-3 1s cubic-bezier(0.65,0,0.35,1) both;
}
.zr0-cls-8:hover {
cursor:pointer;
fill:rgba(207,247,255,1);
}
@keyframes zr0-ani-0 {
0% {
transform:scale(0,0);
}
100% {

}
}
@keyframes zr0-ani-1 {
0% {
transform:scale(0,0);
}
100% {

}
}
@keyframes zr0-ani-2 {
0% {
transform:scale(0,0);
}
100% {

}
}
@keyframes zr0-ani-3 {
0% {
transform:scale(0,0);
}
100% {

}
}
]]>

</style>
</svg>