<svg width="800" height="600" xmlns="http://www.w3.org/2000/svg" xmlns:xlink="http://www.w3.org/1999/xlink" version="1.1" baseProfile="full" viewBox="0 0 800 600">
<rect width="800" height="600" x="0" y="0" fill="none"></rect>
<polyline points="415.6 509.4 416.7 524.4 431.7 524.4" fill="transparent" stroke="#CFB3E8" class="zr1-cls-22"></polyline>
<polyline points="380.7 90.9 379.3 76 364.3 76" fill="transparent" stroke="#C2C3F0" class="zr1-cls-22"></polyline>
<path d="M400 100.3A10 10 0 0 1 410.5 90.3A210 210 0 1 1 358.6 94.1A10 10 0 0 1 370.5 102.4L380.9 171.8A10 10 0 0 1 373.2 183A120 120 0 1 0 409.2 180.4A10 10 0 0 1 400 170.4Z" fill="#CFB3E8" stroke="#fff" stroke-width="2" stroke-linejoin="round" ecmeta_series_index="0" ecmeta_data_index="0" ecmeta_ssr_type="chart" transform-origin="400px 300px" class="zr1-cls-23 zr1-cls-24"></path>
<path d="M370.5 102.4A10 10 0 0 1 379.4 91A210 210 0 0 1 382 90.8A10 10 0 0 1 392.8 100.4L395.5 173.1A7.1 7.1 0 0 1 381.2 174.4Z" fill="#C2C3F0" stroke="#fff" stroke-width="2" stroke-linejoin="round" ecmeta_series_index="0" ecmeta_data_index="1" ecmeta_ssr_type="chart" transform-origin="400px 300px" class="zr1-cls-25 zr1-cls-26"></path>
<path d="M392.6 93.7A3.6 3.6 0 1 1 399.7 93.6L399.8 177.9A2.1 2.1 0 0 1 395.6 178Z" fill="#E3A6BE" stroke="#fff" stroke-width="2" stroke-linejoin="round" ecmeta_series_index="0" ecmeta_data_index="2" ecmeta_ssr_type="chart" transform-origin="400px 300px" class="zr1-cls-27 zr1-cls-28"></path>
<path d="M399.7 90.1A0.1 0.1 0 1 1 400 90.1L400 179.9A0.1 0.1 0 0 1 399.8 179.9Z" fill="#BDE1ED" stroke="#fff" stroke-width="2" stroke-linejoin="round" ecmeta_series_index="0" ecmeta_data_index="3" ecmeta_ssr_type="chart" transform-origin="400px 300px" class="zr1-cls-29 zr1-cls-30"></path>
<text dominant-baseline="central" text-anchor="start" style="font-size:12px;font-family:Manrope;" xml:space="preserve" transform="translate(436.6666 524.3819)" fill="#333" stroke="rgb(255,255,255)" stroke-width="2" paint-order="stroke" stroke-miterlimit="2">Coding: 97.64%</text>
<text dominant-baseline="central" text-anchor="end" style="font-size:12px;font-family:Manrope;" xml:space="preserve" transform="translate(359.3183 75.9525)" fill="#333" stroke="rgb(255,255,255)" stroke-width="2" paint-order="stroke" stroke-miterlimit="2">Debugging: 1.79%</text>
<style ><![CDATA[
.zr1-cls-22:hover {
cursor:pointer;
}
.zr1-cls-23 {
animation:zr1-ani-0 1s cubic-bezier(0.65,0,0.35,1) both;
}
.zr1-cls-24:hover {
cursor:pointer;
fill:rgba(227,196,255,1);
}
.zr1-cls-25 {
animation:zr1-ani-1 1s cubic-bezier(0.65,0,0.35,1) both;
}
.zr1-cls-26:hover {
cursor:pointer;
fill:rgba(213,214,255,1);
}
.zr1-cls-27 {
animation:zr1-ani-2 1s cubic-bezier(0.65,0,0.35,1) both;
}
.zr1-cls-28:hover {
cursor:pointer;
fill:rgba(249,182,209,1);
}
.zr1-cls-29 {
animation:zr1-ani-3 1s cubic-bezier(0.65,0,0.35,1) both;
}
.zr1-cls-30:hover {
cursor:pointer;
fill:rgba(207,247,255,1);
}
@keyframes zr1-ani-0 {
0% {
transform:scale(0,0);
}
100% {

}
}
@keyframes zr1-ani-1 {
0% {
transform:scale(0,0);
}
100% {

}
}
@keyframes zr1-ani-2 {
0% {
transform:scale(0,0);
}
100% {

}
}
@keyframes zr1-ani-3 {
0% {
transform:scale(0,0);
}
100% {

}
}
]]>

</style>
</svg>