<svg width="800" height="600" xmlns="http://www.w3.org/2000/svg" xmlns:xlink="http://www.w3.org/1999/xlink" version="1.1" baseProfile="full" viewBox="0 0 800 600">
<rect width="800" height="600" x="0" y="0" fill="none"></rect>
<polyline points="414.2 509.5 415.3 524.5 430.3 524.5" fill="transparent" stroke="#CFB3E8" class="zr13-cls-174"></polyline>
<polyline points="383.3 90.7 382.1 75.7 367.1 75.7" fill="transparent" stroke="#C2C3F0" class="zr13-cls-174"></polyline>
<path d="M400 100.3A10 10 0 0 1 410.5 90.3A210 210 0 1 1 361.2 93.6A10 10 0 0 1 373 102.1L382.5 171.6A10 10 0 0 1 374.7 182.7A120 120 0 1 0 409.2 180.4A10 10 0 0 1 400 170.4Z" fill="#CFB3E8" stroke="#fff" stroke-width="2" stroke-linejoin="round" ecmeta_series_index="0" ecmeta_data_index="0" ecmeta_ssr_type="chart" transform-origin="400px 300px" class="zr13-cls-175 zr13-cls-176"></path>
<path d="M373 102.1A10 10 0 0 1 382 90.8A210 210 0 0 1 384.5 90.6A10 10 0 0 1 395.2 100.3L397 173.1A7.1 7.1 0 0 1 382.8 174.3Z" fill="#C2C3F0" stroke="#fff" stroke-width="2" stroke-linejoin="round" ecmeta_series_index="0" ecmeta_data_index="1" ecmeta_ssr_type="chart" transform-origin="400px 300px" class="zr13-cls-177 zr13-cls-178"></path>
<path d="M395 92.4A2.3 2.3 0 1 1 399.7 92.4L399.8 178.6A1.4 1.4 0 0 1 397.1 178.7Z" fill="#E3A6BE" stroke="#fff" stroke-width="2" stroke-linejoin="round" ecmeta_series_index="0" ecmeta_data_index="2" ecmeta_ssr_type="chart" transform-origin="400px 300px" class="zr13-cls-179 zr13-cls-180"></path>
<path d="M399.7 90.1A0.1 0.1 0 1 1 400 90.1L400 179.9A0.1 0.1 0 0 1 399.8 179.9Z" fill="#BDE1ED" stroke="#fff" stroke-width="2" stroke-linejoin="round" ecmeta_series_index="0" ecmeta_data_index="3" ecmeta_ssr_type="chart" transform-origin="400px 300px" class="zr13-cls-181 zr13-cls-182"></path>
<text dominant-baseline="central" text-anchor="start" style="font-size:12px;font-family:Manrope;" xml:space="preserve" transform="translate(435.2549 524.4823)" fill="#333" stroke="rgb(255,255,255)" stroke-width="2" paint-order="stroke" stroke-miterlimit="2">Coding: 97.85%</text>
<text dominant-baseline="central" text-anchor="end" style="font-size:12px;font-family:Manrope;" xml:space="preserve" transform="translate(362.0666 75.7158)" fill="#333" stroke="rgb(255,255,255)" stroke-width="2" paint-order="stroke" stroke-miterlimit="2">Debugging: 1.78%</text>
<style ><![CDATA[
.zr13-cls-174:hover {
cursor:pointer;
}
.zr13-cls-175 {
animation:zr13-ani-0 1s cubic-bezier(0.65,0,0.35,1) both;
}
.zr13-cls-176:hover {
cursor:pointer;
fill:rgba(227,196,255,1);
}
.zr13-cls-177 {
animation:zr13-ani-1 1s cubic-bezier(0.65,0,0.35,1) both;
}
.zr13-cls-178:hover {
cursor:pointer;
fill:rgba(213,214,255,1);
}
.zr13-cls-179 {
animation:zr13-ani-2 1s cubic-bezier(0.65,0,0.35,1) both;
}
.zr13-cls-180:hover {
cursor:pointer;
fill:rgba(249,182,209,1);
}
.zr13-cls-181 {
animation:zr13-ani-3 1s cubic-bezier(0.65,0,0.35,1) both;
}
.zr13-cls-182:hover {
cursor:pointer;
fill:rgba(207,247,255,1);
}
@keyframes zr13-ani-0 {
0% {
transform:scale(0,0);
}
100% {

}
}
@keyframes zr13-ani-1 {
0% {
transform:scale(0,0);
}
100% {

}
}
@keyframes zr13-ani-2 {
0% {
transform:scale(0,0);
}
100% {

}
}
@keyframes zr13-ani-3 {
0% {
transform:scale(0,0);
}
100% {

}
}
]]>

</style>
</svg>