<svg width="800" height="600" xmlns="http://www.w3.org/2000/svg" xmlns:xlink="http://www.w3.org/1999/xlink" version="1.1" baseProfile="full" viewBox="0 0 800 600">
<rect width="800" height="600" x="0" y="0" fill="none"></rect>
<polyline points="650 300 665 300 680 300" fill="transparent" stroke="#CFB3E8" class="zr2-cls-31"></polyline>
<polyline points="302.8 300 135 300 120 300" fill="transparent" stroke="#C2C3F0" class="zr2-cls-31"></polyline>
<path d="M400 58.1A8 8 0 0 1 408.3 50.1A250 250 0 0 1 408.3 549.9A8 8 0 0 1 400 541.9L400 357.4A8 8 0 0 1 406.9 349.5A50 50 0 0 0 406.9 250.5A8 8 0 0 1 400 242.6Z" fill="#CFB3E8" ecmeta_series_index="0" ecmeta_data_index="0" ecmeta_ssr_type="chart" transform-origin="400px 300px" class="zr2-cls-32 zr2-cls-33"></path>
<path d="M400 388.9A8 8 0 0 1 391.3 396.8A97.2 97.2 0 0 1 391.3 203.2A8 8 0 0 1 400 211.1L400 242.6A8 8 0 0 1 393.1 250.5A50 50 0 0 0 393.1 349.5A8 8 0 0 1 400 357.4Z" fill="#C2C3F0" ecmeta_series_index="0" ecmeta_data_index="1" ecmeta_ssr_type="chart" transform-origin="400px 300px" class="zr2-cls-34 zr2-cls-35"></path>
<text dominant-baseline="central" text-anchor="start" style="font-size:12px;font-family:Manrope;" xml:space="preserve" transform="translate(685 300)" fill="#333" stroke="rgb(255,255,255)" stroke-width="2" paint-order="stroke" stroke-miterlimit="2">Mac: 80.9%</text>
<text dominant-baseline="central" text-anchor="end" style="font-size:12px;font-family:Manrope;" xml:space="preserve" transform="translate(115 300)" fill="#333" stroke="rgb(255,255,255)" stroke-width="2" paint-order="stroke" stroke-miterlimit="2">Windows: 19.1%</text>
<path d="M-12.8 -15l79.5 0l0 30l-79.5 0Z" transform="translate(733.337 15)" fill="transparent" stroke="#ccc" stroke-width="0" class="zr2-cls-36"></path>
<path d="M-3.7 -3.4L0.5 -3.4M-3.7 -3.4L0.5 -3.4M3.8 -0.1L-3.7 -0.1M-5.3 -7.5L-5.3 7.5L5.3 7.5L5.3 -4.1L1.9 -7.5L-5.3 -7.5ZM1.9 -7.4L1.9 -4L5.3 -4M3.8 3.1L-3.7 3.1" transform="translate(733.337 15)" fill="transparent" stroke="#666" class="zr2-cls-37"></path>
<path d="M-7 0.9M4.5 -3L7.2 -3L7.2 -5.7M7 -2.6C5.9 -5.6 2.8 -7.9 -0.9 -7.5C-4.6 -7 -7.6 -3.7 -7.5 0.2M-4.5 3L-7.2 3L-7.2 5.7M-7 2.6C-5.9 5.6 -2.8 7.9 0.9 7.5C4.6 7 7.6 3.7 7.5 -0.2" transform="translate(759.0851 15)" fill="transparent" stroke="#666" class="zr2-cls-37"></path>
<path d="M-6.5 -1.6L-0.1 4.3L6.5 -1.4M-6.5 3.8L-6.5 7.5L6.2 7.5L6.2 3.8M-0.1 4.2L-0.1 -7.5" transform="translate(786.0216 15)" fill="transparent" stroke="#666" class="zr2-cls-37"></path>
<style ><![CDATA[
.zr2-cls-31:hover {
cursor:pointer;
}
.zr2-cls-32 {
animation:zr2-ani-0 1s cubic-bezier(0.65,0,0.35,1) both;
}
.zr2-cls-33:hover {
cursor:pointer;
fill:rgba(227,196,255,1);
}
.zr2-cls-34 {
animation:zr2-ani-1 1s cubic-bezier(0.65,0,0.35,1) both;
}
.zr2-cls-35:hover {
cursor:pointer;
fill:rgba(213,214,255,1);
}
.zr2-cls-36:hover {
pointer-events:none;
}
.zr2-cls-37:hover {
cursor:pointer;
stroke:#3E98C5;
}
@keyframes zr2-ani-0 {
0% {
transform:scale(0,0);
}
100% {

}
}
@keyframes zr2-ani-1 {
0% {
transform:scale(0,0);
}
100% {

}
}
]]>

</style>
</svg>