<svg width="800" height="600" xmlns="http://www.w3.org/2000/svg" xmlns:xlink="http://www.w3.org/1999/xlink" version="1.1" baseProfile="full" viewBox="0 0 800 600">
<rect width="800" height="600" x="0" y="0" fill="none"></rect>
<polyline points="542.1 145.4 552.2 134.3 567.2 134.3" fill="transparent" stroke="#CFB3E8" class="zr1-cls-22"></polyline>
<polyline points="601.8 358.1 616.2 362.3 631.2 362.3" fill="transparent" stroke="#C2C3F0" class="zr1-cls-22"></polyline>
<polyline points="511.8 477.8 519.8 490.5 534.8 490.5" fill="transparent" stroke="#E3A6BE" class="zr1-cls-22"></polyline>
<polyline points="372.1 508.1 370.1 523 355.1 523" fill="transparent" stroke="#BDE1ED" class="zr1-cls-22"></polyline>
<polyline points="257.3 454.1 247.1 465.1 232.1 465.1" fill="transparent" stroke="#BBEBB2" class="zr1-cls-22"></polyline>
<polyline points="198.5 359.3 184.1 363.5 169.1 363.5" fill="transparent" stroke="#FCF4D3" class="zr1-cls-22"></polyline>
<polyline points="193.7 260.7 179 257.9 164 257.9" fill="transparent" stroke="#F2D2BA" class="zr1-cls-22"></polyline>
<polyline points="229.5 177.4 217.4 168.6 202.4 168.6" fill="transparent" stroke="#F4D4A7" class="zr1-cls-22"></polyline>
<polyline points="295.7 117.8 288.2 104.7 273.2 104.7" fill="transparent" stroke="#EBC5C5" class="zr1-cls-22"></polyline>
<polyline points="367.8 92.5 365.5 77.7 350.5 77.7" fill="transparent" stroke="#D3D3D3" class="zr1-cls-22"></polyline>
<path d="M400 100.3A10 10 0 0 1 410.5 90.3A210 210 0 0 1 608.1 271.9A10 10 0 0 1 599 283.2L529.2 289.1A10 10 0 0 1 518.4 280.7A120 120 0 0 0 409.2 180.4A10 10 0 0 1 400 170.4Z" fill="#CFB3E8" stroke="#fff" stroke-width="2" stroke-linejoin="round" ecmeta_series_index="0" ecmeta_data_index="0" ecmeta_ssr_type="chart" transform-origin="400px 300px" class="zr1-cls-23 zr1-cls-24"></path>
<path d="M599 283.2A10 10 0 0 1 609.9 292.8A210 210 0 0 1 573.9 417.7A10 10 0 0 1 559.6 420.1L503.6 377.9A10 10 0 0 1 501.1 364.6A120 120 0 0 0 520 299.1A10 10 0 0 1 529.2 289.1Z" fill="#C2C3F0" stroke="#fff" stroke-width="2" stroke-linejoin="round" ecmeta_series_index="0" ecmeta_data_index="1" ecmeta_ssr_type="chart" transform-origin="400px 300px" class="zr1-cls-25 zr1-cls-26"></path>
<path d="M559.6 420.1A10 10 0 0 1 561.3 434.5A210 210 0 0 1 451.4 503.6A10 10 0 0 1 439.1 495.9L425.4 427.1A10 10 0 0 1 432.5 415.5A120 120 0 0 0 490 379.3A10 10 0 0 1 503.6 377.9Z" fill="#E3A6BE" stroke="#fff" stroke-width="2" stroke-linejoin="round" ecmeta_series_index="0" ecmeta_data_index="2" ecmeta_ssr_type="chart" transform-origin="400px 300px" class="zr1-cls-27 zr1-cls-28"></path>
<path d="M439.1 495.9A10 10 0 0 1 430.8 507.7A210 210 0 0 1 315.6 492.3A10 10 0 0 1 310.7 478.7L342.1 415.9A10 10 0 0 1 354.8 411.2A120 120 0 0 0 414.4 419.1A10 10 0 0 1 425.4 427.1Z" fill="#BDE1ED" stroke="#fff" stroke-width="2" stroke-linejoin="round" ecmeta_series_index="0" ecmeta_data_index="3" ecmeta_ssr_type="chart" transform-origin="400px 300px" class="zr1-cls-29 zr1-cls-30"></path>
<path d="M310.7 478.7A10 10 0 0 1 296.9 482.9A210 210 0 0 1 225.5 416.8A10 10 0 0 1 228.7 402.7L288.8 366.6A10 10 0 0 1 302.1 369.4A120 120 0 0 0 338.3 402.9A10 10 0 0 1 342.1 415.9Z" fill="#BBEBB2" stroke="#fff" stroke-width="2" stroke-linejoin="round" ecmeta_series_index="0" ecmeta_data_index="4" ecmeta_ssr_type="chart" transform-origin="400px 300px" class="zr1-cls-31 zr1-cls-32"></path>
<path d="M228.7 402.7A10 10 0 0 1 214.7 398.8A210 210 0 0 1 190.7 317.3A10 10 0 0 1 200.4 306.4L270.5 304.2A10 10 0 0 1 280.7 313.1A120 120 0 0 0 292.6 353.6A10 10 0 0 1 288.8 366.6Z" fill="#FCF4D3" stroke="#fff" stroke-width="2" stroke-linejoin="round" ecmeta_series_index="0" ecmeta_data_index="5" ecmeta_ssr_type="chart" transform-origin="400px 300px" class="zr1-cls-33 zr1-cls-34"></path>
<path d="M200.4 306.4A10 10 0 0 1 190 296.3A210 210 0 0 1 203.3 226.3A10 10 0 0 1 216.7 220.7L281 248.5A10 10 0 0 1 286.5 261A120 120 0 0 0 280.1 294.6A10 10 0 0 1 270.5 304.2Z" fill="#F2D2BA" stroke="#fff" stroke-width="2" stroke-linejoin="round" ecmeta_series_index="0" ecmeta_data_index="6" ecmeta_ssr_type="chart" transform-origin="400px 300px" class="zr1-cls-35 zr1-cls-36"></path>
<path d="M216.7 220.7A10 10 0 0 1 211.7 207.1A210 210 0 0 1 252 151A10 10 0 0 1 266.5 151.4L313.4 203.6A10 10 0 0 1 313.2 217.2A120 120 0 0 0 293.9 244A10 10 0 0 1 281 248.5Z" fill="#F4D4A7" stroke="#fff" stroke-width="2" stroke-linejoin="round" ecmeta_series_index="0" ecmeta_data_index="7" ecmeta_ssr_type="chart" transform-origin="400px 300px" class="zr1-cls-37 zr1-cls-38"></path>
<path d="M266.5 151.4A10 10 0 0 1 267.7 137A210 210 0 0 1 326.4 103.3A10 10 0 0 1 339.4 109.7L360.7 176.5A10 10 0 0 1 354.9 188.8A120 120 0 0 0 326.9 204.8A10 10 0 0 1 313.4 203.6Z" fill="#EBC5C5" stroke="#fff" stroke-width="2" stroke-linejoin="round" ecmeta_series_index="0" ecmeta_data_index="8" ecmeta_ssr_type="chart" transform-origin="400px 300px" class="zr1-cls-39 zr1-cls-40"></path>
<path d="M339.4 109.7A10 10 0 0 1 346.4 97A210 210 0 0 1 389.5 90.3A10 10 0 0 1 400 100.3L400 170.4A10 10 0 0 1 390.8 180.4A120 120 0 0 0 372.5 183.2A10 10 0 0 1 360.7 176.5Z" fill="#D3D3D3" stroke="#fff" stroke-width="2" stroke-linejoin="round" ecmeta_series_index="0" ecmeta_data_index="9" ecmeta_ssr_type="chart" transform-origin="400px 300px" class="zr1-cls-41 zr1-cls-42"></path>
<text dominant-baseline="central" text-anchor="start" style="font-size:12px;font-family:Manrope;" xml:space="preserve" transform="translate(572.2452 134.3304)" fill="#333" stroke="rgb(255,255,255)" stroke-width="2" paint-order="stroke" stroke-miterlimit="2">Tallileo: 13.12%</text>
<text dominant-baseline="central" text-anchor="start" style="font-size:12px;font-family:Manrope;" xml:space="preserve" transform="translate(636.2127 362.2661)" fill="#333" stroke="rgb(255,255,255)" stroke-width="2" paint-order="stroke" stroke-miterlimit="2">MoneyTally: 6.44%</text>
<text dominant-baseline="central" text-anchor="start" style="font-size:12px;font-family:Manrope;" xml:space="preserve" transform="translate(539.7766 490.4693)" fill="#333" stroke="rgb(255,255,255)" stroke-width="2" paint-order="stroke" stroke-miterlimit="2">aayushgoyal.in: 6.43%</text>
<text dominant-baseline="central" text-anchor="end" style="font-size:12px;font-family:Manrope;" xml:space="preserve" transform="translate(350.1368 523.0094)" fill="#333" stroke="rgb(255,255,255)" stroke-width="2" paint-order="stroke" stroke-miterlimit="2">tallileo-android: 5.83%</text>
<text dominant-baseline="central" text-anchor="end" style="font-size:12px;font-family:Manrope;" xml:space="preserve" transform="translate(227.0991 465.0646)" fill="#333" stroke="rgb(255,255,255)" stroke-width="2" paint-order="stroke" stroke-miterlimit="2">tallileo.com: 5.01%</text>
<text dominant-baseline="central" text-anchor="end" style="font-size:12px;font-family:Manrope;" xml:space="preserve" transform="translate(164.1435 363.4899)" fill="#333" stroke="rgb(255,255,255)" stroke-width="2" paint-order="stroke" stroke-miterlimit="2">BillTea-Web: 4.48%</text>
<text dominant-baseline="central" text-anchor="end" style="font-size:12px;font-family:Manrope;" xml:space="preserve" transform="translate(158.9672 257.9344)" fill="#333" stroke="rgb(255,255,255)" stroke-width="2" paint-order="stroke" stroke-miterlimit="2">arena: 3.89%</text>
<text dominant-baseline="central" text-anchor="end" style="font-size:12px;font-family:Manrope;" xml:space="preserve" transform="translate(197.3588 168.5953)" fill="#333" stroke="rgb(255,255,255)" stroke-width="2" paint-order="stroke" stroke-miterlimit="2">app.tallileo.com: 3.8%</text>
<text dominant-baseline="central" text-anchor="end" style="font-size:12px;font-family:Manrope;" xml:space="preserve" transform="translate(268.1998 104.7419)" fill="#333" stroke="rgb(255,255,255)" stroke-width="2" paint-order="stroke" stroke-miterlimit="2">Calculator: 3.74%</text>
<text dominant-baseline="central" text-anchor="end" style="font-size:12px;font-family:Manrope;" xml:space="preserve" transform="translate(345.4696 77.6655)" fill="#333" stroke="rgb(255,255,255)" stroke-width="2" paint-order="stroke" stroke-miterlimit="2">moneytally: 2.72%</text>
<style ><![CDATA[
.zr1-cls-22:hover {
cursor:pointer;
}
.zr1-cls-23 {
animation:zr1-ani-0 1s cubic-bezier(0.65,0,0.35,1) both;
}
.zr1-cls-24:hover {
cursor:pointer;
fill:rgba(227,196,255,1);
}
.zr1-cls-25 {
animation:zr1-ani-1 1s cubic-bezier(0.65,0,0.35,1) both;
}
.zr1-cls-26:hover {
cursor:pointer;
fill:rgba(213,214,255,1);
}
.zr1-cls-27 {
animation:zr1-ani-2 1s cubic-bezier(0.65,0,0.35,1) both;
}
.zr1-cls-28:hover {
cursor:pointer;
fill:rgba(249,182,209,1);
}
.zr1-cls-29 {
animation:zr1-ani-3 1s cubic-bezier(0.65,0,0.35,1) both;
}
.zr1-cls-30:hover {
cursor:pointer;
fill:rgba(207,247,255,1);
}
.zr1-cls-31 {
animation:zr1-ani-4 1s cubic-bezier(0.65,0,0.35,1) both;
}
.zr1-cls-32:hover {
cursor:pointer;
fill:rgba(205,255,195,1);
}
.zr1-cls-33 {
animation:zr1-ani-5 1s cubic-bezier(0.65,0,0.35,1) both;
}
.zr1-cls-34:hover {
cursor:pointer;
fill:rgba(255,255,232,1);
}
.zr1-cls-35 {
animation:zr1-ani-6 1s cubic-bezier(0.65,0,0.35,1) both;
}
.zr1-cls-36:hover {
cursor:pointer;
fill:rgba(255,231,204,1);
}
.zr1-cls-37 {
animation:zr1-ani-7 1s cubic-bezier(0.65,0,0.35,1) both;
}
.zr1-cls-38:hover {
cursor:pointer;
fill:rgba(255,233,183,1);
}
.zr1-cls-39 {
animation:zr1-ani-8 1s cubic-bezier(0.65,0,0.35,1) both;
}
.zr1-cls-40:hover {
cursor:pointer;
fill:rgba(255,216,216,1);
}
.zr1-cls-41 {
animation:zr1-ani-9 1s cubic-bezier(0.65,0,0.35,1) both;
}
.zr1-cls-42:hover {
cursor:pointer;
fill:rgba(232,232,232,1);
}
@keyframes zr1-ani-0 {
0% {
transform:scale(0,0);
}
100% {

}
}
@keyframes zr1-ani-1 {
0% {
transform:scale(0,0);
}
100% {

}
}
@keyframes zr1-ani-2 {
0% {
transform:scale(0,0);
}
100% {

}
}
@keyframes zr1-ani-3 {
0% {
transform:scale(0,0);
}
100% {

}
}
@keyframes zr1-ani-4 {
0% {
transform:scale(0,0);
}
100% {

}
}
@keyframes zr1-ani-5 {
0% {
transform:scale(0,0);
}
100% {

}
}
@keyframes zr1-ani-6 {
0% {
transform:scale(0,0);
}
100% {

}
}
@keyframes zr1-ani-7 {
0% {
transform:scale(0,0);
}
100% {

}
}
@keyframes zr1-ani-8 {
0% {
transform:scale(0,0);
}
100% {

}
}
@keyframes zr1-ani-9 {
0% {
transform:scale(0,0);
}
100% {

}
}
]]>

</style>
</svg>