<svg width="800" height="600" xmlns="http://www.w3.org/2000/svg" xmlns:xlink="http://www.w3.org/1999/xlink" version="1.1" baseProfile="full" viewBox="0 0 800 600">
<rect width="800" height="600" x="0" y="0" fill="none"></rect>
<polyline points="534.9 139.1 544.5 127.6 559.5 127.6" fill="transparent" stroke="#CFB3E8" class="zr1-cls-22"></polyline>
<polyline points="607 335.2 621.8 337.7 636.8 337.7" fill="transparent" stroke="#C2C3F0" class="zr1-cls-22"></polyline>
<polyline points="537.9 458.4 547.7 469.7 562.7 469.7" fill="transparent" stroke="#E3A6BE" class="zr1-cls-22"></polyline>
<polyline points="410.3 509.7 411 524.7 426 524.7" fill="transparent" stroke="#BDE1ED" class="zr1-cls-22"></polyline>
<polyline points="283.9 475 275.6 487.5 260.6 487.5" fill="transparent" stroke="#BBEBB2" class="zr1-cls-22"></polyline>
<polyline points="207.4 383.6 193.6 389.6 178.6 389.6" fill="transparent" stroke="#FCF4D3" class="zr1-cls-22"></polyline>
<polyline points="190.9 280.2 176 278.7 161 278.7" fill="transparent" stroke="#F2D2BA" class="zr1-cls-22"></polyline>
<polyline points="219.9 191.9 207.1 184.2 192.1 184.2" fill="transparent" stroke="#F4D4A7" class="zr1-cls-22"></polyline>
<polyline points="278.8 128.5 270.1 116.3 255.1 116.3" fill="transparent" stroke="#EBC5C5" class="zr1-cls-22"></polyline>
<polyline points="357.4 94.4 354.4 79.7 339.4 79.7" fill="transparent" stroke="#D3D3D3" class="zr1-cls-22"></polyline>
<path d="M400 100.3A10 10 0 0 1 410.5 90.3A210 210 0 0 1 604.7 253A10 10 0 0 1 596.7 265.1L527.6 277.4A10 10 0 0 1 516.2 270A120 120 0 0 0 409.2 180.4A10 10 0 0 1 400 170.4Z" fill="#CFB3E8" stroke="#fff" stroke-width="2" stroke-linejoin="round" ecmeta_series_index="0" ecmeta_data_index="0" ecmeta_ssr_type="chart" transform-origin="400px 300px" class="zr1-cls-23 zr1-cls-24"></path>
<path d="M596.7 265.1A10 10 0 0 1 608.3 273.7A210 210 0 0 1 588 393.6A10 10 0 0 1 574.1 397.9L513 363.5A10 10 0 0 1 508.8 350.6A120 120 0 0 0 519.4 288.2A10 10 0 0 1 527.6 277.4Z" fill="#C2C3F0" stroke="#fff" stroke-width="2" stroke-linejoin="round" ecmeta_series_index="0" ecmeta_data_index="1" ecmeta_ssr_type="chart" transform-origin="400px 300px" class="zr1-cls-25 zr1-cls-26"></path>
<path d="M574.1 397.9A10 10 0 0 1 577.7 411.9A210 210 0 0 1 486.3 491.4A10 10 0 0 1 472.9 486L447.3 420.7A10 10 0 0 1 452.3 408A120 120 0 0 0 499.8 366.7A10 10 0 0 1 513 363.5Z" fill="#E3A6BE" stroke="#fff" stroke-width="2" stroke-linejoin="round" ecmeta_series_index="0" ecmeta_data_index="2" ecmeta_ssr_type="chart" transform-origin="400px 300px" class="zr1-cls-27 zr1-cls-28"></path>
<path d="M472.9 486A10 10 0 0 1 466.8 499.1A210 210 0 0 1 353 504.7A10 10 0 0 1 345.6 492.2L364.7 424.7A10 10 0 0 1 376.3 417.6A120 120 0 0 0 435.1 414.8A10 10 0 0 1 447.3 420.7Z" fill="#BDE1ED" stroke="#fff" stroke-width="2" stroke-linejoin="round" ecmeta_series_index="0" ecmeta_data_index="3" ecmeta_ssr_type="chart" transform-origin="400px 300px" class="zr1-cls-29 zr1-cls-30"></path>
<path d="M345.6 492.2A10 10 0 0 1 332.8 499A210 210 0 0 1 242.9 439.3A10 10 0 0 1 244.1 424.9L298.8 381A10 10 0 0 1 312.4 382A120 120 0 0 0 358.5 412.6A10 10 0 0 1 364.7 424.7Z" fill="#BBEBB2" stroke="#fff" stroke-width="2" stroke-linejoin="round" ecmeta_series_index="0" ecmeta_data_index="4" ecmeta_ssr_type="chart" transform-origin="400px 300px" class="zr1-cls-31 zr1-cls-32"></path>
<path d="M244.1 424.9A10 10 0 0 1 229.7 422.9A210 210 0 0 1 193.9 340.4A10 10 0 0 1 202.3 328.6L271.7 318.5A10 10 0 0 1 282.9 326.2A120 120 0 0 0 300.8 367.6A10 10 0 0 1 298.8 381Z" fill="#FCF4D3" stroke="#fff" stroke-width="2" stroke-linejoin="round" ecmeta_series_index="0" ecmeta_data_index="5" ecmeta_ssr_type="chart" transform-origin="400px 300px" class="zr1-cls-33 zr1-cls-34"></path>
<path d="M202.3 328.6A10 10 0 0 1 190.9 319.6A210 210 0 0 1 198.3 241.4A10 10 0 0 1 211.2 234.8L277.5 257.7A10 10 0 0 1 283.9 269.6A120 120 0 0 0 280.3 308A10 10 0 0 1 271.7 318.5Z" fill="#F2D2BA" stroke="#fff" stroke-width="2" stroke-linejoin="round" ecmeta_series_index="0" ecmeta_data_index="6" ecmeta_ssr_type="chart" transform-origin="400px 300px" class="zr1-cls-35 zr1-cls-36"></path>
<path d="M211.2 234.8A10 10 0 0 1 205.2 221.6A210 210 0 0 1 239.1 165A10 10 0 0 1 253.6 164.1L305 211.8A10 10 0 0 1 306 225.4A120 120 0 0 0 289.9 252.2A10 10 0 0 1 277.5 257.7Z" fill="#F4D4A7" stroke="#fff" stroke-width="2" stroke-linejoin="round" ecmeta_series_index="0" ecmeta_data_index="7" ecmeta_ssr_type="chart" transform-origin="400px 300px" class="zr1-cls-37 zr1-cls-38"></path>
<path d="M253.6 164.1A10 10 0 0 1 253.4 149.6A210 210 0 0 1 307.1 111.7A10 10 0 0 1 320.7 116.7L348.6 181A10 10 0 0 1 344 193.8A120 120 0 0 0 318.6 211.8A10 10 0 0 1 305 211.8Z" fill="#EBC5C5" stroke="#fff" stroke-width="2" stroke-linejoin="round" ecmeta_series_index="0" ecmeta_data_index="8" ecmeta_ssr_type="chart" transform-origin="400px 300px" class="zr1-cls-39 zr1-cls-40"></path>
<path d="M320.7 116.7A10 10 0 0 1 326.4 103.3A210 210 0 0 1 389.5 90.3A10 10 0 0 1 400 100.3L400 170.4A10 10 0 0 1 390.8 180.4A120 120 0 0 0 361 186.5A10 10 0 0 1 348.6 181Z" fill="#D3D3D3" stroke="#fff" stroke-width="2" stroke-linejoin="round" ecmeta_series_index="0" ecmeta_data_index="9" ecmeta_ssr_type="chart" transform-origin="400px 300px" class="zr1-cls-41 zr1-cls-42"></path>
<text dominant-baseline="central" text-anchor="start" style="font-size:12px;font-family:Manrope;" xml:space="preserve" transform="translate(564.5324 127.5605)" fill="#333" stroke="rgb(255,255,255)" stroke-width="2" paint-order="stroke" stroke-miterlimit="2">Tallileo: 11.28%</text>
<text dominant-baseline="central" text-anchor="start" style="font-size:12px;font-family:Manrope;" xml:space="preserve" transform="translate(641.8243 337.6693)" fill="#333" stroke="rgb(255,255,255)" stroke-width="2" paint-order="stroke" stroke-miterlimit="2">aayushgoyal.in: 5.56%</text>
<text dominant-baseline="central" text-anchor="start" style="font-size:12px;font-family:Manrope;" xml:space="preserve" transform="translate(567.7066 469.7285)" fill="#333" stroke="rgb(255,255,255)" stroke-width="2" paint-order="stroke" stroke-miterlimit="2">MoneyTally: 5.54%</text>
<text dominant-baseline="central" text-anchor="start" style="font-size:12px;font-family:Manrope;" xml:space="preserve" transform="translate(430.9881 524.7315)" fill="#333" stroke="rgb(255,255,255)" stroke-width="2" paint-order="stroke" stroke-miterlimit="2">chat-frontend-v2: 5.25%</text>
<text dominant-baseline="central" text-anchor="end" style="font-size:12px;font-family:Manrope;" xml:space="preserve" transform="translate(255.6337 487.5048)" fill="#333" stroke="rgb(255,255,255)" stroke-width="2" paint-order="stroke" stroke-miterlimit="2">tallileo-android: 5.01%</text>
<text dominant-baseline="central" text-anchor="end" style="font-size:12px;font-family:Manrope;" xml:space="preserve" transform="translate(173.5937 389.5626)" fill="#333" stroke="rgb(255,255,255)" stroke-width="2" paint-order="stroke" stroke-miterlimit="2">tallileo.com: 4.3%</text>
<text dominant-baseline="central" text-anchor="end" style="font-size:12px;font-family:Manrope;" xml:space="preserve" transform="translate(156.0064 278.7425)" fill="#333" stroke="rgb(255,255,255)" stroke-width="2" paint-order="stroke" stroke-miterlimit="2">BillTea-Web: 3.85%</text>
<text dominant-baseline="central" text-anchor="end" style="font-size:12px;font-family:Manrope;" xml:space="preserve" transform="translate(187.0737 184.2225)" fill="#333" stroke="rgb(255,255,255)" stroke-width="2" paint-order="stroke" stroke-miterlimit="2">compute-frontend: 3.36%</text>
<text dominant-baseline="central" text-anchor="end" style="font-size:12px;font-family:Manrope;" xml:space="preserve" transform="translate(250.1234 116.269)" fill="#333" stroke="rgb(255,255,255)" stroke-width="2" paint-order="stroke" stroke-miterlimit="2">arena: 3.35%</text>
<text dominant-baseline="central" text-anchor="end" style="font-size:12px;font-family:Manrope;" xml:space="preserve" transform="translate(334.4001 79.6692)" fill="#333" stroke="rgb(255,255,255)" stroke-width="2" paint-order="stroke" stroke-miterlimit="2">app.tallileo.com: 3.3%</text>
<style ><![CDATA[
.zr1-cls-22:hover {
cursor:pointer;
}
.zr1-cls-23 {
animation:zr1-ani-0 1s cubic-bezier(0.65,0,0.35,1) both;
}
.zr1-cls-24:hover {
cursor:pointer;
fill:rgba(227,196,255,1);
}
.zr1-cls-25 {
animation:zr1-ani-1 1s cubic-bezier(0.65,0,0.35,1) both;
}
.zr1-cls-26:hover {
cursor:pointer;
fill:rgba(213,214,255,1);
}
.zr1-cls-27 {
animation:zr1-ani-2 1s cubic-bezier(0.65,0,0.35,1) both;
}
.zr1-cls-28:hover {
cursor:pointer;
fill:rgba(249,182,209,1);
}
.zr1-cls-29 {
animation:zr1-ani-3 1s cubic-bezier(0.65,0,0.35,1) both;
}
.zr1-cls-30:hover {
cursor:pointer;
fill:rgba(207,247,255,1);
}
.zr1-cls-31 {
animation:zr1-ani-4 1s cubic-bezier(0.65,0,0.35,1) both;
}
.zr1-cls-32:hover {
cursor:pointer;
fill:rgba(205,255,195,1);
}
.zr1-cls-33 {
animation:zr1-ani-5 1s cubic-bezier(0.65,0,0.35,1) both;
}
.zr1-cls-34:hover {
cursor:pointer;
fill:rgba(255,255,232,1);
}
.zr1-cls-35 {
animation:zr1-ani-6 1s cubic-bezier(0.65,0,0.35,1) both;
}
.zr1-cls-36:hover {
cursor:pointer;
fill:rgba(255,231,204,1);
}
.zr1-cls-37 {
animation:zr1-ani-7 1s cubic-bezier(0.65,0,0.35,1) both;
}
.zr1-cls-38:hover {
cursor:pointer;
fill:rgba(255,233,183,1);
}
.zr1-cls-39 {
animation:zr1-ani-8 1s cubic-bezier(0.65,0,0.35,1) both;
}
.zr1-cls-40:hover {
cursor:pointer;
fill:rgba(255,216,216,1);
}
.zr1-cls-41 {
animation:zr1-ani-9 1s cubic-bezier(0.65,0,0.35,1) both;
}
.zr1-cls-42:hover {
cursor:pointer;
fill:rgba(232,232,232,1);
}
@keyframes zr1-ani-0 {
0% {
transform:scale(0,0);
}
100% {

}
}
@keyframes zr1-ani-1 {
0% {
transform:scale(0,0);
}
100% {

}
}
@keyframes zr1-ani-2 {
0% {
transform:scale(0,0);
}
100% {

}
}
@keyframes zr1-ani-3 {
0% {
transform:scale(0,0);
}
100% {

}
}
@keyframes zr1-ani-4 {
0% {
transform:scale(0,0);
}
100% {

}
}
@keyframes zr1-ani-5 {
0% {
transform:scale(0,0);
}
100% {

}
}
@keyframes zr1-ani-6 {
0% {
transform:scale(0,0);
}
100% {

}
}
@keyframes zr1-ani-7 {
0% {
transform:scale(0,0);
}
100% {

}
}
@keyframes zr1-ani-8 {
0% {
transform:scale(0,0);
}
100% {

}
}
@keyframes zr1-ani-9 {
0% {
transform:scale(0,0);
}
100% {

}
}
]]>

</style>
</svg>