<svg width="800" height="600" xmlns="http://www.w3.org/2000/svg" xmlns:xlink="http://www.w3.org/1999/xlink" version="1.1" baseProfile="full" viewBox="0 0 800 600">
<rect width="800" height="600" x="0" y="0" fill="none"></rect>
<polyline points="609.5 285.1 624.4 284 639.4 284" fill="transparent" stroke="#CFB3E8" class="zr1-cls-22"></polyline>
<polyline points="353.7 504.8 350.4 519.5 335.4 519.5" fill="transparent" stroke="#C2C3F0" class="zr1-cls-22"></polyline>
<polyline points="230.2 423.6 218.1 432.4 203.1 432.4" fill="transparent" stroke="#E3A6BE" class="zr1-cls-22"></polyline>
<polyline points="190.3 311.2 175.3 312 160.3 312" fill="transparent" stroke="#BDE1ED" class="zr1-cls-22"></polyline>
<polyline points="205.5 220.8 191.6 215.2 176.6 215.2" fill="transparent" stroke="#BBEBB2" class="zr1-cls-22"></polyline>
<polyline points="252.2 150.8 241.7 140.2 226.7 140.2" fill="transparent" stroke="#FCF4D3" class="zr1-cls-22"></polyline>
<polyline points="304.6 112.9 297.8 99.5 282.8 99.5" fill="transparent" stroke="#F2D2BA" class="zr1-cls-22"></polyline>
<polyline points="350.4 95.9 346.9 81.4 331.9 81.4" fill="transparent" stroke="#F4D4A7" class="zr1-cls-22"></polyline>
<path d="M400 100.3A10 10 0 0 1 410.5 90.3A210 210 0 0 1 440.1 506.1A10 10 0 0 1 428.3 497.7L418.4 428.3A10 10 0 0 1 426.1 417.1A120 120 0 0 0 409.2 180.4A10 10 0 0 1 400 170.4Z" fill="#CFB3E8" stroke="#fff" stroke-width="2" stroke-linejoin="round" ecmeta_series_index="0" ecmeta_data_index="0" ecmeta_ssr_type="chart" transform-origin="400px 300px" class="zr1-cls-23 zr1-cls-24"></path>
<path d="M428.3 497.7A10 10 0 0 1 419.3 509.1A210 210 0 0 1 292.7 480.5A10 10 0 0 1 289.5 466.4L328.3 408A10 10 0 0 1 341.5 404.8A120 120 0 0 0 407.8 419.7A10 10 0 0 1 418.4 428.3Z" fill="#C2C3F0" stroke="#fff" stroke-width="2" stroke-linejoin="round" ecmeta_series_index="0" ecmeta_data_index="1" ecmeta_ssr_type="chart" transform-origin="400px 300px" class="zr1-cls-25 zr1-cls-26"></path>
<path d="M289.5 466.4A10 10 0 0 1 275.2 468.9A210 210 0 0 1 200.9 366.9A10 10 0 0 1 207.7 354.1L275.2 335.1A10 10 0 0 1 287.3 341.3A120 120 0 0 0 326.1 394.6A10 10 0 0 1 328.3 408Z" fill="#E3A6BE" stroke="#fff" stroke-width="2" stroke-linejoin="round" ecmeta_series_index="0" ecmeta_data_index="2" ecmeta_ssr_type="chart" transform-origin="400px 300px" class="zr1-cls-27 zr1-cls-28"></path>
<path d="M207.7 354.1A10 10 0 0 1 195.3 346.7A210 210 0 0 1 191.5 275.3A10 10 0 0 1 203.1 266.6L272.2 278.3A10 10 0 0 1 280.5 289.1A120 120 0 0 0 282.3 323.5A10 10 0 0 1 275.2 335.1Z" fill="#BDE1ED" stroke="#fff" stroke-width="2" stroke-linejoin="round" ecmeta_series_index="0" ecmeta_data_index="3" ecmeta_ssr_type="chart" transform-origin="400px 300px" class="zr1-cls-29 zr1-cls-30"></path>
<path d="M203.1 266.6A10 10 0 0 1 195 254.6A210 210 0 0 1 221.5 189.3A10 10 0 0 1 235.7 186.4L293.4 226.3A10 10 0 0 1 296.4 239.5A120 120 0 0 0 283.6 270.9A10 10 0 0 1 272.2 278.3Z" fill="#BBEBB2" stroke="#fff" stroke-width="2" stroke-linejoin="round" ecmeta_series_index="0" ecmeta_data_index="4" ecmeta_ssr_type="chart" transform-origin="400px 300px" class="zr1-cls-31 zr1-cls-32"></path>
<path d="M235.7 186.4A10 10 0 0 1 233.5 172A210 210 0 0 1 273.6 132.3A10 10 0 0 1 287.9 134.7L327.3 192.7A10 10 0 0 1 325.2 206.1A120 120 0 0 0 306.9 224.3A10 10 0 0 1 293.4 226.3Z" fill="#FCF4D3" stroke="#fff" stroke-width="2" stroke-linejoin="round" ecmeta_series_index="0" ecmeta_data_index="5" ecmeta_ssr_type="chart" transform-origin="400px 300px" class="zr1-cls-33 zr1-cls-34"></path>
<path d="M287.9 134.7A10 10 0 0 1 291 120.5A210 210 0 0 1 318.8 106.4A10 10 0 0 1 332 112.2L355.9 178.1A10 10 0 0 1 350.6 190.6A120 120 0 0 0 340.5 195.8A10 10 0 0 1 327.3 192.7Z" fill="#F2D2BA" stroke="#fff" stroke-width="2" stroke-linejoin="round" ecmeta_series_index="0" ecmeta_data_index="6" ecmeta_ssr_type="chart" transform-origin="400px 300px" class="zr1-cls-35 zr1-cls-36"></path>
<path d="M332 112.2A10 10 0 0 1 338.5 99.2A210 210 0 0 1 362.5 93.4A10 10 0 0 1 374.2 101.9L383.3 171.5A10 10 0 0 1 375.4 182.6A120 120 0 0 0 368 184.4A10 10 0 0 1 355.9 178.1Z" fill="#F4D4A7" stroke="#fff" stroke-width="2" stroke-linejoin="round" ecmeta_series_index="0" ecmeta_data_index="7" ecmeta_ssr_type="chart" transform-origin="400px 300px" class="zr1-cls-37 zr1-cls-38"></path>
<path d="M374.2 101.9A10 10 0 0 1 383.3 90.7A210 210 0 0 1 386.5 90.4A10 10 0 0 1 397.1 100.3L398.2 172.9A7.3 7.3 0 0 1 383.6 174Z" fill="#EBC5C5" stroke="#fff" stroke-width="2" stroke-linejoin="round" ecmeta_series_index="0" ecmeta_data_index="8" ecmeta_ssr_type="chart" transform-origin="400px 300px" class="zr1-cls-39 zr1-cls-40"></path>
<path d="M397 91.5A1.5 1.5 0 1 1 400 91.5L400 179.1A0.9 0.9 0 0 1 398.3 179.1Z" fill="#D3D3D3" stroke="#fff" stroke-width="2" stroke-linejoin="round" ecmeta_series_index="0" ecmeta_data_index="9" ecmeta_ssr_type="chart" transform-origin="400px 300px" class="zr1-cls-41 zr1-cls-42"></path>
<text dominant-baseline="central" text-anchor="start" style="font-size:12px;font-family:Manrope;" xml:space="preserve" transform="translate(644.4318 284.0193)" fill="#333" stroke="rgb(255,255,255)" stroke-width="2" paint-order="stroke" stroke-miterlimit="2">LearningJavaAndJavaFX: 47.68%</text>
<text dominant-baseline="central" text-anchor="end" style="font-size:12px;font-family:Manrope;" xml:space="preserve" transform="translate(330.4455 519.4752)" fill="#333" stroke="rgb(255,255,255)" stroke-width="2" paint-order="stroke" stroke-miterlimit="2">CompetitiveCoding: 11.58%</text>
<text dominant-baseline="central" text-anchor="end" style="font-size:12px;font-family:Manrope;" xml:space="preserve" transform="translate(198.1127 432.4463)" fill="#333" stroke="rgb(255,255,255)" stroke-width="2" paint-order="stroke" stroke-miterlimit="2">AlgorithmsAndDataStructures: 11.29%</text>
<text dominant-baseline="central" text-anchor="end" style="font-size:12px;font-family:Manrope;" xml:space="preserve" transform="translate(155.3178 311.9546)" fill="#333" stroke="rgb(255,255,255)" stroke-width="2" paint-order="stroke" stroke-miterlimit="2">Calculator: 7.03%</text>
<text dominant-baseline="central" text-anchor="end" style="font-size:12px;font-family:Manrope;" xml:space="preserve" transform="translate(171.6029 215.1728)" fill="#333" stroke="rgb(255,255,255)" stroke-width="2" paint-order="stroke" stroke-miterlimit="2">SolarDroid: 6.95%</text>
<text dominant-baseline="central" text-anchor="end" style="font-size:12px;font-family:Manrope;" xml:space="preserve" transform="translate(221.6534 140.1521)" fill="#333" stroke="rgb(255,255,255)" stroke-width="2" paint-order="stroke" stroke-miterlimit="2">ActivityRecognition: 5.88%</text>
<text dominant-baseline="central" text-anchor="end" style="font-size:12px;font-family:Manrope;" xml:space="preserve" transform="translate(277.8017 99.5492)" fill="#333" stroke="rgb(255,255,255)" stroke-width="2" paint-order="stroke" stroke-miterlimit="2">aayush-goyal.github.io: 3.95%</text>
<text dominant-baseline="central" text-anchor="end" style="font-size:12px;font-family:Manrope;" xml:space="preserve" transform="translate(326.8625 81.3647)" fill="#333" stroke="rgb(255,255,255)" stroke-width="2" paint-order="stroke" stroke-miterlimit="2">Earthquake: 3.46%</text>
<style ><![CDATA[
.zr1-cls-22:hover {
cursor:pointer;
}
.zr1-cls-23 {
animation:zr1-ani-0 1s cubic-bezier(0.65,0,0.35,1) both;
}
.zr1-cls-24:hover {
cursor:pointer;
fill:rgba(227,196,255,1);
}
.zr1-cls-25 {
animation:zr1-ani-1 1s cubic-bezier(0.65,0,0.35,1) both;
}
.zr1-cls-26:hover {
cursor:pointer;
fill:rgba(213,214,255,1);
}
.zr1-cls-27 {
animation:zr1-ani-2 1s cubic-bezier(0.65,0,0.35,1) both;
}
.zr1-cls-28:hover {
cursor:pointer;
fill:rgba(249,182,209,1);
}
.zr1-cls-29 {
animation:zr1-ani-3 1s cubic-bezier(0.65,0,0.35,1) both;
}
.zr1-cls-30:hover {
cursor:pointer;
fill:rgba(207,247,255,1);
}
.zr1-cls-31 {
animation:zr1-ani-4 1s cubic-bezier(0.65,0,0.35,1) both;
}
.zr1-cls-32:hover {
cursor:pointer;
fill:rgba(205,255,195,1);
}
.zr1-cls-33 {
animation:zr1-ani-5 1s cubic-bezier(0.65,0,0.35,1) both;
}
.zr1-cls-34:hover {
cursor:pointer;
fill:rgba(255,255,232,1);
}
.zr1-cls-35 {
animation:zr1-ani-6 1s cubic-bezier(0.65,0,0.35,1) both;
}
.zr1-cls-36:hover {
cursor:pointer;
fill:rgba(255,231,204,1);
}
.zr1-cls-37 {
animation:zr1-ani-7 1s cubic-bezier(0.65,0,0.35,1) both;
}
.zr1-cls-38:hover {
cursor:pointer;
fill:rgba(255,233,183,1);
}
.zr1-cls-39 {
animation:zr1-ani-8 1s cubic-bezier(0.65,0,0.35,1) both;
}
.zr1-cls-40:hover {
cursor:pointer;
fill:rgba(255,216,216,1);
}
.zr1-cls-41 {
animation:zr1-ani-9 1s cubic-bezier(0.65,0,0.35,1) both;
}
.zr1-cls-42:hover {
cursor:pointer;
fill:rgba(232,232,232,1);
}
@keyframes zr1-ani-0 {
0% {
transform:scale(0,0);
}
100% {

}
}
@keyframes zr1-ani-1 {
0% {
transform:scale(0,0);
}
100% {

}
}
@keyframes zr1-ani-2 {
0% {
transform:scale(0,0);
}
100% {

}
}
@keyframes zr1-ani-3 {
0% {
transform:scale(0,0);
}
100% {

}
}
@keyframes zr1-ani-4 {
0% {
transform:scale(0,0);
}
100% {

}
}
@keyframes zr1-ani-5 {
0% {
transform:scale(0,0);
}
100% {

}
}
@keyframes zr1-ani-6 {
0% {
transform:scale(0,0);
}
100% {

}
}
@keyframes zr1-ani-7 {
0% {
transform:scale(0,0);
}
100% {

}
}
@keyframes zr1-ani-8 {
0% {
transform:scale(0,0);
}
100% {

}
}
@keyframes zr1-ani-9 {
0% {
transform:scale(0,0);
}
100% {

}
}
]]>

</style>
</svg>