<svg width="800" height="600" xmlns="http://www.w3.org/2000/svg" xmlns:xlink="http://www.w3.org/1999/xlink" version="1.1" baseProfile="full" viewBox="0 0 800 600">
<rect width="800" height="600" x="0" y="0" fill="none"></rect>
<polyline points="533 137.5 542.5 125.9 557.5 125.9" fill="transparent" stroke="#CFB3E8" class="zr1-cls-22"></polyline>
<polyline points="608 329.1 622.8 331.2 637.8 331.2" fill="transparent" stroke="#C2C3F0" class="zr1-cls-22"></polyline>
<polyline points="544.2 452.7 554.5 463.6 569.5 463.6" fill="transparent" stroke="#E3A6BE" class="zr1-cls-22"></polyline>
<polyline points="421 508.9 422.5 523.9 437.5 523.9" fill="transparent" stroke="#BDE1ED" class="zr1-cls-22"></polyline>
<polyline points="294.9 481.8 287.4 494.8 272.4 494.8" fill="transparent" stroke="#BBEBB2" class="zr1-cls-22"></polyline>
<polyline points="213.7 396.9 200.4 403.9 185.4 403.9" fill="transparent" stroke="#FCF4D3" class="zr1-cls-22"></polyline>
<polyline points="190.2 291.9 175.2 291.4 160.2 291.4" fill="transparent" stroke="#F2D2BA" class="zr1-cls-22"></polyline>
<polyline points="218.7 194 205.7 186.5 190.7 186.5" fill="transparent" stroke="#F4D4A7" class="zr1-cls-22"></polyline>
<polyline points="280.7 127.2 272.2 114.8 257.2 114.8" fill="transparent" stroke="#EBC5C5" class="zr1-cls-22"></polyline>
<polyline points="358.2 94.2 355.2 79.5 340.2 79.5" fill="transparent" stroke="#D3D3D3" class="zr1-cls-22"></polyline>
<path d="M400 100.3A10 10 0 0 1 410.5 90.3A210 210 0 0 1 603.5 248.3A10 10 0 0 1 595.8 260.5L527.1 274.4A10 10 0 0 1 515.5 267.3A120 120 0 0 0 409.2 180.4A10 10 0 0 1 400 170.4Z" fill="#CFB3E8" stroke="#fff" stroke-width="2" stroke-linejoin="round" ecmeta_series_index="0" ecmeta_data_index="0" ecmeta_ssr_type="chart" transform-origin="400px 300px" class="zr1-cls-23 zr1-cls-24"></path>
<path d="M595.8 260.5A10 10 0 0 1 607.7 268.9A210 210 0 0 1 591.1 387A10 10 0 0 1 577.4 391.8L515.1 359.5A10 10 0 0 1 510.5 346.8A120 120 0 0 0 519.1 285.4A10 10 0 0 1 527.1 274.4Z" fill="#C2C3F0" stroke="#fff" stroke-width="2" stroke-linejoin="round" ecmeta_series_index="0" ecmeta_data_index="1" ecmeta_ssr_type="chart" transform-origin="400px 300px" class="zr1-cls-25 zr1-cls-26"></path>
<path d="M577.4 391.8A10 10 0 0 1 581.5 405.7A210 210 0 0 1 495.1 487.2A10 10 0 0 1 481.4 482.4L452.8 418.4A10 10 0 0 1 457.2 405.5A120 120 0 0 0 502 363.2A10 10 0 0 1 515.1 359.5Z" fill="#E3A6BE" stroke="#fff" stroke-width="2" stroke-linejoin="round" ecmeta_series_index="0" ecmeta_data_index="2" ecmeta_ssr_type="chart" transform-origin="400px 300px" class="zr1-cls-27 zr1-cls-28"></path>
<path d="M481.4 482.4A10 10 0 0 1 475.9 495.8A210 210 0 0 1 364.6 507A10 10 0 0 1 356.5 495L371.8 426.5A10 10 0 0 1 383 418.8A120 120 0 0 0 440.3 413A10 10 0 0 1 452.8 418.4Z" fill="#BDE1ED" stroke="#fff" stroke-width="2" stroke-linejoin="round" ecmeta_series_index="0" ecmeta_data_index="3" ecmeta_ssr_type="chart" transform-origin="400px 300px" class="zr1-cls-29 zr1-cls-30"></path>
<path d="M356.5 495A10 10 0 0 1 344.1 502.4A210 210 0 0 1 252.4 449.4A10 10 0 0 1 252.7 434.9L304.4 387.6A10 10 0 0 1 318 387.6A120 120 0 0 0 364.9 414.8A10 10 0 0 1 371.8 426.5Z" fill="#BBEBB2" stroke="#fff" stroke-width="2" stroke-linejoin="round" ecmeta_series_index="0" ecmeta_data_index="4" ecmeta_ssr_type="chart" transform-origin="400px 300px" class="zr1-cls-31 zr1-cls-32"></path>
<path d="M252.7 434.9A10 10 0 0 1 238.2 433.9A210 210 0 0 1 197.5 355.6A10 10 0 0 1 205 343.2L273.5 328A10 10 0 0 1 285.2 334.9A120 120 0 0 0 305.5 374A10 10 0 0 1 304.4 387.6Z" fill="#FCF4D3" stroke="#fff" stroke-width="2" stroke-linejoin="round" ecmeta_series_index="0" ecmeta_data_index="5" ecmeta_ssr_type="chart" transform-origin="400px 300px" class="zr1-cls-33 zr1-cls-34"></path>
<path d="M205 343.2A10 10 0 0 1 193 335.1A210 210 0 0 1 196.3 249.1A10 10 0 0 1 208.9 242L276 262.3A10 10 0 0 1 282.8 274.1A120 120 0 0 0 281.2 316.9A10 10 0 0 1 273.5 328Z" fill="#F2D2BA" stroke="#fff" stroke-width="2" stroke-linejoin="round" ecmeta_series_index="0" ecmeta_data_index="6" ecmeta_ssr_type="chart" transform-origin="400px 300px" class="zr1-cls-35 zr1-cls-36"></path>
<path d="M208.9 242A10 10 0 0 1 202.4 229A210 210 0 0 1 241.2 162.6A10 10 0 0 1 255.6 161.9L306.3 210.4A10 10 0 0 1 307.2 224A120 120 0 0 0 288.2 256.4A10 10 0 0 1 276 262.3Z" fill="#F4D4A7" stroke="#fff" stroke-width="2" stroke-linejoin="round" ecmeta_series_index="0" ecmeta_data_index="7" ecmeta_ssr_type="chart" transform-origin="400px 300px" class="zr1-cls-37 zr1-cls-38"></path>
<path d="M255.6 161.9A10 10 0 0 1 255.7 147.4A210 210 0 0 1 308.5 111A10 10 0 0 1 322.1 116.1L349.4 180.7A10 10 0 0 1 344.8 193.4A120 120 0 0 0 319.9 210.6A10 10 0 0 1 306.3 210.4Z" fill="#EBC5C5" stroke="#fff" stroke-width="2" stroke-linejoin="round" ecmeta_series_index="0" ecmeta_data_index="8" ecmeta_ssr_type="chart" transform-origin="400px 300px" class="zr1-cls-39 zr1-cls-40"></path>
<path d="M322.1 116.1A10 10 0 0 1 327.8 102.8A210 210 0 0 1 389.5 90.3A10 10 0 0 1 400 100.3L400 170.4A10 10 0 0 1 390.8 180.4A120 120 0 0 0 361.8 186.2A10 10 0 0 1 349.4 180.7Z" fill="#D3D3D3" stroke="#fff" stroke-width="2" stroke-linejoin="round" ecmeta_series_index="0" ecmeta_data_index="9" ecmeta_ssr_type="chart" transform-origin="400px 300px" class="zr1-cls-41 zr1-cls-42"></path>
<text dominant-baseline="central" text-anchor="start" style="font-size:12px;font-family:Manrope;" xml:space="preserve" transform="translate(562.5212 125.8946)" fill="#333" stroke="rgb(255,255,255)" stroke-width="2" paint-order="stroke" stroke-miterlimit="2">Tallileo: 11.16%</text>
<text dominant-baseline="central" text-anchor="start" style="font-size:12px;font-family:Manrope;" xml:space="preserve" transform="translate(642.8229 331.2242)" fill="#333" stroke="rgb(255,255,255)" stroke-width="2" paint-order="stroke" stroke-miterlimit="2">aayushgoyal.in: 5.5%</text>
<text dominant-baseline="central" text-anchor="start" style="font-size:12px;font-family:Manrope;" xml:space="preserve" transform="translate(574.4621 463.6046)" fill="#333" stroke="rgb(255,255,255)" stroke-width="2" paint-order="stroke" stroke-miterlimit="2">MoneyTally: 5.48%</text>
<text dominant-baseline="central" text-anchor="start" style="font-size:12px;font-family:Manrope;" xml:space="preserve" transform="translate(442.5054 523.8716)" fill="#333" stroke="rgb(255,255,255)" stroke-width="2" paint-order="stroke" stroke-miterlimit="2">chat-frontend-v2: 5.2%</text>
<text dominant-baseline="central" text-anchor="end" style="font-size:12px;font-family:Manrope;" xml:space="preserve" transform="translate(267.3603 494.775)" fill="#333" stroke="rgb(255,255,255)" stroke-width="2" paint-order="stroke" stroke-miterlimit="2">tallileo-android: 4.96%</text>
<text dominant-baseline="central" text-anchor="end" style="font-size:12px;font-family:Manrope;" xml:space="preserve" transform="translate(180.4004 403.8508)" fill="#333" stroke="rgb(255,255,255)" stroke-width="2" paint-order="stroke" stroke-miterlimit="2">tallileo.com: 4.26%</text>
<text dominant-baseline="central" text-anchor="end" style="font-size:12px;font-family:Manrope;" xml:space="preserve" transform="translate(155.166 291.3583)" fill="#333" stroke="rgb(255,255,255)" stroke-width="2" paint-order="stroke" stroke-miterlimit="2">compute-frontend: 4.17%</text>
<text dominant-baseline="central" text-anchor="end" style="font-size:12px;font-family:Manrope;" xml:space="preserve" transform="translate(185.7464 186.4636)" fill="#333" stroke="rgb(255,255,255)" stroke-width="2" paint-order="stroke" stroke-miterlimit="2">BillTea-Web: 3.81%</text>
<text dominant-baseline="central" text-anchor="end" style="font-size:12px;font-family:Manrope;" xml:space="preserve" transform="translate(252.1723 114.8377)" fill="#333" stroke="rgb(255,255,255)" stroke-width="2" paint-order="stroke" stroke-miterlimit="2">arena: 3.31%</text>
<text dominant-baseline="central" text-anchor="end" style="font-size:12px;font-family:Manrope;" xml:space="preserve" transform="translate(335.2149 79.5022)" fill="#333" stroke="rgb(255,255,255)" stroke-width="2" paint-order="stroke" stroke-miterlimit="2">app.tallileo.com: 3.26%</text>
<style ><![CDATA[
.zr1-cls-22:hover {
cursor:pointer;
}
.zr1-cls-23 {
animation:zr1-ani-0 1s cubic-bezier(0.65,0,0.35,1) both;
}
.zr1-cls-24:hover {
cursor:pointer;
fill:rgba(227,196,255,1);
}
.zr1-cls-25 {
animation:zr1-ani-1 1s cubic-bezier(0.65,0,0.35,1) both;
}
.zr1-cls-26:hover {
cursor:pointer;
fill:rgba(213,214,255,1);
}
.zr1-cls-27 {
animation:zr1-ani-2 1s cubic-bezier(0.65,0,0.35,1) both;
}
.zr1-cls-28:hover {
cursor:pointer;
fill:rgba(249,182,209,1);
}
.zr1-cls-29 {
animation:zr1-ani-3 1s cubic-bezier(0.65,0,0.35,1) both;
}
.zr1-cls-30:hover {
cursor:pointer;
fill:rgba(207,247,255,1);
}
.zr1-cls-31 {
animation:zr1-ani-4 1s cubic-bezier(0.65,0,0.35,1) both;
}
.zr1-cls-32:hover {
cursor:pointer;
fill:rgba(205,255,195,1);
}
.zr1-cls-33 {
animation:zr1-ani-5 1s cubic-bezier(0.65,0,0.35,1) both;
}
.zr1-cls-34:hover {
cursor:pointer;
fill:rgba(255,255,232,1);
}
.zr1-cls-35 {
animation:zr1-ani-6 1s cubic-bezier(0.65,0,0.35,1) both;
}
.zr1-cls-36:hover {
cursor:pointer;
fill:rgba(255,231,204,1);
}
.zr1-cls-37 {
animation:zr1-ani-7 1s cubic-bezier(0.65,0,0.35,1) both;
}
.zr1-cls-38:hover {
cursor:pointer;
fill:rgba(255,233,183,1);
}
.zr1-cls-39 {
animation:zr1-ani-8 1s cubic-bezier(0.65,0,0.35,1) both;
}
.zr1-cls-40:hover {
cursor:pointer;
fill:rgba(255,216,216,1);
}
.zr1-cls-41 {
animation:zr1-ani-9 1s cubic-bezier(0.65,0,0.35,1) both;
}
.zr1-cls-42:hover {
cursor:pointer;
fill:rgba(232,232,232,1);
}
@keyframes zr1-ani-0 {
0% {
transform:scale(0,0);
}
100% {

}
}
@keyframes zr1-ani-1 {
0% {
transform:scale(0,0);
}
100% {

}
}
@keyframes zr1-ani-2 {
0% {
transform:scale(0,0);
}
100% {

}
}
@keyframes zr1-ani-3 {
0% {
transform:scale(0,0);
}
100% {

}
}
@keyframes zr1-ani-4 {
0% {
transform:scale(0,0);
}
100% {

}
}
@keyframes zr1-ani-5 {
0% {
transform:scale(0,0);
}
100% {

}
}
@keyframes zr1-ani-6 {
0% {
transform:scale(0,0);
}
100% {

}
}
@keyframes zr1-ani-7 {
0% {
transform:scale(0,0);
}
100% {

}
}
@keyframes zr1-ani-8 {
0% {
transform:scale(0,0);
}
100% {

}
}
@keyframes zr1-ani-9 {
0% {
transform:scale(0,0);
}
100% {

}
}
]]>

</style>
</svg>