<svg width="800" height="600" xmlns="http://www.w3.org/2000/svg" xmlns:xlink="http://www.w3.org/1999/xlink" version="1.1" baseProfile="full" viewBox="0 0 800 600">
<rect width="800" height="600" x="0" y="0" fill="none"></rect>
<polyline points="538.5 142.1 548.3 130.8 563.3 130.8" fill="transparent" stroke="#CFB3E8" class="zr1-cls-22"></polyline>
<polyline points="604.8 346.5 619.4 349.8 634.4 349.8" fill="transparent" stroke="#C2C3F0" class="zr1-cls-22"></polyline>
<polyline points="525.3 468.5 534.2 480.6 549.2 480.6" fill="transparent" stroke="#E3A6BE" class="zr1-cls-22"></polyline>
<polyline points="392.8 509.9 392.3 524.9 377.3 524.9" fill="transparent" stroke="#BDE1ED" class="zr1-cls-22"></polyline>
<polyline points="276.5 469.8 267.7 482 252.7 482" fill="transparent" stroke="#BBEBB2" class="zr1-cls-22"></polyline>
<polyline points="208.4 385.9 194.7 392 179.7 392" fill="transparent" stroke="#FCF4D3" class="zr1-cls-22"></polyline>
<polyline points="190.5 285.1 175.6 284.1 160.6 284.1" fill="transparent" stroke="#F2D2BA" class="zr1-cls-22"></polyline>
<polyline points="218.9 193.7 205.9 186.1 190.9 186.1" fill="transparent" stroke="#F4D4A7" class="zr1-cls-22"></polyline>
<polyline points="278.3 128.9 269.6 116.6 254.6 116.6" fill="transparent" stroke="#EBC5C5" class="zr1-cls-22"></polyline>
<polyline points="357.3 94.4 354.2 79.7 339.2 79.7" fill="transparent" stroke="#D3D3D3" class="zr1-cls-22"></polyline>
<path d="M400 100.3A10 10 0 0 1 410.5 90.3A210 210 0 0 1 606.6 262.2A10 10 0 0 1 598 273.9L528.5 283.1A10 10 0 0 1 517.4 275.2A120 120 0 0 0 409.2 180.4A10 10 0 0 1 400 170.4Z" fill="#CFB3E8" stroke="#fff" stroke-width="2" stroke-linejoin="round" ecmeta_series_index="0" ecmeta_data_index="0" ecmeta_ssr_type="chart" transform-origin="400px 300px" class="zr1-cls-23 zr1-cls-24"></path>
<path d="M598 273.9A10 10 0 0 1 609.3 283A210 210 0 0 1 581.4 405.8A10 10 0 0 1 567.3 409.1L508.6 370.8A10 10 0 0 1 505.3 357.6A120 120 0 0 0 519.8 293.5A10 10 0 0 1 528.5 283.1Z" fill="#C2C3F0" stroke="#fff" stroke-width="2" stroke-linejoin="round" ecmeta_series_index="0" ecmeta_data_index="1" ecmeta_ssr_type="chart" transform-origin="400px 300px" class="zr1-cls-25 zr1-cls-26"></path>
<path d="M567.3 409.1A10 10 0 0 1 570 423.3A210 210 0 0 1 469.1 498.3A10 10 0 0 1 456.3 491.7L436.5 424.4A10 10 0 0 1 442.6 412.2A120 120 0 0 0 495.2 373.1A10 10 0 0 1 508.6 370.8Z" fill="#E3A6BE" stroke="#fff" stroke-width="2" stroke-linejoin="round" ecmeta_series_index="0" ecmeta_data_index="2" ecmeta_ssr_type="chart" transform-origin="400px 300px" class="zr1-cls-27 zr1-cls-28"></path>
<path d="M456.3 491.7A10 10 0 0 1 449 504.2A210 210 0 0 1 337.2 500.4A10 10 0 0 1 330.8 487.4L355.1 421.6A10 10 0 0 1 367.2 415.4A120 120 0 0 0 424.8 417.4A10 10 0 0 1 436.5 424.4Z" fill="#BDE1ED" stroke="#fff" stroke-width="2" stroke-linejoin="round" ecmeta_series_index="0" ecmeta_data_index="3" ecmeta_ssr_type="chart" transform-origin="400px 300px" class="zr1-cls-29 zr1-cls-30"></path>
<path d="M330.8 487.4A10 10 0 0 1 317.5 493.1A210 210 0 0 1 241.7 438A10 10 0 0 1 243.1 423.6L298.2 380.2A10 10 0 0 1 311.7 381.3A120 120 0 0 0 349.9 409A10 10 0 0 1 355.1 421.6Z" fill="#BBEBB2" stroke="#fff" stroke-width="2" stroke-linejoin="round" ecmeta_series_index="0" ecmeta_data_index="4" ecmeta_ssr_type="chart" transform-origin="400px 300px" class="zr1-cls-31 zr1-cls-32"></path>
<path d="M243.1 423.6A10 10 0 0 1 228.7 421.5A210 210 0 0 1 195.3 346.9A10 10 0 0 1 203.3 334.8L272.4 322.6A10 10 0 0 1 283.8 329.9A120 120 0 0 0 300.3 366.8A10 10 0 0 1 298.2 380.2Z" fill="#FCF4D3" stroke="#fff" stroke-width="2" stroke-linejoin="round" ecmeta_series_index="0" ecmeta_data_index="5" ecmeta_ssr_type="chart" transform-origin="400px 300px" class="zr1-cls-33 zr1-cls-34"></path>
<path d="M203.3 334.8A10 10 0 0 1 191.6 326.2A210 210 0 0 1 197.4 244.6A10 10 0 0 1 210.2 237.7L276.8 259.6A10 10 0 0 1 283.4 271.5A120 120 0 0 0 280.6 311.8A10 10 0 0 1 272.4 322.6Z" fill="#F2D2BA" stroke="#fff" stroke-width="2" stroke-linejoin="round" ecmeta_series_index="0" ecmeta_data_index="6" ecmeta_ssr_type="chart" transform-origin="400px 300px" class="zr1-cls-35 zr1-cls-36"></path>
<path d="M210.2 237.7A10 10 0 0 1 204 224.6A210 210 0 0 1 238.6 165.6A10 10 0 0 1 253.1 164.7L304.7 212.2A10 10 0 0 1 305.7 225.7A120 120 0 0 0 289.2 253.9A10 10 0 0 1 276.8 259.6Z" fill="#F4D4A7" stroke="#fff" stroke-width="2" stroke-linejoin="round" ecmeta_series_index="0" ecmeta_data_index="7" ecmeta_ssr_type="chart" transform-origin="400px 300px" class="zr1-cls-37 zr1-cls-38"></path>
<path d="M253.1 164.7A10 10 0 0 1 252.8 150.2A210 210 0 0 1 306.8 111.8A10 10 0 0 1 320.4 116.8L348.4 181.1A10 10 0 0 1 343.9 193.9A120 120 0 0 0 318.3 212.2A10 10 0 0 1 304.7 212.2Z" fill="#EBC5C5" stroke="#fff" stroke-width="2" stroke-linejoin="round" ecmeta_series_index="0" ecmeta_data_index="8" ecmeta_ssr_type="chart" transform-origin="400px 300px" class="zr1-cls-39 zr1-cls-40"></path>
<path d="M320.4 116.8A10 10 0 0 1 326.1 103.4A210 210 0 0 1 389.5 90.3A10 10 0 0 1 400 100.3L400 170.4A10 10 0 0 1 390.8 180.4A120 120 0 0 0 360.8 186.6A10 10 0 0 1 348.4 181.1Z" fill="#D3D3D3" stroke="#fff" stroke-width="2" stroke-linejoin="round" ecmeta_series_index="0" ecmeta_data_index="9" ecmeta_ssr_type="chart" transform-origin="400px 300px" class="zr1-cls-41 zr1-cls-42"></path>
<text dominant-baseline="central" text-anchor="start" style="font-size:12px;font-family:Manrope;" xml:space="preserve" transform="translate(568.3466 130.8306)" fill="#333" stroke="rgb(255,255,255)" stroke-width="2" paint-order="stroke" stroke-miterlimit="2">Tallileo: 12.23%</text>
<text dominant-baseline="central" text-anchor="start" style="font-size:12px;font-family:Manrope;" xml:space="preserve" transform="translate(639.4092 349.8458)" fill="#333" stroke="rgb(255,255,255)" stroke-width="2" paint-order="stroke" stroke-miterlimit="2">aayushgoyal.in: 6.02%</text>
<text dominant-baseline="central" text-anchor="start" style="font-size:12px;font-family:Manrope;" xml:space="preserve" transform="translate(554.2367 480.5699)" fill="#333" stroke="rgb(255,255,255)" stroke-width="2" paint-order="stroke" stroke-miterlimit="2">MoneyTally: 6.01%</text>
<text dominant-baseline="central" text-anchor="end" style="font-size:12px;font-family:Manrope;" xml:space="preserve" transform="translate(372.3197 524.8689)" fill="#333" stroke="rgb(255,255,255)" stroke-width="2" paint-order="stroke" stroke-miterlimit="2">tallileo-android: 5.43%</text>
<text dominant-baseline="central" text-anchor="end" style="font-size:12px;font-family:Manrope;" xml:space="preserve" transform="translate(247.684 481.9821)" fill="#333" stroke="rgb(255,255,255)" stroke-width="2" paint-order="stroke" stroke-miterlimit="2">tallileo.com: 4.67%</text>
<text dominant-baseline="central" text-anchor="end" style="font-size:12px;font-family:Manrope;" xml:space="preserve" transform="translate(174.6629 391.9874)" fill="#333" stroke="rgb(255,255,255)" stroke-width="2" paint-order="stroke" stroke-miterlimit="2">chat-frontend-v2: 4.18%</text>
<text dominant-baseline="central" text-anchor="end" style="font-size:12px;font-family:Manrope;" xml:space="preserve" transform="translate(155.5658 284.0538)" fill="#333" stroke="rgb(255,255,255)" stroke-width="2" paint-order="stroke" stroke-miterlimit="2">BillTea-Web: 4.18%</text>
<text dominant-baseline="central" text-anchor="end" style="font-size:12px;font-family:Manrope;" xml:space="preserve" transform="translate(185.9438 186.1264)" fill="#333" stroke="rgb(255,255,255)" stroke-width="2" paint-order="stroke" stroke-miterlimit="2">arena: 3.63%</text>
<text dominant-baseline="central" text-anchor="end" style="font-size:12px;font-family:Manrope;" xml:space="preserve" transform="translate(249.6196 116.6262)" fill="#333" stroke="rgb(255,255,255)" stroke-width="2" paint-order="stroke" stroke-miterlimit="2">app.tallileo.com: 3.54%</text>
<text dominant-baseline="central" text-anchor="end" style="font-size:12px;font-family:Manrope;" xml:space="preserve" transform="translate(334.2309 79.7043)" fill="#333" stroke="rgb(255,255,255)" stroke-width="2" paint-order="stroke" stroke-miterlimit="2">Calculator: 3.48%</text>
<style ><![CDATA[
.zr1-cls-22:hover {
cursor:pointer;
}
.zr1-cls-23 {
animation:zr1-ani-0 1s cubic-bezier(0.65,0,0.35,1) both;
}
.zr1-cls-24:hover {
cursor:pointer;
fill:rgba(227,196,255,1);
}
.zr1-cls-25 {
animation:zr1-ani-1 1s cubic-bezier(0.65,0,0.35,1) both;
}
.zr1-cls-26:hover {
cursor:pointer;
fill:rgba(213,214,255,1);
}
.zr1-cls-27 {
animation:zr1-ani-2 1s cubic-bezier(0.65,0,0.35,1) both;
}
.zr1-cls-28:hover {
cursor:pointer;
fill:rgba(249,182,209,1);
}
.zr1-cls-29 {
animation:zr1-ani-3 1s cubic-bezier(0.65,0,0.35,1) both;
}
.zr1-cls-30:hover {
cursor:pointer;
fill:rgba(207,247,255,1);
}
.zr1-cls-31 {
animation:zr1-ani-4 1s cubic-bezier(0.65,0,0.35,1) both;
}
.zr1-cls-32:hover {
cursor:pointer;
fill:rgba(205,255,195,1);
}
.zr1-cls-33 {
animation:zr1-ani-5 1s cubic-bezier(0.65,0,0.35,1) both;
}
.zr1-cls-34:hover {
cursor:pointer;
fill:rgba(255,255,232,1);
}
.zr1-cls-35 {
animation:zr1-ani-6 1s cubic-bezier(0.65,0,0.35,1) both;
}
.zr1-cls-36:hover {
cursor:pointer;
fill:rgba(255,231,204,1);
}
.zr1-cls-37 {
animation:zr1-ani-7 1s cubic-bezier(0.65,0,0.35,1) both;
}
.zr1-cls-38:hover {
cursor:pointer;
fill:rgba(255,233,183,1);
}
.zr1-cls-39 {
animation:zr1-ani-8 1s cubic-bezier(0.65,0,0.35,1) both;
}
.zr1-cls-40:hover {
cursor:pointer;
fill:rgba(255,216,216,1);
}
.zr1-cls-41 {
animation:zr1-ani-9 1s cubic-bezier(0.65,0,0.35,1) both;
}
.zr1-cls-42:hover {
cursor:pointer;
fill:rgba(232,232,232,1);
}
@keyframes zr1-ani-0 {
0% {
transform:scale(0,0);
}
100% {

}
}
@keyframes zr1-ani-1 {
0% {
transform:scale(0,0);
}
100% {

}
}
@keyframes zr1-ani-2 {
0% {
transform:scale(0,0);
}
100% {

}
}
@keyframes zr1-ani-3 {
0% {
transform:scale(0,0);
}
100% {

}
}
@keyframes zr1-ani-4 {
0% {
transform:scale(0,0);
}
100% {

}
}
@keyframes zr1-ani-5 {
0% {
transform:scale(0,0);
}
100% {

}
}
@keyframes zr1-ani-6 {
0% {
transform:scale(0,0);
}
100% {

}
}
@keyframes zr1-ani-7 {
0% {
transform:scale(0,0);
}
100% {

}
}
@keyframes zr1-ani-8 {
0% {
transform:scale(0,0);
}
100% {

}
}
@keyframes zr1-ani-9 {
0% {
transform:scale(0,0);
}
100% {

}
}
]]>

</style>
</svg>