
          <style>
            @font-face {
                font-family: 'Manrope';
                font-style: normal;
                font-weight: 400;
                font-display: swap;
                src: url(https://fonts.gstatic.com/s/manrope/v15/xn7_YHE41ni1AdIRqAuZuw1Bx9mbZk79FN_C-bnTfc7AGrY.woff2) format('woff2');
                unicode-range: U+0000-00FF, U+0131, U+0152-0153, U+02BB-02BC, U+02C6, U+02DA, U+02DC, U+0304, U+0308, U+0329, U+2000-206F, U+2074, U+20AC, U+2122, U+2191, U+2193, U+2212, U+2215, U+FEFF, U+FFFD;
            }
            text {
              font-family: 'Manrope';
            }
          </style>
        <svg width="800" height="600" xmlns="http://www.w3.org/2000/svg" xmlns:xlink="http://www.w3.org/1999/xlink" version="1.1" baseProfile="full" viewBox="0 0 800 600">
<rect width="800" height="600" x="0" y="0" fill="none"></rect>
<polyline points="414 509.5 415 524.5 430 524.5" fill="transparent" stroke="#CFB3E8" class="zr1-cls-21"></polyline>
<polyline points="383.5 90.6 382.3 75.7 367.3 75.7" fill="transparent" stroke="#C2C3F0" class="zr1-cls-21"></polyline>
<path d="M400 100.3A10 10 0 0 1 410.5 90.3A210 210 0 1 1 361.7 93.5A10 10 0 0 1 373.5 102L382.8 171.5A10 10 0 0 1 375 182.6A120 120 0 1 0 409.2 180.4A10 10 0 0 1 400 170.4Z" fill="#CFB3E8" stroke="#fff" stroke-width="2" stroke-linejoin="round" ecmeta_series_index="0" ecmeta_data_index="0" ecmeta_ssr_type="chart" transform-origin="400px 300px" class="zr1-cls-22 zr1-cls-23"></path>
<path d="M373.5 102A10 10 0 0 1 382.6 90.7A210 210 0 0 1 384.5 90.6A10 10 0 0 1 395.2 100.3L397 173.3A6.9 6.9 0 0 1 383.2 174.4Z" fill="#C2C3F0" stroke="#fff" stroke-width="2" stroke-linejoin="round" ecmeta_series_index="0" ecmeta_data_index="1" ecmeta_ssr_type="chart" transform-origin="400px 300px" class="zr1-cls-24 zr1-cls-25"></path>
<path d="M395 92.4A2.3 2.3 0 1 1 399.7 92.4L399.8 178.6A1.4 1.4 0 0 1 397.1 178.7Z" fill="#E3A6BE" stroke="#fff" stroke-width="2" stroke-linejoin="round" ecmeta_series_index="0" ecmeta_data_index="2" ecmeta_ssr_type="chart" transform-origin="400px 300px" class="zr1-cls-26 zr1-cls-27"></path>
<path d="M399.7 90.1A0.1 0.1 0 1 1 400 90.1L400 179.9A0.1 0.1 0 0 1 399.8 179.9Z" fill="#BDE1ED" stroke="#fff" stroke-width="2" stroke-linejoin="round" ecmeta_series_index="0" ecmeta_data_index="3" ecmeta_ssr_type="chart" transform-origin="400px 300px" class="zr1-cls-28 zr1-cls-29"></path>
<text dominant-baseline="central" text-anchor="start" style="font-size:12px;font-family:Manrope;" xml:space="preserve" transform="translate(434.9728 524.5013)" fill="#333" stroke="rgb(255,255,255)" stroke-width="2" paint-order="stroke" stroke-miterlimit="2">Coding: 97.89%</text>
<text dominant-baseline="central" text-anchor="end" style="font-size:12px;font-family:Manrope;" xml:space="preserve" transform="translate(362.3485 75.6935)" fill="#333" stroke="rgb(255,255,255)" stroke-width="2" paint-order="stroke" stroke-miterlimit="2">Debugging: 1.74%</text>
<style ><![CDATA[
.zr1-cls-21:hover {
cursor:pointer;
}
.zr1-cls-22 {
animation:zr1-ani-0 1s cubic-bezier(0.65,0,0.35,1) both;
}
.zr1-cls-23:hover {
cursor:pointer;
fill:rgba(227,196,255,1);
}
.zr1-cls-24 {
animation:zr1-ani-1 1s cubic-bezier(0.65,0,0.35,1) both;
}
.zr1-cls-25:hover {
cursor:pointer;
fill:rgba(213,214,255,1);
}
.zr1-cls-26 {
animation:zr1-ani-2 1s cubic-bezier(0.65,0,0.35,1) both;
}
.zr1-cls-27:hover {
cursor:pointer;
fill:rgba(249,182,209,1);
}
.zr1-cls-28 {
animation:zr1-ani-3 1s cubic-bezier(0.65,0,0.35,1) both;
}
.zr1-cls-29:hover {
cursor:pointer;
fill:rgba(207,247,255,1);
}
@keyframes zr1-ani-0 {
0% {
transform:scale(0,0);
}
100% {

}
}
@keyframes zr1-ani-1 {
0% {
transform:scale(0,0);
}
100% {

}
}
@keyframes zr1-ani-2 {
0% {
transform:scale(0,0);
}
100% {

}
}
@keyframes zr1-ani-3 {
0% {
transform:scale(0,0);
}
100% {

}
}
]]>

</style>
</svg>