<svg width="800" height="600" xmlns="http://www.w3.org/2000/svg" xmlns:xlink="http://www.w3.org/1999/xlink" version="1.1" baseProfile="full" viewBox="0 0 800 600">
<rect width="800" height="600" x="0" y="0" fill="none"></rect>
<polyline points="534.2 138.4 543.8 126.9 558.8 126.9" fill="transparent" stroke="#CFB3E8" class="zr1-cls-22"></polyline>
<polyline points="607.4 332.8 622.2 335.2 637.2 335.2" fill="transparent" stroke="#C2C3F0" class="zr1-cls-22"></polyline>
<polyline points="540.3 456.2 550.4 467.4 565.4 467.4" fill="transparent" stroke="#E3A6BE" class="zr1-cls-22"></polyline>
<polyline points="414.5 509.5 415.5 524.5 430.5 524.5" fill="transparent" stroke="#BDE1ED" class="zr1-cls-22"></polyline>
<polyline points="288.3 477.8 280.3 490.5 265.3 490.5" fill="transparent" stroke="#BBEBB2" class="zr1-cls-22"></polyline>
<polyline points="209.8 389 196.2 395.3 181.2 395.3" fill="transparent" stroke="#FCF4D3" class="zr1-cls-22"></polyline>
<polyline points="190.4 286.6 175.5 285.7 160.5 285.7" fill="transparent" stroke="#F2D2BA" class="zr1-cls-22"></polyline>
<polyline points="218.6 194.2 205.7 186.6 190.7 186.6" fill="transparent" stroke="#F4D4A7" class="zr1-cls-22"></polyline>
<polyline points="279.7 127.9 271.1 115.6 256.1 115.6" fill="transparent" stroke="#EBC5C5" class="zr1-cls-22"></polyline>
<polyline points="357.8 94.3 354.8 79.6 339.8 79.6" fill="transparent" stroke="#D3D3D3" class="zr1-cls-22"></polyline>
<path d="M400 100.3A10 10 0 0 1 410.5 90.3A210 210 0 0 1 604.2 251.2A10 10 0 0 1 596.4 263.3L527.4 276.2A10 10 0 0 1 515.9 269A120 120 0 0 0 409.2 180.4A10 10 0 0 1 400 170.4Z" fill="#CFB3E8" stroke="#fff" stroke-width="2" stroke-linejoin="round" ecmeta_series_index="0" ecmeta_data_index="0" ecmeta_ssr_type="chart" transform-origin="400px 300px" class="zr1-cls-23 zr1-cls-24"></path>
<path d="M596.4 263.3A10 10 0 0 1 608.1 271.8A210 210 0 0 1 589.2 391.1A10 10 0 0 1 575.4 395.5L513.8 362A10 10 0 0 1 509.5 349.1A120 120 0 0 0 519.3 287.1A10 10 0 0 1 527.4 276.2Z" fill="#C2C3F0" stroke="#fff" stroke-width="2" stroke-linejoin="round" ecmeta_series_index="0" ecmeta_data_index="1" ecmeta_ssr_type="chart" transform-origin="400px 300px" class="zr1-cls-25 zr1-cls-26"></path>
<path d="M575.4 395.5A10 10 0 0 1 579.2 409.5A210 210 0 0 1 489.7 489.9A10 10 0 0 1 476.2 484.6L449.5 419.8A10 10 0 0 1 454.2 407.1A120 120 0 0 0 500.7 365.3A10 10 0 0 1 513.8 362Z" fill="#E3A6BE" stroke="#fff" stroke-width="2" stroke-linejoin="round" ecmeta_series_index="0" ecmeta_data_index="2" ecmeta_ssr_type="chart" transform-origin="400px 300px" class="zr1-cls-27 zr1-cls-28"></path>
<path d="M476.2 484.6A10 10 0 0 1 470.3 497.9A210 210 0 0 1 357.6 505.7A10 10 0 0 1 349.9 493.4L367.5 425.5A10 10 0 0 1 378.9 418.1A120 120 0 0 0 437.1 414.1A10 10 0 0 1 449.5 419.8Z" fill="#BDE1ED" stroke="#fff" stroke-width="2" stroke-linejoin="round" ecmeta_series_index="0" ecmeta_data_index="3" ecmeta_ssr_type="chart" transform-origin="400px 300px" class="zr1-cls-29 zr1-cls-30"></path>
<path d="M349.9 493.4A10 10 0 0 1 337.3 500.4A210 210 0 0 1 246.6 443.5A10 10 0 0 1 247.5 429L301 383.7A10 10 0 0 1 314.6 384.3A120 120 0 0 0 361.1 413.5A10 10 0 0 1 367.5 425.5Z" fill="#BBEBB2" stroke="#fff" stroke-width="2" stroke-linejoin="round" ecmeta_series_index="0" ecmeta_data_index="4" ecmeta_ssr_type="chart" transform-origin="400px 300px" class="zr1-cls-31 zr1-cls-32"></path>
<path d="M247.5 429A10 10 0 0 1 233.1 427.4A210 210 0 0 1 195.2 346.4A10 10 0 0 1 203.2 334.4L272.3 322.3A10 10 0 0 1 283.7 329.7A120 120 0 0 0 302.7 370.2A10 10 0 0 1 301 383.7Z" fill="#FCF4D3" stroke="#fff" stroke-width="2" stroke-linejoin="round" ecmeta_series_index="0" ecmeta_data_index="5" ecmeta_ssr_type="chart" transform-origin="400px 300px" class="zr1-cls-33 zr1-cls-34"></path>
<path d="M203.2 334.4A10 10 0 0 1 191.6 325.8A210 210 0 0 1 196.6 247.9A10 10 0 0 1 209.2 240.9L276.2 261.6A10 10 0 0 1 283 273.4A120 120 0 0 0 280.6 311.5A10 10 0 0 1 272.3 322.3Z" fill="#F2D2BA" stroke="#fff" stroke-width="2" stroke-linejoin="round" ecmeta_series_index="0" ecmeta_data_index="6" ecmeta_ssr_type="chart" transform-origin="400px 300px" class="zr1-cls-35 zr1-cls-36"></path>
<path d="M209.2 240.9A10 10 0 0 1 202.8 227.9A210 210 0 0 1 240.1 163.8A10 10 0 0 1 254.6 163L305.7 211.1A10 10 0 0 1 306.6 224.7A120 120 0 0 0 288.5 255.8A10 10 0 0 1 276.2 261.6Z" fill="#F4D4A7" stroke="#fff" stroke-width="2" stroke-linejoin="round" ecmeta_series_index="0" ecmeta_data_index="7" ecmeta_ssr_type="chart" transform-origin="400px 300px" class="zr1-cls-37 zr1-cls-38"></path>
<path d="M254.6 163A10 10 0 0 1 254.5 148.5A210 210 0 0 1 307.8 111.3A10 10 0 0 1 321.4 116.4L349 180.8A10 10 0 0 1 344.4 193.6A120 120 0 0 0 319.2 211.2A10 10 0 0 1 305.7 211.1Z" fill="#EBC5C5" stroke="#fff" stroke-width="2" stroke-linejoin="round" ecmeta_series_index="0" ecmeta_data_index="8" ecmeta_ssr_type="chart" transform-origin="400px 300px" class="zr1-cls-39 zr1-cls-40"></path>
<path d="M321.4 116.4A10 10 0 0 1 327.1 103.1A210 210 0 0 1 389.5 90.3A10 10 0 0 1 400 100.3L400 170.4A10 10 0 0 1 390.8 180.4A120 120 0 0 0 361.4 186.4A10 10 0 0 1 349 180.8Z" fill="#D3D3D3" stroke="#fff" stroke-width="2" stroke-linejoin="round" ecmeta_series_index="0" ecmeta_data_index="9" ecmeta_ssr_type="chart" transform-origin="400px 300px" class="zr1-cls-41 zr1-cls-42"></path>
<text dominant-baseline="central" text-anchor="start" style="font-size:12px;font-family:Manrope;" xml:space="preserve" transform="translate(563.7515 126.909)" fill="#333" stroke="rgb(255,255,255)" stroke-width="2" paint-order="stroke" stroke-miterlimit="2">Tallileo: 11.24%</text>
<text dominant-baseline="central" text-anchor="start" style="font-size:12px;font-family:Manrope;" xml:space="preserve" transform="translate(642.2353 335.1635)" fill="#333" stroke="rgb(255,255,255)" stroke-width="2" paint-order="stroke" stroke-miterlimit="2">aayushgoyal.in: 5.54%</text>
<text dominant-baseline="central" text-anchor="start" style="font-size:12px;font-family:Manrope;" xml:space="preserve" transform="translate(570.3653 467.3777)" fill="#333" stroke="rgb(255,255,255)" stroke-width="2" paint-order="stroke" stroke-miterlimit="2">MoneyTally: 5.52%</text>
<text dominant-baseline="central" text-anchor="start" style="font-size:12px;font-family:Manrope;" xml:space="preserve" transform="translate(435.526 524.4637)" fill="#333" stroke="rgb(255,255,255)" stroke-width="2" paint-order="stroke" stroke-miterlimit="2">chat-frontend-v2: 5.23%</text>
<text dominant-baseline="central" text-anchor="end" style="font-size:12px;font-family:Manrope;" xml:space="preserve" transform="translate(260.2718 490.4998)" fill="#333" stroke="rgb(255,255,255)" stroke-width="2" paint-order="stroke" stroke-miterlimit="2">tallileo-android: 4.99%</text>
<text dominant-baseline="central" text-anchor="end" style="font-size:12px;font-family:Manrope;" xml:space="preserve" transform="translate(176.19 395.3231)" fill="#333" stroke="rgb(255,255,255)" stroke-width="2" paint-order="stroke" stroke-miterlimit="2">tallileo.com: 4.29%</text>
<text dominant-baseline="central" text-anchor="end" style="font-size:12px;font-family:Manrope;" xml:space="preserve" transform="translate(155.458 285.6506)" fill="#333" stroke="rgb(255,255,255)" stroke-width="2" paint-order="stroke" stroke-miterlimit="2">BillTea-Web: 3.84%</text>
<text dominant-baseline="central" text-anchor="end" style="font-size:12px;font-family:Manrope;" xml:space="preserve" transform="translate(185.655 186.6201)" fill="#333" stroke="rgb(255,255,255)" stroke-width="2" paint-order="stroke" stroke-miterlimit="2">compute-frontend: 3.69%</text>
<text dominant-baseline="central" text-anchor="end" style="font-size:12px;font-family:Manrope;" xml:space="preserve" transform="translate(251.1379 115.5561)" fill="#333" stroke="rgb(255,255,255)" stroke-width="2" paint-order="stroke" stroke-miterlimit="2">arena: 3.33%</text>
<text dominant-baseline="central" text-anchor="end" style="font-size:12px;font-family:Manrope;" xml:space="preserve" transform="translate(334.8043 79.586)" fill="#333" stroke="rgb(255,255,255)" stroke-width="2" paint-order="stroke" stroke-miterlimit="2">app.tallileo.com: 3.28%</text>
<style ><![CDATA[
.zr1-cls-22:hover {
cursor:pointer;
}
.zr1-cls-23 {
animation:zr1-ani-0 1s cubic-bezier(0.65,0,0.35,1) both;
}
.zr1-cls-24:hover {
cursor:pointer;
fill:rgba(227,196,255,1);
}
.zr1-cls-25 {
animation:zr1-ani-1 1s cubic-bezier(0.65,0,0.35,1) both;
}
.zr1-cls-26:hover {
cursor:pointer;
fill:rgba(213,214,255,1);
}
.zr1-cls-27 {
animation:zr1-ani-2 1s cubic-bezier(0.65,0,0.35,1) both;
}
.zr1-cls-28:hover {
cursor:pointer;
fill:rgba(249,182,209,1);
}
.zr1-cls-29 {
animation:zr1-ani-3 1s cubic-bezier(0.65,0,0.35,1) both;
}
.zr1-cls-30:hover {
cursor:pointer;
fill:rgba(207,247,255,1);
}
.zr1-cls-31 {
animation:zr1-ani-4 1s cubic-bezier(0.65,0,0.35,1) both;
}
.zr1-cls-32:hover {
cursor:pointer;
fill:rgba(205,255,195,1);
}
.zr1-cls-33 {
animation:zr1-ani-5 1s cubic-bezier(0.65,0,0.35,1) both;
}
.zr1-cls-34:hover {
cursor:pointer;
fill:rgba(255,255,232,1);
}
.zr1-cls-35 {
animation:zr1-ani-6 1s cubic-bezier(0.65,0,0.35,1) both;
}
.zr1-cls-36:hover {
cursor:pointer;
fill:rgba(255,231,204,1);
}
.zr1-cls-37 {
animation:zr1-ani-7 1s cubic-bezier(0.65,0,0.35,1) both;
}
.zr1-cls-38:hover {
cursor:pointer;
fill:rgba(255,233,183,1);
}
.zr1-cls-39 {
animation:zr1-ani-8 1s cubic-bezier(0.65,0,0.35,1) both;
}
.zr1-cls-40:hover {
cursor:pointer;
fill:rgba(255,216,216,1);
}
.zr1-cls-41 {
animation:zr1-ani-9 1s cubic-bezier(0.65,0,0.35,1) both;
}
.zr1-cls-42:hover {
cursor:pointer;
fill:rgba(232,232,232,1);
}
@keyframes zr1-ani-0 {
0% {
transform:scale(0,0);
}
100% {

}
}
@keyframes zr1-ani-1 {
0% {
transform:scale(0,0);
}
100% {

}
}
@keyframes zr1-ani-2 {
0% {
transform:scale(0,0);
}
100% {

}
}
@keyframes zr1-ani-3 {
0% {
transform:scale(0,0);
}
100% {

}
}
@keyframes zr1-ani-4 {
0% {
transform:scale(0,0);
}
100% {

}
}
@keyframes zr1-ani-5 {
0% {
transform:scale(0,0);
}
100% {

}
}
@keyframes zr1-ani-6 {
0% {
transform:scale(0,0);
}
100% {

}
}
@keyframes zr1-ani-7 {
0% {
transform:scale(0,0);
}
100% {

}
}
@keyframes zr1-ani-8 {
0% {
transform:scale(0,0);
}
100% {

}
}
@keyframes zr1-ani-9 {
0% {
transform:scale(0,0);
}
100% {

}
}
]]>

</style>
</svg>