<svg width="800" height="600" xmlns="http://www.w3.org/2000/svg" xmlns:xlink="http://www.w3.org/1999/xlink" version="1.1" baseProfile="full" viewBox="0 0 800 600">
<rect width="800" height="600" x="0" y="0" fill="none"></rect>
<polyline points="532.4 137 541.9 125.3 556.9 125.3" fill="transparent" stroke="#CFB3E8" class="zr1-cls-22"></polyline>
<polyline points="608.2 327.2 623.1 329.2 638.1 329.2" fill="transparent" stroke="#C2C3F0" class="zr1-cls-22"></polyline>
<polyline points="546.1 450.9 556.5 461.7 571.5 461.7" fill="transparent" stroke="#E3A6BE" class="zr1-cls-22"></polyline>
<polyline points="424.4 508.6 426.1 523.5 441.1 523.5" fill="transparent" stroke="#BDE1ED" class="zr1-cls-22"></polyline>
<polyline points="298.5 483.8 291.3 497 276.3 497" fill="transparent" stroke="#BBEBB2" class="zr1-cls-22"></polyline>
<polyline points="214.8 399 201.6 406.1 186.6 406.1" fill="transparent" stroke="#FCF4D3" class="zr1-cls-22"></polyline>
<polyline points="190.2 291.3 175.2 290.6 160.2 290.6" fill="transparent" stroke="#F2D2BA" class="zr1-cls-22"></polyline>
<polyline points="219.3 192.9 206.4 185.3 191.4 185.3" fill="transparent" stroke="#F4D4A7" class="zr1-cls-22"></polyline>
<polyline points="281.3 126.8 272.8 114.4 257.8 114.4" fill="transparent" stroke="#EBC5C5" class="zr1-cls-22"></polyline>
<polyline points="358.4 94.2 355.5 79.4 340.5 79.4" fill="transparent" stroke="#D3D3D3" class="zr1-cls-22"></polyline>
<path d="M400 100.3A10 10 0 0 1 410.5 90.3A210 210 0 0 1 603.1 246.7A10 10 0 0 1 595.5 259L526.9 273.4A10 10 0 0 1 515.2 266.4A120 120 0 0 0 409.2 180.4A10 10 0 0 1 400 170.4Z" fill="#CFB3E8" stroke="#fff" stroke-width="2" stroke-linejoin="round" ecmeta_series_index="0" ecmeta_data_index="0" ecmeta_ssr_type="chart" transform-origin="400px 300px" class="zr1-cls-23 zr1-cls-24"></path>
<path d="M595.5 259A10 10 0 0 1 607.4 267.3A210 210 0 0 1 592.1 384.9A10 10 0 0 1 578.4 389.8L515.8 358.3A10 10 0 0 1 511 345.6A120 120 0 0 0 519 284.5A10 10 0 0 1 526.9 273.4Z" fill="#C2C3F0" stroke="#fff" stroke-width="2" stroke-linejoin="round" ecmeta_series_index="0" ecmeta_data_index="1" ecmeta_ssr_type="chart" transform-origin="400px 300px" class="zr1-cls-25 zr1-cls-26"></path>
<path d="M578.4 389.8A10 10 0 0 1 582.6 403.7A210 210 0 0 1 497.7 485.9A10 10 0 0 1 484 481.2L454.5 417.6A10 10 0 0 1 458.7 404.7A120 120 0 0 0 502.7 362A10 10 0 0 1 515.8 358.3Z" fill="#E3A6BE" stroke="#fff" stroke-width="2" stroke-linejoin="round" ecmeta_series_index="0" ecmeta_data_index="2" ecmeta_ssr_type="chart" transform-origin="400px 300px" class="zr1-cls-27 zr1-cls-28"></path>
<path d="M484 481.2A10 10 0 0 1 478.7 494.7A210 210 0 0 1 368.4 507.6A10 10 0 0 1 360.1 495.7L374.1 427A10 10 0 0 1 385.2 419.1A120 120 0 0 0 441.9 412.4A10 10 0 0 1 454.5 417.6Z" fill="#BDE1ED" stroke="#fff" stroke-width="2" stroke-linejoin="round" ecmeta_series_index="0" ecmeta_data_index="3" ecmeta_ssr_type="chart" transform-origin="400px 300px" class="zr1-cls-29 zr1-cls-30"></path>
<path d="M360.1 495.7A10 10 0 0 1 347.8 503.4A210 210 0 0 1 255.7 452.5A10 10 0 0 1 255.6 438L306.3 389.6A10 10 0 0 1 319.9 389.4A120 120 0 0 0 367.1 415.4A10 10 0 0 1 374.1 427Z" fill="#BBEBB2" stroke="#fff" stroke-width="2" stroke-linejoin="round" ecmeta_series_index="0" ecmeta_data_index="4" ecmeta_ssr_type="chart" transform-origin="400px 300px" class="zr1-cls-31 zr1-cls-32"></path>
<path d="M255.6 438A10 10 0 0 1 241.2 437.4A210 210 0 0 1 197.5 355.8A10 10 0 0 1 205 343.4L273.5 328.1A10 10 0 0 1 285.2 335A120 120 0 0 0 307.1 376A10 10 0 0 1 306.3 389.6Z" fill="#FCF4D3" stroke="#fff" stroke-width="2" stroke-linejoin="round" ecmeta_series_index="0" ecmeta_data_index="5" ecmeta_ssr_type="chart" transform-origin="400px 300px" class="zr1-cls-33 zr1-cls-34"></path>
<path d="M205 343.4A10 10 0 0 1 193 335.3A210 210 0 0 1 196.6 247.6A10 10 0 0 1 209.3 240.6L276.3 261.4A10 10 0 0 1 283 273.2A120 120 0 0 0 281.2 317A10 10 0 0 1 273.5 328.1Z" fill="#F2D2BA" stroke="#fff" stroke-width="2" stroke-linejoin="round" ecmeta_series_index="0" ecmeta_data_index="6" ecmeta_ssr_type="chart" transform-origin="400px 300px" class="zr1-cls-35 zr1-cls-36"></path>
<path d="M209.3 240.6A10 10 0 0 1 202.9 227.6A210 210 0 0 1 241.8 161.9A10 10 0 0 1 256.3 161.2L306.8 210A10 10 0 0 1 307.5 223.5A120 120 0 0 0 288.5 255.6A10 10 0 0 1 276.3 261.4Z" fill="#F4D4A7" stroke="#fff" stroke-width="2" stroke-linejoin="round" ecmeta_series_index="0" ecmeta_data_index="7" ecmeta_ssr_type="chart" transform-origin="400px 300px" class="zr1-cls-37 zr1-cls-38"></path>
<path d="M256.3 161.2A10 10 0 0 1 256.4 146.8A210 210 0 0 1 309 110.8A10 10 0 0 1 322.5 115.9L349.7 180.5A10 10 0 0 1 345.1 193.3A120 120 0 0 0 320.3 210.2A10 10 0 0 1 306.8 210Z" fill="#EBC5C5" stroke="#fff" stroke-width="2" stroke-linejoin="round" ecmeta_series_index="0" ecmeta_data_index="8" ecmeta_ssr_type="chart" transform-origin="400px 300px" class="zr1-cls-39 zr1-cls-40"></path>
<path d="M322.5 115.9A10 10 0 0 1 328.3 102.6A210 210 0 0 1 389.5 90.3A10 10 0 0 1 400 100.3L400 170.4A10 10 0 0 1 390.8 180.4A120 120 0 0 0 362.1 186.1A10 10 0 0 1 349.7 180.5Z" fill="#D3D3D3" stroke="#fff" stroke-width="2" stroke-linejoin="round" ecmeta_series_index="0" ecmeta_data_index="9" ecmeta_ssr_type="chart" transform-origin="400px 300px" class="zr1-cls-41 zr1-cls-42"></path>
<text dominant-baseline="central" text-anchor="start" style="font-size:12px;font-family:Manrope;" xml:space="preserve" transform="translate(561.8506 125.3477)" fill="#333" stroke="rgb(255,255,255)" stroke-width="2" paint-order="stroke" stroke-miterlimit="2">Tallileo: 11.13%</text>
<text dominant-baseline="central" text-anchor="start" style="font-size:12px;font-family:Manrope;" xml:space="preserve" transform="translate(643.1035 329.1519)" fill="#333" stroke="rgb(255,255,255)" stroke-width="2" paint-order="stroke" stroke-miterlimit="2">aayushgoyal.in: 5.49%</text>
<text dominant-baseline="central" text-anchor="start" style="font-size:12px;font-family:Manrope;" xml:space="preserve" transform="translate(576.4942 461.6619)" fill="#333" stroke="rgb(255,255,255)" stroke-width="2" paint-order="stroke" stroke-miterlimit="2">MoneyTally: 5.47%</text>
<text dominant-baseline="central" text-anchor="start" style="font-size:12px;font-family:Manrope;" xml:space="preserve" transform="translate(446.1412 523.4763)" fill="#333" stroke="rgb(255,255,255)" stroke-width="2" paint-order="stroke" stroke-miterlimit="2">chat-frontend-v2: 5.18%</text>
<text dominant-baseline="central" text-anchor="end" style="font-size:12px;font-family:Manrope;" xml:space="preserve" transform="translate(271.2624 496.98)" fill="#333" stroke="rgb(255,255,255)" stroke-width="2" paint-order="stroke" stroke-miterlimit="2">tallileo-android: 4.95%</text>
<text dominant-baseline="central" text-anchor="end" style="font-size:12px;font-family:Manrope;" xml:space="preserve" transform="translate(181.5718 406.0719)" fill="#333" stroke="rgb(255,255,255)" stroke-width="2" paint-order="stroke" stroke-miterlimit="2">compute-frontend: 4.44%</text>
<text dominant-baseline="central" text-anchor="end" style="font-size:12px;font-family:Manrope;" xml:space="preserve" transform="translate(155.1954 290.6257)" fill="#333" stroke="rgb(255,255,255)" stroke-width="2" paint-order="stroke" stroke-miterlimit="2">tallileo.com: 4.25%</text>
<text dominant-baseline="central" text-anchor="end" style="font-size:12px;font-family:Manrope;" xml:space="preserve" transform="translate(186.444 185.2782)" fill="#333" stroke="rgb(255,255,255)" stroke-width="2" paint-order="stroke" stroke-miterlimit="2">BillTea-Web: 3.8%</text>
<text dominant-baseline="central" text-anchor="end" style="font-size:12px;font-family:Manrope;" xml:space="preserve" transform="translate(252.841 114.3779)" fill="#333" stroke="rgb(255,255,255)" stroke-width="2" paint-order="stroke" stroke-miterlimit="2">arena: 3.3%</text>
<text dominant-baseline="central" text-anchor="end" style="font-size:12px;font-family:Manrope;" xml:space="preserve" transform="translate(335.4793 79.4486)" fill="#333" stroke="rgb(255,255,255)" stroke-width="2" paint-order="stroke" stroke-miterlimit="2">app.tallileo.com: 3.25%</text>
<style ><![CDATA[
.zr1-cls-22:hover {
cursor:pointer;
}
.zr1-cls-23 {
animation:zr1-ani-0 1s cubic-bezier(0.65,0,0.35,1) both;
}
.zr1-cls-24:hover {
cursor:pointer;
fill:rgba(227,196,255,1);
}
.zr1-cls-25 {
animation:zr1-ani-1 1s cubic-bezier(0.65,0,0.35,1) both;
}
.zr1-cls-26:hover {
cursor:pointer;
fill:rgba(213,214,255,1);
}
.zr1-cls-27 {
animation:zr1-ani-2 1s cubic-bezier(0.65,0,0.35,1) both;
}
.zr1-cls-28:hover {
cursor:pointer;
fill:rgba(249,182,209,1);
}
.zr1-cls-29 {
animation:zr1-ani-3 1s cubic-bezier(0.65,0,0.35,1) both;
}
.zr1-cls-30:hover {
cursor:pointer;
fill:rgba(207,247,255,1);
}
.zr1-cls-31 {
animation:zr1-ani-4 1s cubic-bezier(0.65,0,0.35,1) both;
}
.zr1-cls-32:hover {
cursor:pointer;
fill:rgba(205,255,195,1);
}
.zr1-cls-33 {
animation:zr1-ani-5 1s cubic-bezier(0.65,0,0.35,1) both;
}
.zr1-cls-34:hover {
cursor:pointer;
fill:rgba(255,255,232,1);
}
.zr1-cls-35 {
animation:zr1-ani-6 1s cubic-bezier(0.65,0,0.35,1) both;
}
.zr1-cls-36:hover {
cursor:pointer;
fill:rgba(255,231,204,1);
}
.zr1-cls-37 {
animation:zr1-ani-7 1s cubic-bezier(0.65,0,0.35,1) both;
}
.zr1-cls-38:hover {
cursor:pointer;
fill:rgba(255,233,183,1);
}
.zr1-cls-39 {
animation:zr1-ani-8 1s cubic-bezier(0.65,0,0.35,1) both;
}
.zr1-cls-40:hover {
cursor:pointer;
fill:rgba(255,216,216,1);
}
.zr1-cls-41 {
animation:zr1-ani-9 1s cubic-bezier(0.65,0,0.35,1) both;
}
.zr1-cls-42:hover {
cursor:pointer;
fill:rgba(232,232,232,1);
}
@keyframes zr1-ani-0 {
0% {
transform:scale(0,0);
}
100% {

}
}
@keyframes zr1-ani-1 {
0% {
transform:scale(0,0);
}
100% {

}
}
@keyframes zr1-ani-2 {
0% {
transform:scale(0,0);
}
100% {

}
}
@keyframes zr1-ani-3 {
0% {
transform:scale(0,0);
}
100% {

}
}
@keyframes zr1-ani-4 {
0% {
transform:scale(0,0);
}
100% {

}
}
@keyframes zr1-ani-5 {
0% {
transform:scale(0,0);
}
100% {

}
}
@keyframes zr1-ani-6 {
0% {
transform:scale(0,0);
}
100% {

}
}
@keyframes zr1-ani-7 {
0% {
transform:scale(0,0);
}
100% {

}
}
@keyframes zr1-ani-8 {
0% {
transform:scale(0,0);
}
100% {

}
}
@keyframes zr1-ani-9 {
0% {
transform:scale(0,0);
}
100% {

}
}
]]>

</style>
</svg>