<svg width="800" height="600" xmlns="http://www.w3.org/2000/svg" xmlns:xlink="http://www.w3.org/1999/xlink" version="1.1" baseProfile="full" viewBox="0 0 800 600">
<rect width="800" height="600" x="0" y="0" fill="none"></rect>
<polyline points="535.3 139.4 544.9 127.9 559.9 127.9" fill="transparent" stroke="#CFB3E8" class="zr1-cls-22"></polyline>
<polyline points="606.8 336.4 621.6 339 636.6 339" fill="transparent" stroke="#C2C3F0" class="zr1-cls-22"></polyline>
<polyline points="536.5 459.6 546.2 471 561.2 471" fill="transparent" stroke="#E3A6BE" class="zr1-cls-22"></polyline>
<polyline points="407.8 509.9 408.4 524.8 423.4 524.8" fill="transparent" stroke="#BDE1ED" class="zr1-cls-22"></polyline>
<polyline points="281.5 473.4 273.1 485.8 258.1 485.8" fill="transparent" stroke="#BBEBB2" class="zr1-cls-22"></polyline>
<polyline points="206.1 380.6 192.2 386.3 177.2 386.3" fill="transparent" stroke="#FCF4D3" class="zr1-cls-22"></polyline>
<polyline points="191.3 276.5 176.4 274.8 161.4 274.8" fill="transparent" stroke="#F2D2BA" class="zr1-cls-22"></polyline>
<polyline points="222 188.6 209.3 180.7 194.3 180.7" fill="transparent" stroke="#F4D4A7" class="zr1-cls-22"></polyline>
<polyline points="281.2 126.8 272.8 114.4 257.8 114.4" fill="transparent" stroke="#EBC5C5" class="zr1-cls-22"></polyline>
<polyline points="358.4 94.2 355.5 79.4 340.5 79.4" fill="transparent" stroke="#D3D3D3" class="zr1-cls-22"></polyline>
<path d="M400 100.3A10 10 0 0 1 410.5 90.3A210 210 0 0 1 604.9 253.9A10 10 0 0 1 596.8 266L527.7 277.9A10 10 0 0 1 516.3 270.5A120 120 0 0 0 409.2 180.4A10 10 0 0 1 400 170.4Z" fill="#CFB3E8" stroke="#fff" stroke-width="2" stroke-linejoin="round" ecmeta_series_index="0" ecmeta_data_index="0" ecmeta_ssr_type="chart" transform-origin="400px 300px" class="zr1-cls-23 zr1-cls-24"></path>
<path d="M596.8 266A10 10 0 0 1 608.5 274.6A210 210 0 0 1 587.3 395A10 10 0 0 1 573.4 399.1L512.5 364.3A10 10 0 0 1 508.5 351.4A120 120 0 0 0 519.5 288.7A10 10 0 0 1 527.7 277.9Z" fill="#C2C3F0" stroke="#fff" stroke-width="2" stroke-linejoin="round" ecmeta_series_index="0" ecmeta_data_index="1" ecmeta_ssr_type="chart" transform-origin="400px 300px" class="zr1-cls-25 zr1-cls-26"></path>
<path d="M573.4 399.1A10 10 0 0 1 576.9 413.2A210 210 0 0 1 484.4 492.3A10 10 0 0 1 471 486.7L446.1 421.2A10 10 0 0 1 451.2 408.6A120 120 0 0 0 499.3 367.4A10 10 0 0 1 512.5 364.3Z" fill="#E3A6BE" stroke="#fff" stroke-width="2" stroke-linejoin="round" ecmeta_series_index="0" ecmeta_data_index="2" ecmeta_ssr_type="chart" transform-origin="400px 300px" class="zr1-cls-27 zr1-cls-28"></path>
<path d="M471 486.7A10 10 0 0 1 464.7 499.8A210 210 0 0 1 350.4 504.1A10 10 0 0 1 343.2 491.5L363.1 424.3A10 10 0 0 1 374.8 417.3A120 120 0 0 0 433.9 415.1A10 10 0 0 1 446.1 421.2Z" fill="#BDE1ED" stroke="#fff" stroke-width="2" stroke-linejoin="round" ecmeta_series_index="0" ecmeta_data_index="3" ecmeta_ssr_type="chart" transform-origin="400px 300px" class="zr1-cls-29 zr1-cls-30"></path>
<path d="M343.2 491.5A10 10 0 0 1 330.2 498.1A210 210 0 0 1 240.8 437A10 10 0 0 1 242.3 422.6L297.7 379.5A10 10 0 0 1 311.2 380.7A120 120 0 0 0 357.1 412.1A10 10 0 0 1 363.1 424.3Z" fill="#BBEBB2" stroke="#fff" stroke-width="2" stroke-linejoin="round" ecmeta_series_index="0" ecmeta_data_index="4" ecmeta_ssr_type="chart" transform-origin="400px 300px" class="zr1-cls-31 zr1-cls-32"></path>
<path d="M242.3 422.6A10 10 0 0 1 228 420.4A210 210 0 0 1 193.3 336.9A10 10 0 0 1 201.9 325.3L271.4 316.4A10 10 0 0 1 282.5 324.3A120 120 0 0 0 299.9 366.1A10 10 0 0 1 297.7 379.5Z" fill="#FCF4D3" stroke="#fff" stroke-width="2" stroke-linejoin="round" ecmeta_series_index="0" ecmeta_data_index="5" ecmeta_ssr_type="chart" transform-origin="400px 300px" class="zr1-cls-33 zr1-cls-34"></path>
<path d="M201.9 325.3A10 10 0 0 1 190.6 316.1A210 210 0 0 1 199.4 237.7A10 10 0 0 1 212.4 231.3L278.3 255.4A10 10 0 0 1 284.5 267.5A120 120 0 0 0 280.1 306A10 10 0 0 1 271.4 316.4Z" fill="#F2D2BA" stroke="#fff" stroke-width="2" stroke-linejoin="round" ecmeta_series_index="0" ecmeta_data_index="6" ecmeta_ssr_type="chart" transform-origin="400px 300px" class="zr1-cls-35 zr1-cls-36"></path>
<path d="M212.4 231.3A10 10 0 0 1 206.7 218A210 210 0 0 1 241.7 162A10 10 0 0 1 256.2 161.4L306.7 210.1A10 10 0 0 1 307.5 223.6A120 120 0 0 0 290.8 250.2A10 10 0 0 1 278.3 255.4Z" fill="#F4D4A7" stroke="#fff" stroke-width="2" stroke-linejoin="round" ecmeta_series_index="0" ecmeta_data_index="7" ecmeta_ssr_type="chart" transform-origin="400px 300px" class="zr1-cls-37 zr1-cls-38"></path>
<path d="M256.2 161.4A10 10 0 0 1 256.3 146.9A210 210 0 0 1 309 110.8A10 10 0 0 1 322.5 115.9L349.7 180.5A10 10 0 0 1 345.1 193.3A120 120 0 0 0 320.3 210.3A10 10 0 0 1 306.7 210.1Z" fill="#EBC5C5" stroke="#fff" stroke-width="2" stroke-linejoin="round" ecmeta_series_index="0" ecmeta_data_index="8" ecmeta_ssr_type="chart" transform-origin="400px 300px" class="zr1-cls-39 zr1-cls-40"></path>
<path d="M322.5 115.9A10 10 0 0 1 328.3 102.6A210 210 0 0 1 389.5 90.3A10 10 0 0 1 400 100.3L400 170.4A10 10 0 0 1 390.8 180.4A120 120 0 0 0 362.1 186.1A10 10 0 0 1 349.7 180.5Z" fill="#D3D3D3" stroke="#fff" stroke-width="2" stroke-linejoin="round" ecmeta_series_index="0" ecmeta_data_index="9" ecmeta_ssr_type="chart" transform-origin="400px 300px" class="zr1-cls-41 zr1-cls-42"></path>
<text dominant-baseline="central" text-anchor="start" style="font-size:12px;font-family:Manrope;" xml:space="preserve" transform="translate(564.9179 127.8843)" fill="#333" stroke="rgb(255,255,255)" stroke-width="2" paint-order="stroke" stroke-miterlimit="2">Tallileo: 11.98%</text>
<text dominant-baseline="central" text-anchor="start" style="font-size:12px;font-family:Manrope;" xml:space="preserve" transform="translate(641.5995 338.9702)" fill="#333" stroke="rgb(255,255,255)" stroke-width="2" paint-order="stroke" stroke-miterlimit="2">aayushgoyal.in: 5.91%</text>
<text dominant-baseline="central" text-anchor="start" style="font-size:12px;font-family:Manrope;" xml:space="preserve" transform="translate(566.2207 471.0102)" fill="#333" stroke="rgb(255,255,255)" stroke-width="2" paint-order="stroke" stroke-miterlimit="2">MoneyTally: 5.89%</text>
<text dominant-baseline="central" text-anchor="start" style="font-size:12px;font-family:Manrope;" xml:space="preserve" transform="translate(428.4099 524.8428)" fill="#333" stroke="rgb(255,255,255)" stroke-width="2" paint-order="stroke" stroke-miterlimit="2">chat-frontend-v2: 5.58%</text>
<text dominant-baseline="central" text-anchor="end" style="font-size:12px;font-family:Manrope;" xml:space="preserve" transform="translate(253.0772 485.7838)" fill="#333" stroke="rgb(255,255,255)" stroke-width="2" paint-order="stroke" stroke-miterlimit="2">tallileo-android: 5.32%</text>
<text dominant-baseline="central" text-anchor="end" style="font-size:12px;font-family:Manrope;" xml:space="preserve" transform="translate(172.2152 386.3162)" fill="#333" stroke="rgb(255,255,255)" stroke-width="2" paint-order="stroke" stroke-miterlimit="2">tallileo.com: 4.57%</text>
<text dominant-baseline="central" text-anchor="end" style="font-size:12px;font-family:Manrope;" xml:space="preserve" transform="translate(156.4137 274.8173)" fill="#333" stroke="rgb(255,255,255)" stroke-width="2" paint-order="stroke" stroke-miterlimit="2">BillTea-Web: 4.09%</text>
<text dominant-baseline="central" text-anchor="end" style="font-size:12px;font-family:Manrope;" xml:space="preserve" transform="translate(189.2527 180.6666)" fill="#333" stroke="rgb(255,255,255)" stroke-width="2" paint-order="stroke" stroke-miterlimit="2">arena: 3.56%</text>
<text dominant-baseline="central" text-anchor="end" style="font-size:12px;font-family:Manrope;" xml:space="preserve" transform="translate(252.7518 114.4389)" fill="#333" stroke="rgb(255,255,255)" stroke-width="2" paint-order="stroke" stroke-miterlimit="2">app.tallileo.com: 3.47%</text>
<text dominant-baseline="central" text-anchor="end" style="font-size:12px;font-family:Manrope;" xml:space="preserve" transform="translate(335.4764 79.4492)" fill="#333" stroke="rgb(255,255,255)" stroke-width="2" paint-order="stroke" stroke-miterlimit="2">Calculator: 3.41%</text>
<style ><![CDATA[
.zr1-cls-22:hover {
cursor:pointer;
}
.zr1-cls-23 {
animation:zr1-ani-0 1s cubic-bezier(0.65,0,0.35,1) both;
}
.zr1-cls-24:hover {
cursor:pointer;
fill:rgba(227,196,255,1);
}
.zr1-cls-25 {
animation:zr1-ani-1 1s cubic-bezier(0.65,0,0.35,1) both;
}
.zr1-cls-26:hover {
cursor:pointer;
fill:rgba(213,214,255,1);
}
.zr1-cls-27 {
animation:zr1-ani-2 1s cubic-bezier(0.65,0,0.35,1) both;
}
.zr1-cls-28:hover {
cursor:pointer;
fill:rgba(249,182,209,1);
}
.zr1-cls-29 {
animation:zr1-ani-3 1s cubic-bezier(0.65,0,0.35,1) both;
}
.zr1-cls-30:hover {
cursor:pointer;
fill:rgba(207,247,255,1);
}
.zr1-cls-31 {
animation:zr1-ani-4 1s cubic-bezier(0.65,0,0.35,1) both;
}
.zr1-cls-32:hover {
cursor:pointer;
fill:rgba(205,255,195,1);
}
.zr1-cls-33 {
animation:zr1-ani-5 1s cubic-bezier(0.65,0,0.35,1) both;
}
.zr1-cls-34:hover {
cursor:pointer;
fill:rgba(255,255,232,1);
}
.zr1-cls-35 {
animation:zr1-ani-6 1s cubic-bezier(0.65,0,0.35,1) both;
}
.zr1-cls-36:hover {
cursor:pointer;
fill:rgba(255,231,204,1);
}
.zr1-cls-37 {
animation:zr1-ani-7 1s cubic-bezier(0.65,0,0.35,1) both;
}
.zr1-cls-38:hover {
cursor:pointer;
fill:rgba(255,233,183,1);
}
.zr1-cls-39 {
animation:zr1-ani-8 1s cubic-bezier(0.65,0,0.35,1) both;
}
.zr1-cls-40:hover {
cursor:pointer;
fill:rgba(255,216,216,1);
}
.zr1-cls-41 {
animation:zr1-ani-9 1s cubic-bezier(0.65,0,0.35,1) both;
}
.zr1-cls-42:hover {
cursor:pointer;
fill:rgba(232,232,232,1);
}
@keyframes zr1-ani-0 {
0% {
transform:scale(0,0);
}
100% {

}
}
@keyframes zr1-ani-1 {
0% {
transform:scale(0,0);
}
100% {

}
}
@keyframes zr1-ani-2 {
0% {
transform:scale(0,0);
}
100% {

}
}
@keyframes zr1-ani-3 {
0% {
transform:scale(0,0);
}
100% {

}
}
@keyframes zr1-ani-4 {
0% {
transform:scale(0,0);
}
100% {

}
}
@keyframes zr1-ani-5 {
0% {
transform:scale(0,0);
}
100% {

}
}
@keyframes zr1-ani-6 {
0% {
transform:scale(0,0);
}
100% {

}
}
@keyframes zr1-ani-7 {
0% {
transform:scale(0,0);
}
100% {

}
}
@keyframes zr1-ani-8 {
0% {
transform:scale(0,0);
}
100% {

}
}
@keyframes zr1-ani-9 {
0% {
transform:scale(0,0);
}
100% {

}
}
]]>

</style>
</svg>