<svg width="800" height="600" xmlns="http://www.w3.org/2000/svg" xmlns:xlink="http://www.w3.org/1999/xlink" version="1.1" baseProfile="full" viewBox="0 0 800 600">
<rect width="800" height="600" x="0" y="0" fill="none"></rect>
<polyline points="536.4 140.3 546.1 128.9 561.1 128.9" fill="transparent" stroke="#CFB3E8" class="zr1-cls-22"></polyline>
<polyline points="606.2 339.8 620.9 342.7 635.9 342.7" fill="transparent" stroke="#C2C3F0" class="zr1-cls-22"></polyline>
<polyline points="532.8 462.7 542.3 474.3 557.3 474.3" fill="transparent" stroke="#E3A6BE" class="zr1-cls-22"></polyline>
<polyline points="404.9 509.9 405.3 524.9 420.3 524.9" fill="transparent" stroke="#BDE1ED" class="zr1-cls-22"></polyline>
<polyline points="283.1 474.5 274.8 486.9 259.8 486.9" fill="transparent" stroke="#BBEBB2" class="zr1-cls-22"></polyline>
<polyline points="207.5 384 193.8 390 178.8 390" fill="transparent" stroke="#FCF4D3" class="zr1-cls-22"></polyline>
<polyline points="191 279.2 176.1 277.7 161.1 277.7" fill="transparent" stroke="#F2D2BA" class="zr1-cls-22"></polyline>
<polyline points="221 190.3 208.2 182.4 193.2 182.4" fill="transparent" stroke="#F4D4A7" class="zr1-cls-22"></polyline>
<polyline points="280.2 127.5 271.6 115.2 256.6 115.2" fill="transparent" stroke="#EBC5C5" class="zr1-cls-22"></polyline>
<polyline points="358 94.2 355 79.5 340 79.5" fill="transparent" stroke="#D3D3D3" class="zr1-cls-22"></polyline>
<path d="M400 100.3A10 10 0 0 1 410.5 90.3A210 210 0 0 1 605.5 256.8A10 10 0 0 1 597.3 268.8L528 279.7A10 10 0 0 1 516.7 272.2A120 120 0 0 0 409.2 180.4A10 10 0 0 1 400 170.4Z" fill="#CFB3E8" stroke="#fff" stroke-width="2" stroke-linejoin="round" ecmeta_series_index="0" ecmeta_data_index="0" ecmeta_ssr_type="chart" transform-origin="400px 300px" class="zr1-cls-23 zr1-cls-24"></path>
<path d="M597.3 268.8A10 10 0 0 1 608.8 277.6A210 210 0 0 1 585.4 398.6A10 10 0 0 1 571.5 402.5L511.3 366.5A10 10 0 0 1 507.4 353.5A120 120 0 0 0 519.6 290.4A10 10 0 0 1 528 279.7Z" fill="#C2C3F0" stroke="#fff" stroke-width="2" stroke-linejoin="round" ecmeta_series_index="0" ecmeta_data_index="1" ecmeta_ssr_type="chart" transform-origin="400px 300px" class="zr1-cls-25 zr1-cls-26"></path>
<path d="M571.5 402.5A10 10 0 0 1 574.6 416.6A210 210 0 0 1 479.3 494.4A10 10 0 0 1 466.1 488.5L442.9 422.3A10 10 0 0 1 448.3 409.8A120 120 0 0 0 498 369.3A10 10 0 0 1 511.3 366.5Z" fill="#E3A6BE" stroke="#fff" stroke-width="2" stroke-linejoin="round" ecmeta_series_index="0" ecmeta_data_index="2" ecmeta_ssr_type="chart" transform-origin="400px 300px" class="zr1-cls-27 zr1-cls-28"></path>
<path d="M466.1 488.5A10 10 0 0 1 459.5 501.4A210 210 0 0 1 349.9 503.9A10 10 0 0 1 342.7 491.4L362.9 424.2A10 10 0 0 1 374.6 417.3A120 120 0 0 0 430.9 416A10 10 0 0 1 442.9 422.3Z" fill="#BDE1ED" stroke="#fff" stroke-width="2" stroke-linejoin="round" ecmeta_series_index="0" ecmeta_data_index="3" ecmeta_ssr_type="chart" transform-origin="400px 300px" class="zr1-cls-29 zr1-cls-30"></path>
<path d="M342.7 491.4A10 10 0 0 1 329.8 497.9A210 210 0 0 1 243.7 440.2A10 10 0 0 1 244.8 425.8L299.3 381.6A10 10 0 0 1 312.9 382.5A120 120 0 0 0 356.9 412A10 10 0 0 1 362.9 424.2Z" fill="#BBEBB2" stroke="#fff" stroke-width="2" stroke-linejoin="round" ecmeta_series_index="0" ecmeta_data_index="4" ecmeta_ssr_type="chart" transform-origin="400px 300px" class="zr1-cls-31 zr1-cls-32"></path>
<path d="M244.8 425.8A10 10 0 0 1 230.5 423.9A210 210 0 0 1 193.9 340A10 10 0 0 1 202.3 328.2L271.7 318.3A10 10 0 0 1 282.9 326.1A120 120 0 0 0 301.2 368.2A10 10 0 0 1 299.3 381.6Z" fill="#FCF4D3" stroke="#fff" stroke-width="2" stroke-linejoin="round" ecmeta_series_index="0" ecmeta_data_index="5" ecmeta_ssr_type="chart" transform-origin="400px 300px" class="zr1-cls-33 zr1-cls-34"></path>
<path d="M202.3 328.2A10 10 0 0 1 190.9 319.3A210 210 0 0 1 198.8 239.9A10 10 0 0 1 211.7 233.3L277.8 256.7A10 10 0 0 1 284.1 268.8A120 120 0 0 0 280.3 307.8A10 10 0 0 1 271.7 318.3Z" fill="#F2D2BA" stroke="#fff" stroke-width="2" stroke-linejoin="round" ecmeta_series_index="0" ecmeta_data_index="6" ecmeta_ssr_type="chart" transform-origin="400px 300px" class="zr1-cls-35 zr1-cls-36"></path>
<path d="M211.7 233.3A10 10 0 0 1 205.8 220.1A210 210 0 0 1 240.7 163.2A10 10 0 0 1 255.1 162.5L306 210.8A10 10 0 0 1 306.9 224.3A120 120 0 0 0 290.3 251.4A10 10 0 0 1 277.8 256.7Z" fill="#F4D4A7" stroke="#fff" stroke-width="2" stroke-linejoin="round" ecmeta_series_index="0" ecmeta_data_index="7" ecmeta_ssr_type="chart" transform-origin="400px 300px" class="zr1-cls-37 zr1-cls-38"></path>
<path d="M255.1 162.5A10 10 0 0 1 255.1 148A210 210 0 0 1 308.1 111.2A10 10 0 0 1 321.7 116.2L349.2 180.8A10 10 0 0 1 344.6 193.5A120 120 0 0 0 319.6 210.9A10 10 0 0 1 306 210.8Z" fill="#EBC5C5" stroke="#fff" stroke-width="2" stroke-linejoin="round" ecmeta_series_index="0" ecmeta_data_index="8" ecmeta_ssr_type="chart" transform-origin="400px 300px" class="zr1-cls-39 zr1-cls-40"></path>
<path d="M321.7 116.2A10 10 0 0 1 327.4 102.9A210 210 0 0 1 389.5 90.3A10 10 0 0 1 400 100.3L400 170.4A10 10 0 0 1 390.8 180.4A120 120 0 0 0 361.6 186.3A10 10 0 0 1 349.2 180.8Z" fill="#D3D3D3" stroke="#fff" stroke-width="2" stroke-linejoin="round" ecmeta_series_index="0" ecmeta_data_index="9" ecmeta_ssr_type="chart" transform-origin="400px 300px" class="zr1-cls-41 zr1-cls-42"></path>
<text dominant-baseline="central" text-anchor="start" style="font-size:12px;font-family:Manrope;" xml:space="preserve" transform="translate(566.1308 128.9129)" fill="#333" stroke="rgb(255,255,255)" stroke-width="2" paint-order="stroke" stroke-miterlimit="2">Tallileo: 12.11%</text>
<text dominant-baseline="central" text-anchor="start" style="font-size:12px;font-family:Manrope;" xml:space="preserve" transform="translate(640.9136 342.687)" fill="#333" stroke="rgb(255,255,255)" stroke-width="2" paint-order="stroke" stroke-miterlimit="2">aayushgoyal.in: 5.96%</text>
<text dominant-baseline="central" text-anchor="start" style="font-size:12px;font-family:Manrope;" xml:space="preserve" transform="translate(562.3002 474.2861)" fill="#333" stroke="rgb(255,255,255)" stroke-width="2" paint-order="stroke" stroke-miterlimit="2">MoneyTally: 5.95%</text>
<text dominant-baseline="central" text-anchor="start" style="font-size:12px;font-family:Manrope;" xml:space="preserve" transform="translate(425.253 524.9387)" fill="#333" stroke="rgb(255,255,255)" stroke-width="2" paint-order="stroke" stroke-miterlimit="2">tallileo-android: 5.38%</text>
<text dominant-baseline="central" text-anchor="end" style="font-size:12px;font-family:Manrope;" xml:space="preserve" transform="translate(254.792 486.9437)" fill="#333" stroke="rgb(255,255,255)" stroke-width="2" paint-order="stroke" stroke-miterlimit="2">chat-frontend-v2: 5.13%</text>
<text dominant-baseline="central" text-anchor="end" style="font-size:12px;font-family:Manrope;" xml:space="preserve" transform="translate(173.7847 390.0015)" fill="#333" stroke="rgb(255,255,255)" stroke-width="2" paint-order="stroke" stroke-miterlimit="2">tallileo.com: 4.62%</text>
<text dominant-baseline="central" text-anchor="end" style="font-size:12px;font-family:Manrope;" xml:space="preserve" transform="translate(156.1069 277.7093)" fill="#333" stroke="rgb(255,255,255)" stroke-width="2" paint-order="stroke" stroke-miterlimit="2">BillTea-Web: 4.13%</text>
<text dominant-baseline="central" text-anchor="end" style="font-size:12px;font-family:Manrope;" xml:space="preserve" transform="translate(188.1663 182.421)" fill="#333" stroke="rgb(255,255,255)" stroke-width="2" paint-order="stroke" stroke-miterlimit="2">arena: 3.59%</text>
<text dominant-baseline="central" text-anchor="end" style="font-size:12px;font-family:Manrope;" xml:space="preserve" transform="translate(251.6455 115.2025)" fill="#333" stroke="rgb(255,255,255)" stroke-width="2" paint-order="stroke" stroke-miterlimit="2">app.tallileo.com: 3.5%</text>
<text dominant-baseline="central" text-anchor="end" style="font-size:12px;font-family:Manrope;" xml:space="preserve" transform="translate(334.9942 79.5471)" fill="#333" stroke="rgb(255,255,255)" stroke-width="2" paint-order="stroke" stroke-miterlimit="2">Calculator: 3.45%</text>
<style ><![CDATA[
.zr1-cls-22:hover {
cursor:pointer;
}
.zr1-cls-23 {
animation:zr1-ani-0 1s cubic-bezier(0.65,0,0.35,1) both;
}
.zr1-cls-24:hover {
cursor:pointer;
fill:rgba(227,196,255,1);
}
.zr1-cls-25 {
animation:zr1-ani-1 1s cubic-bezier(0.65,0,0.35,1) both;
}
.zr1-cls-26:hover {
cursor:pointer;
fill:rgba(213,214,255,1);
}
.zr1-cls-27 {
animation:zr1-ani-2 1s cubic-bezier(0.65,0,0.35,1) both;
}
.zr1-cls-28:hover {
cursor:pointer;
fill:rgba(249,182,209,1);
}
.zr1-cls-29 {
animation:zr1-ani-3 1s cubic-bezier(0.65,0,0.35,1) both;
}
.zr1-cls-30:hover {
cursor:pointer;
fill:rgba(207,247,255,1);
}
.zr1-cls-31 {
animation:zr1-ani-4 1s cubic-bezier(0.65,0,0.35,1) both;
}
.zr1-cls-32:hover {
cursor:pointer;
fill:rgba(205,255,195,1);
}
.zr1-cls-33 {
animation:zr1-ani-5 1s cubic-bezier(0.65,0,0.35,1) both;
}
.zr1-cls-34:hover {
cursor:pointer;
fill:rgba(255,255,232,1);
}
.zr1-cls-35 {
animation:zr1-ani-6 1s cubic-bezier(0.65,0,0.35,1) both;
}
.zr1-cls-36:hover {
cursor:pointer;
fill:rgba(255,231,204,1);
}
.zr1-cls-37 {
animation:zr1-ani-7 1s cubic-bezier(0.65,0,0.35,1) both;
}
.zr1-cls-38:hover {
cursor:pointer;
fill:rgba(255,233,183,1);
}
.zr1-cls-39 {
animation:zr1-ani-8 1s cubic-bezier(0.65,0,0.35,1) both;
}
.zr1-cls-40:hover {
cursor:pointer;
fill:rgba(255,216,216,1);
}
.zr1-cls-41 {
animation:zr1-ani-9 1s cubic-bezier(0.65,0,0.35,1) both;
}
.zr1-cls-42:hover {
cursor:pointer;
fill:rgba(232,232,232,1);
}
@keyframes zr1-ani-0 {
0% {
transform:scale(0,0);
}
100% {

}
}
@keyframes zr1-ani-1 {
0% {
transform:scale(0,0);
}
100% {

}
}
@keyframes zr1-ani-2 {
0% {
transform:scale(0,0);
}
100% {

}
}
@keyframes zr1-ani-3 {
0% {
transform:scale(0,0);
}
100% {

}
}
@keyframes zr1-ani-4 {
0% {
transform:scale(0,0);
}
100% {

}
}
@keyframes zr1-ani-5 {
0% {
transform:scale(0,0);
}
100% {

}
}
@keyframes zr1-ani-6 {
0% {
transform:scale(0,0);
}
100% {

}
}
@keyframes zr1-ani-7 {
0% {
transform:scale(0,0);
}
100% {

}
}
@keyframes zr1-ani-8 {
0% {
transform:scale(0,0);
}
100% {

}
}
@keyframes zr1-ani-9 {
0% {
transform:scale(0,0);
}
100% {

}
}
]]>

</style>
</svg>