<svg width="800" height="600" xmlns="http://www.w3.org/2000/svg" xmlns:xlink="http://www.w3.org/1999/xlink" version="1.1" baseProfile="full" viewBox="0 0 800 600">
<rect width="800" height="600" x="0" y="0" fill="none"></rect>
<polyline points="542.1 145.4 552.3 134.4 567.3 134.4" fill="transparent" stroke="#CFB3E8" class="zr4-cls-86"></polyline>
<polyline points="601.8 358.2 616.2 362.4 631.2 362.4" fill="transparent" stroke="#C2C3F0" class="zr4-cls-86"></polyline>
<polyline points="511.8 477.8 519.7 490.5 534.7 490.5" fill="transparent" stroke="#E3A6BE" class="zr4-cls-86"></polyline>
<polyline points="372.2 508.2 370.2 523 355.2 523" fill="transparent" stroke="#BDE1ED" class="zr4-cls-86"></polyline>
<polyline points="257.4 454.2 247.3 465.2 232.3 465.2" fill="transparent" stroke="#BBEBB2" class="zr4-cls-86"></polyline>
<polyline points="198.6 359.5 184.2 363.7 169.2 363.7" fill="transparent" stroke="#FCF4D3" class="zr4-cls-86"></polyline>
<polyline points="193.7 260.8 178.9 258.1 163.9 258.1" fill="transparent" stroke="#F2D2BA" class="zr4-cls-86"></polyline>
<polyline points="229.5 177.4 217.3 168.7 202.3 168.7" fill="transparent" stroke="#F4D4A7" class="zr4-cls-86"></polyline>
<polyline points="295.6 117.8 288.2 104.8 273.2 104.8" fill="transparent" stroke="#EBC5C5" class="zr4-cls-86"></polyline>
<polyline points="367.8 92.5 365.5 77.7 350.5 77.7" fill="transparent" stroke="#D3D3D3" class="zr4-cls-86"></polyline>
<path d="M400 100.3A10 10 0 0 1 410.5 90.3A210 210 0 0 1 608.1 271.9A10 10 0 0 1 599 283.2L529.2 289.1A10 10 0 0 1 518.4 280.8A120 120 0 0 0 409.2 180.4A10 10 0 0 1 400 170.4Z" fill="#CFB3E8" stroke="#fff" stroke-width="2" stroke-linejoin="round" ecmeta_series_index="0" ecmeta_data_index="0" ecmeta_ssr_type="chart" transform-origin="400px 300px" class="zr4-cls-87 zr4-cls-88"></path>
<path d="M599 283.2A10 10 0 0 1 609.9 292.9A210 210 0 0 1 573.8 417.8A10 10 0 0 1 559.5 420.2L503.5 378A10 10 0 0 1 501.1 364.6A120 120 0 0 0 520 299.2A10 10 0 0 1 529.2 289.1Z" fill="#C2C3F0" stroke="#fff" stroke-width="2" stroke-linejoin="round" ecmeta_series_index="0" ecmeta_data_index="1" ecmeta_ssr_type="chart" transform-origin="400px 300px" class="zr4-cls-89 zr4-cls-90"></path>
<path d="M559.5 420.2A10 10 0 0 1 561.2 434.6A210 210 0 0 1 451.4 503.6A10 10 0 0 1 439.2 495.9L425.4 427.1A10 10 0 0 1 432.5 415.5A120 120 0 0 0 490 379.4A10 10 0 0 1 503.5 378Z" fill="#E3A6BE" stroke="#fff" stroke-width="2" stroke-linejoin="round" ecmeta_series_index="0" ecmeta_data_index="2" ecmeta_ssr_type="chart" transform-origin="400px 300px" class="zr4-cls-91 zr4-cls-92"></path>
<path d="M439.2 495.9A10 10 0 0 1 430.8 507.7A210 210 0 0 1 315.8 492.4A10 10 0 0 1 310.8 478.7L342.1 416A10 10 0 0 1 354.8 411.2A120 120 0 0 0 414.4 419.1A10 10 0 0 1 425.4 427.1Z" fill="#BDE1ED" stroke="#fff" stroke-width="2" stroke-linejoin="round" ecmeta_series_index="0" ecmeta_data_index="3" ecmeta_ssr_type="chart" transform-origin="400px 300px" class="zr4-cls-93 zr4-cls-94"></path>
<path d="M310.8 478.7A10 10 0 0 1 297 483A210 210 0 0 1 225.6 417.1A10 10 0 0 1 228.8 402.9L288.9 366.8A10 10 0 0 1 302.2 369.5A120 120 0 0 0 338.3 402.9A10 10 0 0 1 342.1 416Z" fill="#BBEBB2" stroke="#fff" stroke-width="2" stroke-linejoin="round" ecmeta_series_index="0" ecmeta_data_index="4" ecmeta_ssr_type="chart" transform-origin="400px 300px" class="zr4-cls-95 zr4-cls-96"></path>
<path d="M228.8 402.9A10 10 0 0 1 214.8 399.1A210 210 0 0 1 190.7 317.4A10 10 0 0 1 200.4 306.6L270.5 304.3A10 10 0 0 1 280.7 313.2A120 120 0 0 0 292.7 353.7A10 10 0 0 1 288.9 366.8Z" fill="#FCF4D3" stroke="#fff" stroke-width="2" stroke-linejoin="round" ecmeta_series_index="0" ecmeta_data_index="5" ecmeta_ssr_type="chart" transform-origin="400px 300px" class="zr4-cls-97 zr4-cls-98"></path>
<path d="M200.4 306.6A10 10 0 0 1 190 296.4A210 210 0 0 1 203.3 226.4A10 10 0 0 1 216.6 220.8L281 248.6A10 10 0 0 1 286.5 261A120 120 0 0 0 280.1 294.7A10 10 0 0 1 270.5 304.3Z" fill="#F2D2BA" stroke="#fff" stroke-width="2" stroke-linejoin="round" ecmeta_series_index="0" ecmeta_data_index="6" ecmeta_ssr_type="chart" transform-origin="400px 300px" class="zr4-cls-99 zr4-cls-100"></path>
<path d="M216.6 220.8A10 10 0 0 1 211.6 207.2A210 210 0 0 1 252 151A10 10 0 0 1 266.5 151.4L313.4 203.6A10 10 0 0 1 313.2 217.2A120 120 0 0 0 293.8 244.1A10 10 0 0 1 281 248.6Z" fill="#F4D4A7" stroke="#fff" stroke-width="2" stroke-linejoin="round" ecmeta_series_index="0" ecmeta_data_index="7" ecmeta_ssr_type="chart" transform-origin="400px 300px" class="zr4-cls-101 zr4-cls-102"></path>
<path d="M266.5 151.4A10 10 0 0 1 267.6 137A210 210 0 0 1 326.4 103.3A10 10 0 0 1 339.4 109.7L360.7 176.5A10 10 0 0 1 354.9 188.8A120 120 0 0 0 326.9 204.8A10 10 0 0 1 313.4 203.6Z" fill="#EBC5C5" stroke="#fff" stroke-width="2" stroke-linejoin="round" ecmeta_series_index="0" ecmeta_data_index="8" ecmeta_ssr_type="chart" transform-origin="400px 300px" class="zr4-cls-103 zr4-cls-104"></path>
<path d="M339.4 109.7A10 10 0 0 1 346.4 97A210 210 0 0 1 389.5 90.3A10 10 0 0 1 400 100.3L400 170.4A10 10 0 0 1 390.8 180.4A120 120 0 0 0 372.5 183.2A10 10 0 0 1 360.7 176.5Z" fill="#D3D3D3" stroke="#fff" stroke-width="2" stroke-linejoin="round" ecmeta_series_index="0" ecmeta_data_index="9" ecmeta_ssr_type="chart" transform-origin="400px 300px" class="zr4-cls-105 zr4-cls-106"></path>
<text dominant-baseline="central" text-anchor="start" style="font-size:12px;font-family:Manrope;" xml:space="preserve" transform="translate(572.2732 134.3562)" fill="#333" stroke="rgb(255,255,255)" stroke-width="2" paint-order="stroke" stroke-miterlimit="2">Tallileo: 13.22%</text>
<text dominant-baseline="central" text-anchor="start" style="font-size:12px;font-family:Manrope;" xml:space="preserve" transform="translate(636.1832 362.3683)" fill="#333" stroke="rgb(255,255,255)" stroke-width="2" paint-order="stroke" stroke-miterlimit="2">MoneyTally: 6.49%</text>
<text dominant-baseline="central" text-anchor="start" style="font-size:12px;font-family:Manrope;" xml:space="preserve" transform="translate(539.7416 490.4913)" fill="#333" stroke="rgb(255,255,255)" stroke-width="2" paint-order="stroke" stroke-miterlimit="2">aayushgoyal.in: 6.47%</text>
<text dominant-baseline="central" text-anchor="end" style="font-size:12px;font-family:Manrope;" xml:space="preserve" transform="translate(350.2292 523.0217)" fill="#333" stroke="rgb(255,255,255)" stroke-width="2" paint-order="stroke" stroke-miterlimit="2">tallileo-android: 5.87%</text>
<text dominant-baseline="central" text-anchor="end" style="font-size:12px;font-family:Manrope;" xml:space="preserve" transform="translate(227.2617 465.215)" fill="#333" stroke="rgb(255,255,255)" stroke-width="2" paint-order="stroke" stroke-miterlimit="2">tallileo.com: 5.04%</text>
<text dominant-baseline="central" text-anchor="end" style="font-size:12px;font-family:Manrope;" xml:space="preserve" transform="translate(164.2067 363.7043)" fill="#333" stroke="rgb(255,255,255)" stroke-width="2" paint-order="stroke" stroke-miterlimit="2">BillTea-Web: 4.52%</text>
<text dominant-baseline="central" text-anchor="end" style="font-size:12px;font-family:Manrope;" xml:space="preserve" transform="translate(158.9447 258.053)" fill="#333" stroke="rgb(255,255,255)" stroke-width="2" paint-order="stroke" stroke-miterlimit="2">arena: 3.92%</text>
<text dominant-baseline="central" text-anchor="end" style="font-size:12px;font-family:Manrope;" xml:space="preserve" transform="translate(197.3116 168.6609)" fill="#333" stroke="rgb(255,255,255)" stroke-width="2" paint-order="stroke" stroke-miterlimit="2">app.tallileo.com: 3.83%</text>
<text dominant-baseline="central" text-anchor="end" style="font-size:12px;font-family:Manrope;" xml:space="preserve" transform="translate(268.1763 104.7554)" fill="#333" stroke="rgb(255,255,255)" stroke-width="2" paint-order="stroke" stroke-miterlimit="2">Calculator: 3.77%</text>
<text dominant-baseline="central" text-anchor="end" style="font-size:12px;font-family:Manrope;" xml:space="preserve" transform="translate(345.4709 77.6652)" fill="#333" stroke="rgb(255,255,255)" stroke-width="2" paint-order="stroke" stroke-miterlimit="2">moneytally: 2.74%</text>
<style ><![CDATA[
.zr4-cls-86:hover {
cursor:pointer;
}
.zr4-cls-87 {
animation:zr4-ani-0 1s cubic-bezier(0.65,0,0.35,1) both;
}
.zr4-cls-88:hover {
cursor:pointer;
fill:rgba(227,196,255,1);
}
.zr4-cls-89 {
animation:zr4-ani-1 1s cubic-bezier(0.65,0,0.35,1) both;
}
.zr4-cls-90:hover {
cursor:pointer;
fill:rgba(213,214,255,1);
}
.zr4-cls-91 {
animation:zr4-ani-2 1s cubic-bezier(0.65,0,0.35,1) both;
}
.zr4-cls-92:hover {
cursor:pointer;
fill:rgba(249,182,209,1);
}
.zr4-cls-93 {
animation:zr4-ani-3 1s cubic-bezier(0.65,0,0.35,1) both;
}
.zr4-cls-94:hover {
cursor:pointer;
fill:rgba(207,247,255,1);
}
.zr4-cls-95 {
animation:zr4-ani-4 1s cubic-bezier(0.65,0,0.35,1) both;
}
.zr4-cls-96:hover {
cursor:pointer;
fill:rgba(205,255,195,1);
}
.zr4-cls-97 {
animation:zr4-ani-5 1s cubic-bezier(0.65,0,0.35,1) both;
}
.zr4-cls-98:hover {
cursor:pointer;
fill:rgba(255,255,232,1);
}
.zr4-cls-99 {
animation:zr4-ani-6 1s cubic-bezier(0.65,0,0.35,1) both;
}
.zr4-cls-100:hover {
cursor:pointer;
fill:rgba(255,231,204,1);
}
.zr4-cls-101 {
animation:zr4-ani-7 1s cubic-bezier(0.65,0,0.35,1) both;
}
.zr4-cls-102:hover {
cursor:pointer;
fill:rgba(255,233,183,1);
}
.zr4-cls-103 {
animation:zr4-ani-8 1s cubic-bezier(0.65,0,0.35,1) both;
}
.zr4-cls-104:hover {
cursor:pointer;
fill:rgba(255,216,216,1);
}
.zr4-cls-105 {
animation:zr4-ani-9 1s cubic-bezier(0.65,0,0.35,1) both;
}
.zr4-cls-106:hover {
cursor:pointer;
fill:rgba(232,232,232,1);
}
@keyframes zr4-ani-0 {
0% {
transform:scale(0,0);
}
100% {

}
}
@keyframes zr4-ani-1 {
0% {
transform:scale(0,0);
}
100% {

}
}
@keyframes zr4-ani-2 {
0% {
transform:scale(0,0);
}
100% {

}
}
@keyframes zr4-ani-3 {
0% {
transform:scale(0,0);
}
100% {

}
}
@keyframes zr4-ani-4 {
0% {
transform:scale(0,0);
}
100% {

}
}
@keyframes zr4-ani-5 {
0% {
transform:scale(0,0);
}
100% {

}
}
@keyframes zr4-ani-6 {
0% {
transform:scale(0,0);
}
100% {

}
}
@keyframes zr4-ani-7 {
0% {
transform:scale(0,0);
}
100% {

}
}
@keyframes zr4-ani-8 {
0% {
transform:scale(0,0);
}
100% {

}
}
@keyframes zr4-ani-9 {
0% {
transform:scale(0,0);
}
100% {

}
}
]]>

</style>
</svg>