<svg width="800" height="600" xmlns="http://www.w3.org/2000/svg" xmlns:xlink="http://www.w3.org/1999/xlink" version="1.1" baseProfile="full" viewBox="0 0 800 600">
<rect width="800" height="600" x="0" y="0" fill="none"></rect>
<polyline points="542.1 145.4 552.2 134.3 567.2 134.3" fill="transparent" stroke="#CFB3E8" class="zr3-cls-64"></polyline>
<polyline points="601.8 358.2 616.2 362.3 631.2 362.3" fill="transparent" stroke="#C2C3F0" class="zr3-cls-64"></polyline>
<polyline points="511.7 477.8 519.7 490.5 534.7 490.5" fill="transparent" stroke="#E3A6BE" class="zr3-cls-64"></polyline>
<polyline points="372 508.1 370.1 523 355.1 523" fill="transparent" stroke="#BDE1ED" class="zr3-cls-64"></polyline>
<polyline points="257.3 454.1 247.1 465.1 232.1 465.1" fill="transparent" stroke="#BBEBB2" class="zr3-cls-64"></polyline>
<polyline points="198.5 359.3 184.2 363.5 169.2 363.5" fill="transparent" stroke="#FCF4D3" class="zr3-cls-64"></polyline>
<polyline points="193.7 260.7 179 257.9 164 257.9" fill="transparent" stroke="#F2D2BA" class="zr3-cls-64"></polyline>
<polyline points="229.5 177.3 217.4 168.6 202.4 168.6" fill="transparent" stroke="#F4D4A7" class="zr3-cls-64"></polyline>
<polyline points="295.7 117.7 288.2 104.7 273.2 104.7" fill="transparent" stroke="#EBC5C5" class="zr3-cls-64"></polyline>
<polyline points="367.8 92.5 365.5 77.7 350.5 77.7" fill="transparent" stroke="#D3D3D3" class="zr3-cls-64"></polyline>
<path d="M400 100.3A10 10 0 0 1 410.5 90.3A210 210 0 0 1 608.1 271.8A10 10 0 0 1 599 283.1L529.2 289A10 10 0 0 1 518.4 280.7A120 120 0 0 0 409.2 180.4A10 10 0 0 1 400 170.4Z" fill="#CFB3E8" stroke="#fff" stroke-width="2" stroke-linejoin="round" ecmeta_series_index="0" ecmeta_data_index="0" ecmeta_ssr_type="chart" transform-origin="400px 300px" class="zr3-cls-65 zr3-cls-66"></path>
<path d="M599 283.1A10 10 0 0 1 609.9 292.7A210 210 0 0 1 573.8 417.9A10 10 0 0 1 559.5 420.2L503.5 378A10 10 0 0 1 501.1 364.6A120 120 0 0 0 520 299.1A10 10 0 0 1 529.2 289Z" fill="#C2C3F0" stroke="#fff" stroke-width="2" stroke-linejoin="round" ecmeta_series_index="0" ecmeta_data_index="1" ecmeta_ssr_type="chart" transform-origin="400px 300px" class="zr3-cls-67 zr3-cls-68"></path>
<path d="M559.5 420.2A10 10 0 0 1 561.2 434.6A210 210 0 0 1 451.3 503.6A10 10 0 0 1 439 495.9L425.3 427.1A10 10 0 0 1 432.4 415.5A120 120 0 0 0 490 379.4A10 10 0 0 1 503.5 378Z" fill="#E3A6BE" stroke="#fff" stroke-width="2" stroke-linejoin="round" ecmeta_series_index="0" ecmeta_data_index="2" ecmeta_ssr_type="chart" transform-origin="400px 300px" class="zr3-cls-69 zr3-cls-70"></path>
<path d="M439 495.9A10 10 0 0 1 430.7 507.7A210 210 0 0 1 315.6 492.3A10 10 0 0 1 310.7 478.7L342 415.9A10 10 0 0 1 354.8 411.1A120 120 0 0 0 414.3 419.1A10 10 0 0 1 425.3 427.1Z" fill="#BDE1ED" stroke="#fff" stroke-width="2" stroke-linejoin="round" ecmeta_series_index="0" ecmeta_data_index="3" ecmeta_ssr_type="chart" transform-origin="400px 300px" class="zr3-cls-71 zr3-cls-72"></path>
<path d="M310.7 478.7A10 10 0 0 1 296.8 482.9A210 210 0 0 1 225.5 416.9A10 10 0 0 1 228.7 402.7L288.8 366.7A10 10 0 0 1 302.1 369.5A120 120 0 0 0 338.2 402.9A10 10 0 0 1 342 415.9Z" fill="#BBEBB2" stroke="#fff" stroke-width="2" stroke-linejoin="round" ecmeta_series_index="0" ecmeta_data_index="4" ecmeta_ssr_type="chart" transform-origin="400px 300px" class="zr3-cls-73 zr3-cls-74"></path>
<path d="M228.7 402.7A10 10 0 0 1 214.7 398.9A210 210 0 0 1 190.7 317.3A10 10 0 0 1 200.4 306.5L270.5 304.2A10 10 0 0 1 280.7 313.1A120 120 0 0 0 292.6 353.6A10 10 0 0 1 288.8 366.7Z" fill="#FCF4D3" stroke="#fff" stroke-width="2" stroke-linejoin="round" ecmeta_series_index="0" ecmeta_data_index="5" ecmeta_ssr_type="chart" transform-origin="400px 300px" class="zr3-cls-75 zr3-cls-76"></path>
<path d="M200.4 306.5A10 10 0 0 1 190 296.3A210 210 0 0 1 203.3 226.3A10 10 0 0 1 216.7 220.7L281 248.5A10 10 0 0 1 286.5 260.9A120 120 0 0 0 280.1 294.6A10 10 0 0 1 270.5 304.2Z" fill="#F2D2BA" stroke="#fff" stroke-width="2" stroke-linejoin="round" ecmeta_series_index="0" ecmeta_data_index="6" ecmeta_ssr_type="chart" transform-origin="400px 300px" class="zr3-cls-77 zr3-cls-78"></path>
<path d="M216.7 220.7A10 10 0 0 1 211.7 207.1A210 210 0 0 1 252.1 151A10 10 0 0 1 266.5 151.4L313.4 203.6A10 10 0 0 1 313.2 217.1A120 120 0 0 0 293.9 244A10 10 0 0 1 281 248.5Z" fill="#F4D4A7" stroke="#fff" stroke-width="2" stroke-linejoin="round" ecmeta_series_index="0" ecmeta_data_index="7" ecmeta_ssr_type="chart" transform-origin="400px 300px" class="zr3-cls-79 zr3-cls-80"></path>
<path d="M266.5 151.4A10 10 0 0 1 267.7 136.9A210 210 0 0 1 326.4 103.3A10 10 0 0 1 339.5 109.6L360.7 176.5A10 10 0 0 1 354.9 188.8A120 120 0 0 0 326.9 204.8A10 10 0 0 1 313.4 203.6Z" fill="#EBC5C5" stroke="#fff" stroke-width="2" stroke-linejoin="round" ecmeta_series_index="0" ecmeta_data_index="8" ecmeta_ssr_type="chart" transform-origin="400px 300px" class="zr3-cls-81 zr3-cls-82"></path>
<path d="M339.5 109.6A10 10 0 0 1 346.4 96.9A210 210 0 0 1 389.5 90.3A10 10 0 0 1 400 100.3L400 170.4A10 10 0 0 1 390.8 180.4A120 120 0 0 0 372.5 183.2A10 10 0 0 1 360.7 176.5Z" fill="#D3D3D3" stroke="#fff" stroke-width="2" stroke-linejoin="round" ecmeta_series_index="0" ecmeta_data_index="9" ecmeta_ssr_type="chart" transform-origin="400px 300px" class="zr3-cls-83 zr3-cls-84"></path>
<text dominant-baseline="central" text-anchor="start" style="font-size:12px;font-family:Manrope;" xml:space="preserve" transform="translate(572.2249 134.3118)" fill="#333" stroke="rgb(255,255,255)" stroke-width="2" paint-order="stroke" stroke-miterlimit="2">Tallileo: 13.08%</text>
<text dominant-baseline="central" text-anchor="start" style="font-size:12px;font-family:Manrope;" xml:space="preserve" transform="translate(636.1975 362.3187)" fill="#333" stroke="rgb(255,255,255)" stroke-width="2" paint-order="stroke" stroke-miterlimit="2">MoneyTally: 6.43%</text>
<text dominant-baseline="central" text-anchor="start" style="font-size:12px;font-family:Manrope;" xml:space="preserve" transform="translate(539.6531 490.5469)" fill="#333" stroke="rgb(255,255,255)" stroke-width="2" paint-order="stroke" stroke-miterlimit="2">aayushgoyal.in: 6.41%</text>
<text dominant-baseline="central" text-anchor="end" style="font-size:12px;font-family:Manrope;" xml:space="preserve" transform="translate(350.0509 522.9979)" fill="#333" stroke="rgb(255,255,255)" stroke-width="2" paint-order="stroke" stroke-miterlimit="2">tallileo-android: 5.81%</text>
<text dominant-baseline="central" text-anchor="end" style="font-size:12px;font-family:Manrope;" xml:space="preserve" transform="translate(227.1174 465.0815)" fill="#333" stroke="rgb(255,255,255)" stroke-width="2" paint-order="stroke" stroke-miterlimit="2">tallileo.com: 4.99%</text>
<text dominant-baseline="central" text-anchor="end" style="font-size:12px;font-family:Manrope;" xml:space="preserve" transform="translate(164.16 363.5459)" fill="#333" stroke="rgb(255,255,255)" stroke-width="2" paint-order="stroke" stroke-miterlimit="2">BillTea-Web: 4.47%</text>
<text dominant-baseline="central" text-anchor="end" style="font-size:12px;font-family:Manrope;" xml:space="preserve" transform="translate(158.9662 257.9397)" fill="#333" stroke="rgb(255,255,255)" stroke-width="2" paint-order="stroke" stroke-miterlimit="2">arena: 3.88%</text>
<text dominant-baseline="central" text-anchor="end" style="font-size:12px;font-family:Manrope;" xml:space="preserve" transform="translate(197.372 168.577)" fill="#333" stroke="rgb(255,255,255)" stroke-width="2" paint-order="stroke" stroke-miterlimit="2">app.tallileo.com: 3.79%</text>
<text dominant-baseline="central" text-anchor="end" style="font-size:12px;font-family:Manrope;" xml:space="preserve" transform="translate(268.2388 104.7196)" fill="#333" stroke="rgb(255,255,255)" stroke-width="2" paint-order="stroke" stroke-miterlimit="2">Calculator: 3.73%</text>
<text dominant-baseline="central" text-anchor="end" style="font-size:12px;font-family:Manrope;" xml:space="preserve" transform="translate(345.4968 77.6612)" fill="#333" stroke="rgb(255,255,255)" stroke-width="2" paint-order="stroke" stroke-miterlimit="2">moneytally: 2.71%</text>
<style ><![CDATA[
.zr3-cls-64:hover {
cursor:pointer;
}
.zr3-cls-65 {
animation:zr3-ani-0 1s cubic-bezier(0.65,0,0.35,1) both;
}
.zr3-cls-66:hover {
cursor:pointer;
fill:rgba(227,196,255,1);
}
.zr3-cls-67 {
animation:zr3-ani-1 1s cubic-bezier(0.65,0,0.35,1) both;
}
.zr3-cls-68:hover {
cursor:pointer;
fill:rgba(213,214,255,1);
}
.zr3-cls-69 {
animation:zr3-ani-2 1s cubic-bezier(0.65,0,0.35,1) both;
}
.zr3-cls-70:hover {
cursor:pointer;
fill:rgba(249,182,209,1);
}
.zr3-cls-71 {
animation:zr3-ani-3 1s cubic-bezier(0.65,0,0.35,1) both;
}
.zr3-cls-72:hover {
cursor:pointer;
fill:rgba(207,247,255,1);
}
.zr3-cls-73 {
animation:zr3-ani-4 1s cubic-bezier(0.65,0,0.35,1) both;
}
.zr3-cls-74:hover {
cursor:pointer;
fill:rgba(205,255,195,1);
}
.zr3-cls-75 {
animation:zr3-ani-5 1s cubic-bezier(0.65,0,0.35,1) both;
}
.zr3-cls-76:hover {
cursor:pointer;
fill:rgba(255,255,232,1);
}
.zr3-cls-77 {
animation:zr3-ani-6 1s cubic-bezier(0.65,0,0.35,1) both;
}
.zr3-cls-78:hover {
cursor:pointer;
fill:rgba(255,231,204,1);
}
.zr3-cls-79 {
animation:zr3-ani-7 1s cubic-bezier(0.65,0,0.35,1) both;
}
.zr3-cls-80:hover {
cursor:pointer;
fill:rgba(255,233,183,1);
}
.zr3-cls-81 {
animation:zr3-ani-8 1s cubic-bezier(0.65,0,0.35,1) both;
}
.zr3-cls-82:hover {
cursor:pointer;
fill:rgba(255,216,216,1);
}
.zr3-cls-83 {
animation:zr3-ani-9 1s cubic-bezier(0.65,0,0.35,1) both;
}
.zr3-cls-84:hover {
cursor:pointer;
fill:rgba(232,232,232,1);
}
@keyframes zr3-ani-0 {
0% {
transform:scale(0,0);
}
100% {

}
}
@keyframes zr3-ani-1 {
0% {
transform:scale(0,0);
}
100% {

}
}
@keyframes zr3-ani-2 {
0% {
transform:scale(0,0);
}
100% {

}
}
@keyframes zr3-ani-3 {
0% {
transform:scale(0,0);
}
100% {

}
}
@keyframes zr3-ani-4 {
0% {
transform:scale(0,0);
}
100% {

}
}
@keyframes zr3-ani-5 {
0% {
transform:scale(0,0);
}
100% {

}
}
@keyframes zr3-ani-6 {
0% {
transform:scale(0,0);
}
100% {

}
}
@keyframes zr3-ani-7 {
0% {
transform:scale(0,0);
}
100% {

}
}
@keyframes zr3-ani-8 {
0% {
transform:scale(0,0);
}
100% {

}
}
@keyframes zr3-ani-9 {
0% {
transform:scale(0,0);
}
100% {

}
}
]]>

</style>
</svg>