<svg width="800" height="600" xmlns="http://www.w3.org/2000/svg" xmlns:xlink="http://www.w3.org/1999/xlink" version="1.1" baseProfile="full" viewBox="0 0 800 600">
<rect width="800" height="600" x="0" y="0" fill="none"></rect>
<polyline points="535.2 139.3 544.8 127.8 559.8 127.8" fill="transparent" stroke="#CFB3E8" class="zr1-cls-22"></polyline>
<polyline points="606.9 336.1 621.7 338.7 636.7 338.7" fill="transparent" stroke="#C2C3F0" class="zr1-cls-22"></polyline>
<polyline points="536.9 459.3 546.6 470.7 561.6 470.7" fill="transparent" stroke="#E3A6BE" class="zr1-cls-22"></polyline>
<polyline points="408.5 509.8 409.2 524.8 424.2 524.8" fill="transparent" stroke="#BDE1ED" class="zr1-cls-22"></polyline>
<polyline points="282.2 473.8 273.7 486.2 258.7 486.2" fill="transparent" stroke="#BBEBB2" class="zr1-cls-22"></polyline>
<polyline points="206.3 381.2 192.5 387 177.5 387" fill="transparent" stroke="#FCF4D3" class="zr1-cls-22"></polyline>
<polyline points="191.2 277.3 176.3 275.6 161.3 275.6" fill="transparent" stroke="#F2D2BA" class="zr1-cls-22"></polyline>
<polyline points="221.5 189.3 208.8 181.4 193.8 181.4" fill="transparent" stroke="#F4D4A7" class="zr1-cls-22"></polyline>
<polyline points="280.9 127.1 272.4 114.7 257.4 114.7" fill="transparent" stroke="#EBC5C5" class="zr1-cls-22"></polyline>
<polyline points="358.4 94.2 355.5 79.4 340.5 79.4" fill="transparent" stroke="#D3D3D3" class="zr1-cls-22"></polyline>
<path d="M400 100.3A10 10 0 0 1 410.5 90.3A210 210 0 0 1 604.8 253.7A10 10 0 0 1 596.8 265.8L527.7 277.8A10 10 0 0 1 516.3 270.4A120 120 0 0 0 409.2 180.4A10 10 0 0 1 400 170.4Z" fill="#CFB3E8" stroke="#fff" stroke-width="2" stroke-linejoin="round" ecmeta_series_index="0" ecmeta_data_index="0" ecmeta_ssr_type="chart" transform-origin="400px 300px" class="zr1-cls-23 zr1-cls-24"></path>
<path d="M596.8 265.8A10 10 0 0 1 608.4 274.4A210 210 0 0 1 587.5 394.6A10 10 0 0 1 573.6 398.8L512.6 364.1A10 10 0 0 1 508.5 351.2A120 120 0 0 0 519.5 288.6A10 10 0 0 1 527.7 277.8Z" fill="#C2C3F0" stroke="#fff" stroke-width="2" stroke-linejoin="round" ecmeta_series_index="0" ecmeta_data_index="1" ecmeta_ssr_type="chart" transform-origin="400px 300px" class="zr1-cls-25 zr1-cls-26"></path>
<path d="M573.6 398.8A10 10 0 0 1 577.1 412.9A210 210 0 0 1 484.9 492.1A10 10 0 0 1 471.5 486.5L446.4 421A10 10 0 0 1 451.5 408.4A120 120 0 0 0 499.4 367.2A10 10 0 0 1 512.6 364.1Z" fill="#E3A6BE" stroke="#fff" stroke-width="2" stroke-linejoin="round" ecmeta_series_index="0" ecmeta_data_index="2" ecmeta_ssr_type="chart" transform-origin="400px 300px" class="zr1-cls-27 zr1-cls-28"></path>
<path d="M471.5 486.5A10 10 0 0 1 465.3 499.6A210 210 0 0 1 351.1 504.2A10 10 0 0 1 343.9 491.7L363.6 424.4A10 10 0 0 1 375.2 417.4A120 120 0 0 0 434.2 415A10 10 0 0 1 446.4 421Z" fill="#BDE1ED" stroke="#fff" stroke-width="2" stroke-linejoin="round" ecmeta_series_index="0" ecmeta_data_index="3" ecmeta_ssr_type="chart" transform-origin="400px 300px" class="zr1-cls-29 zr1-cls-30"></path>
<path d="M343.9 491.7A10 10 0 0 1 331 498.3A210 210 0 0 1 241.3 437.6A10 10 0 0 1 242.7 423.1L297.9 379.9A10 10 0 0 1 311.5 381A120 120 0 0 0 357.5 412.2A10 10 0 0 1 363.6 424.4Z" fill="#BBEBB2" stroke="#fff" stroke-width="2" stroke-linejoin="round" ecmeta_series_index="0" ecmeta_data_index="4" ecmeta_ssr_type="chart" transform-origin="400px 300px" class="zr1-cls-31 zr1-cls-32"></path>
<path d="M242.7 423.1A10 10 0 0 1 228.4 421A210 210 0 0 1 193.4 337.6A10 10 0 0 1 201.9 325.9L271.5 316.8A10 10 0 0 1 282.6 324.7A120 120 0 0 0 300.1 366.5A10 10 0 0 1 297.9 379.9Z" fill="#FCF4D3" stroke="#fff" stroke-width="2" stroke-linejoin="round" ecmeta_series_index="0" ecmeta_data_index="5" ecmeta_ssr_type="chart" transform-origin="400px 300px" class="zr1-cls-33 zr1-cls-34"></path>
<path d="M201.9 325.9A10 10 0 0 1 190.7 316.8A210 210 0 0 1 199.2 238.5A10 10 0 0 1 212.2 232L278.1 255.9A10 10 0 0 1 284.4 268A120 120 0 0 0 280.2 306.4A10 10 0 0 1 271.5 316.8Z" fill="#F2D2BA" stroke="#fff" stroke-width="2" stroke-linejoin="round" ecmeta_series_index="0" ecmeta_data_index="6" ecmeta_ssr_type="chart" transform-origin="400px 300px" class="zr1-cls-35 zr1-cls-36"></path>
<path d="M212.2 232A10 10 0 0 1 206.4 218.8A210 210 0 0 1 241.1 162.7A10 10 0 0 1 255.6 162L306.3 210.4A10 10 0 0 1 307.1 224A120 120 0 0 0 290.6 250.6A10 10 0 0 1 278.1 255.9Z" fill="#F4D4A7" stroke="#fff" stroke-width="2" stroke-linejoin="round" ecmeta_series_index="0" ecmeta_data_index="7" ecmeta_ssr_type="chart" transform-origin="400px 300px" class="zr1-cls-37 zr1-cls-38"></path>
<path d="M255.6 162A10 10 0 0 1 255.6 147.5A210 210 0 0 1 309 110.8A10 10 0 0 1 322.5 115.9L349.7 180.5A10 10 0 0 1 345.1 193.3A120 120 0 0 0 319.9 210.7A10 10 0 0 1 306.3 210.4Z" fill="#EBC5C5" stroke="#fff" stroke-width="2" stroke-linejoin="round" ecmeta_series_index="0" ecmeta_data_index="8" ecmeta_ssr_type="chart" transform-origin="400px 300px" class="zr1-cls-39 zr1-cls-40"></path>
<path d="M322.5 115.9A10 10 0 0 1 328.3 102.6A210 210 0 0 1 389.5 90.3A10 10 0 0 1 400 100.3L400 170.4A10 10 0 0 1 390.8 180.4A120 120 0 0 0 362.1 186.1A10 10 0 0 1 349.7 180.5Z" fill="#D3D3D3" stroke="#fff" stroke-width="2" stroke-linejoin="round" ecmeta_series_index="0" ecmeta_data_index="9" ecmeta_ssr_type="chart" transform-origin="400px 300px" class="zr1-cls-41 zr1-cls-42"></path>
<text dominant-baseline="central" text-anchor="start" style="font-size:12px;font-family:Manrope;" xml:space="preserve" transform="translate(564.8397 127.8185)" fill="#333" stroke="rgb(255,255,255)" stroke-width="2" paint-order="stroke" stroke-miterlimit="2">Tallileo: 11.34%</text>
<text dominant-baseline="central" text-anchor="start" style="font-size:12px;font-family:Manrope;" xml:space="preserve" transform="translate(641.6537 338.6608)" fill="#333" stroke="rgb(255,255,255)" stroke-width="2" paint-order="stroke" stroke-miterlimit="2">aayushgoyal.in: 5.59%</text>
<text dominant-baseline="central" text-anchor="start" style="font-size:12px;font-family:Manrope;" xml:space="preserve" transform="translate(566.6369 470.6535)" fill="#333" stroke="rgb(255,255,255)" stroke-width="2" paint-order="stroke" stroke-miterlimit="2">MoneyTally: 5.57%</text>
<text dominant-baseline="central" text-anchor="start" style="font-size:12px;font-family:Manrope;" xml:space="preserve" transform="translate(429.1558 524.8136)" fill="#333" stroke="rgb(255,255,255)" stroke-width="2" paint-order="stroke" stroke-miterlimit="2">chat-frontend-v2: 5.28%</text>
<text dominant-baseline="central" text-anchor="end" style="font-size:12px;font-family:Manrope;" xml:space="preserve" transform="translate(253.7448 486.2381)" fill="#333" stroke="rgb(255,255,255)" stroke-width="2" paint-order="stroke" stroke-miterlimit="2">tallileo-android: 5.04%</text>
<text dominant-baseline="central" text-anchor="end" style="font-size:12px;font-family:Manrope;" xml:space="preserve" transform="translate(172.5142 387.0324)" fill="#333" stroke="rgb(255,255,255)" stroke-width="2" paint-order="stroke" stroke-miterlimit="2">tallileo.com: 4.33%</text>
<text dominant-baseline="central" text-anchor="end" style="font-size:12px;font-family:Manrope;" xml:space="preserve" transform="translate(156.3241 275.6257)" fill="#333" stroke="rgb(255,255,255)" stroke-width="2" paint-order="stroke" stroke-miterlimit="2">BillTea-Web: 3.87%</text>
<text dominant-baseline="central" text-anchor="end" style="font-size:12px;font-family:Manrope;" xml:space="preserve" transform="translate(188.7785 181.4279)" fill="#333" stroke="rgb(255,255,255)" stroke-width="2" paint-order="stroke" stroke-miterlimit="2">arena: 3.37%</text>
<text dominant-baseline="central" text-anchor="end" style="font-size:12px;font-family:Manrope;" xml:space="preserve" transform="translate(252.37 114.7014)" fill="#333" stroke="rgb(255,255,255)" stroke-width="2" paint-order="stroke" stroke-miterlimit="2">app.tallileo.com: 3.32%</text>
<text dominant-baseline="central" text-anchor="end" style="font-size:12px;font-family:Manrope;" xml:space="preserve" transform="translate(335.4754 79.4494)" fill="#333" stroke="rgb(255,255,255)" stroke-width="2" paint-order="stroke" stroke-miterlimit="2">Calculator: 3.23%</text>
<style ><![CDATA[
.zr1-cls-22:hover {
cursor:pointer;
}
.zr1-cls-23 {
animation:zr1-ani-0 1s cubic-bezier(0.65,0,0.35,1) both;
}
.zr1-cls-24:hover {
cursor:pointer;
fill:rgba(227,196,255,1);
}
.zr1-cls-25 {
animation:zr1-ani-1 1s cubic-bezier(0.65,0,0.35,1) both;
}
.zr1-cls-26:hover {
cursor:pointer;
fill:rgba(213,214,255,1);
}
.zr1-cls-27 {
animation:zr1-ani-2 1s cubic-bezier(0.65,0,0.35,1) both;
}
.zr1-cls-28:hover {
cursor:pointer;
fill:rgba(249,182,209,1);
}
.zr1-cls-29 {
animation:zr1-ani-3 1s cubic-bezier(0.65,0,0.35,1) both;
}
.zr1-cls-30:hover {
cursor:pointer;
fill:rgba(207,247,255,1);
}
.zr1-cls-31 {
animation:zr1-ani-4 1s cubic-bezier(0.65,0,0.35,1) both;
}
.zr1-cls-32:hover {
cursor:pointer;
fill:rgba(205,255,195,1);
}
.zr1-cls-33 {
animation:zr1-ani-5 1s cubic-bezier(0.65,0,0.35,1) both;
}
.zr1-cls-34:hover {
cursor:pointer;
fill:rgba(255,255,232,1);
}
.zr1-cls-35 {
animation:zr1-ani-6 1s cubic-bezier(0.65,0,0.35,1) both;
}
.zr1-cls-36:hover {
cursor:pointer;
fill:rgba(255,231,204,1);
}
.zr1-cls-37 {
animation:zr1-ani-7 1s cubic-bezier(0.65,0,0.35,1) both;
}
.zr1-cls-38:hover {
cursor:pointer;
fill:rgba(255,233,183,1);
}
.zr1-cls-39 {
animation:zr1-ani-8 1s cubic-bezier(0.65,0,0.35,1) both;
}
.zr1-cls-40:hover {
cursor:pointer;
fill:rgba(255,216,216,1);
}
.zr1-cls-41 {
animation:zr1-ani-9 1s cubic-bezier(0.65,0,0.35,1) both;
}
.zr1-cls-42:hover {
cursor:pointer;
fill:rgba(232,232,232,1);
}
@keyframes zr1-ani-0 {
0% {
transform:scale(0,0);
}
100% {

}
}
@keyframes zr1-ani-1 {
0% {
transform:scale(0,0);
}
100% {

}
}
@keyframes zr1-ani-2 {
0% {
transform:scale(0,0);
}
100% {

}
}
@keyframes zr1-ani-3 {
0% {
transform:scale(0,0);
}
100% {

}
}
@keyframes zr1-ani-4 {
0% {
transform:scale(0,0);
}
100% {

}
}
@keyframes zr1-ani-5 {
0% {
transform:scale(0,0);
}
100% {

}
}
@keyframes zr1-ani-6 {
0% {
transform:scale(0,0);
}
100% {

}
}
@keyframes zr1-ani-7 {
0% {
transform:scale(0,0);
}
100% {

}
}
@keyframes zr1-ani-8 {
0% {
transform:scale(0,0);
}
100% {

}
}
@keyframes zr1-ani-9 {
0% {
transform:scale(0,0);
}
100% {

}
}
]]>

</style>
</svg>