<svg width="800" height="600" xmlns="http://www.w3.org/2000/svg" xmlns:xlink="http://www.w3.org/1999/xlink" version="1.1" baseProfile="full" viewBox="0 0 800 600">
<rect width="800" height="600" x="0" y="0" fill="none"></rect>
<polyline points="414.4 509.5 415.5 524.5 430.5 524.5" fill="transparent" stroke="#CFB3E8" class="zr7-cls-98"></polyline>
<polyline points="382.9 90.7 381.7 75.7 366.7 75.7" fill="transparent" stroke="#C2C3F0" class="zr7-cls-98"></polyline>
<path d="M400 100.3A10 10 0 0 1 410.5 90.3A210 210 0 1 1 360.8 93.7A10 10 0 0 1 372.6 102.1L382.2 171.6A10 10 0 0 1 374.4 182.8A120 120 0 1 0 409.2 180.4A10 10 0 0 1 400 170.4Z" fill="#CFB3E8" stroke="#fff" stroke-width="2" stroke-linejoin="round" ecmeta_series_index="0" ecmeta_data_index="0" ecmeta_ssr_type="chart" transform-origin="400px 300px" class="zr7-cls-99 zr7-cls-100"></path>
<path d="M372.6 102.1A10 10 0 0 1 381.6 90.8A210 210 0 0 1 384.2 90.6A10 10 0 0 1 395 100.3L396.8 173.1A7.1 7.1 0 0 1 382.6 174.3Z" fill="#C2C3F0" stroke="#fff" stroke-width="2" stroke-linejoin="round" ecmeta_series_index="0" ecmeta_data_index="1" ecmeta_ssr_type="chart" transform-origin="400px 300px" class="zr7-cls-101 zr7-cls-102"></path>
<path d="M394.8 92.6A2.5 2.5 0 1 1 399.7 92.5L399.8 178.6A1.4 1.4 0 0 1 396.9 178.6Z" fill="#E3A6BE" stroke="#fff" stroke-width="2" stroke-linejoin="round" ecmeta_series_index="0" ecmeta_data_index="2" ecmeta_ssr_type="chart" transform-origin="400px 300px" class="zr7-cls-103 zr7-cls-104"></path>
<path d="M399.7 90.1A0.1 0.1 0 1 1 400 90.1L400 179.9A0.1 0.1 0 0 1 399.8 179.9Z" fill="#BDE1ED" stroke="#fff" stroke-width="2" stroke-linejoin="round" ecmeta_series_index="0" ecmeta_data_index="3" ecmeta_ssr_type="chart" transform-origin="400px 300px" class="zr7-cls-105 zr7-cls-106"></path>
<text dominant-baseline="central" text-anchor="start" style="font-size:12px;font-family:Manrope;" xml:space="preserve" transform="translate(435.4664 524.4678)" fill="#333" stroke="rgb(255,255,255)" stroke-width="2" paint-order="stroke" stroke-miterlimit="2">Coding: 97.82%</text>
<text dominant-baseline="central" text-anchor="end" style="font-size:12px;font-family:Manrope;" xml:space="preserve" transform="translate(361.7144 75.7443)" fill="#333" stroke="rgb(255,255,255)" stroke-width="2" paint-order="stroke" stroke-miterlimit="2">Debugging: 1.79%</text>
<style ><![CDATA[
.zr7-cls-98:hover {
cursor:pointer;
}
.zr7-cls-99 {
animation:zr7-ani-0 1s cubic-bezier(0.65,0,0.35,1) both;
}
.zr7-cls-100:hover {
cursor:pointer;
fill:rgba(227,196,255,1);
}
.zr7-cls-101 {
animation:zr7-ani-1 1s cubic-bezier(0.65,0,0.35,1) both;
}
.zr7-cls-102:hover {
cursor:pointer;
fill:rgba(213,214,255,1);
}
.zr7-cls-103 {
animation:zr7-ani-2 1s cubic-bezier(0.65,0,0.35,1) both;
}
.zr7-cls-104:hover {
cursor:pointer;
fill:rgba(249,182,209,1);
}
.zr7-cls-105 {
animation:zr7-ani-3 1s cubic-bezier(0.65,0,0.35,1) both;
}
.zr7-cls-106:hover {
cursor:pointer;
fill:rgba(207,247,255,1);
}
@keyframes zr7-ani-0 {
0% {
transform:scale(0,0);
}
100% {

}
}
@keyframes zr7-ani-1 {
0% {
transform:scale(0,0);
}
100% {

}
}
@keyframes zr7-ani-2 {
0% {
transform:scale(0,0);
}
100% {

}
}
@keyframes zr7-ani-3 {
0% {
transform:scale(0,0);
}
100% {

}
}
]]>

</style>
</svg>