<svg width="800" height="600" xmlns="http://www.w3.org/2000/svg" xmlns:xlink="http://www.w3.org/1999/xlink" version="1.1" baseProfile="full" viewBox="0 0 800 600">
<rect width="800" height="600" x="0" y="0" fill="none"></rect>
<polyline points="535.2 139.4 544.9 127.9 559.9 127.9" fill="transparent" stroke="#CFB3E8" class="zr1-cls-22"></polyline>
<polyline points="606.8 336.3 621.6 338.9 636.6 338.9" fill="transparent" stroke="#C2C3F0" class="zr1-cls-22"></polyline>
<polyline points="536.6 459.5 546.4 470.9 561.4 470.9" fill="transparent" stroke="#E3A6BE" class="zr1-cls-22"></polyline>
<polyline points="408.2 509.8 408.8 524.8 423.8 524.8" fill="transparent" stroke="#BDE1ED" class="zr1-cls-22"></polyline>
<polyline points="281.9 473.7 273.5 486.1 258.5 486.1" fill="transparent" stroke="#BBEBB2" class="zr1-cls-22"></polyline>
<polyline points="206.3 381 192.4 386.8 177.4 386.8" fill="transparent" stroke="#FCF4D3" class="zr1-cls-22"></polyline>
<polyline points="191.3 277 176.4 275.4 161.4 275.4" fill="transparent" stroke="#F2D2BA" class="zr1-cls-22"></polyline>
<polyline points="221.6 189.2 208.9 181.3 193.9 181.3" fill="transparent" stroke="#F4D4A7" class="zr1-cls-22"></polyline>
<polyline points="281 127 272.5 114.6 257.5 114.6" fill="transparent" stroke="#EBC5C5" class="zr1-cls-22"></polyline>
<polyline points="358.5 94.1 355.5 79.4 340.5 79.4" fill="transparent" stroke="#D3D3D3" class="zr1-cls-22"></polyline>
<path d="M400 100.3A10 10 0 0 1 410.5 90.3A210 210 0 0 1 604.9 253.9A10 10 0 0 1 596.8 266L527.7 277.9A10 10 0 0 1 516.3 270.5A120 120 0 0 0 409.2 180.4A10 10 0 0 1 400 170.4Z" fill="#CFB3E8" stroke="#fff" stroke-width="2" stroke-linejoin="round" ecmeta_series_index="0" ecmeta_data_index="0" ecmeta_ssr_type="chart" transform-origin="400px 300px" class="zr1-cls-23 zr1-cls-24"></path>
<path d="M596.8 266A10 10 0 0 1 608.5 274.6A210 210 0 0 1 587.4 394.9A10 10 0 0 1 573.5 399L512.6 364.3A10 10 0 0 1 508.5 351.3A120 120 0 0 0 519.5 288.7A10 10 0 0 1 527.7 277.9Z" fill="#C2C3F0" stroke="#fff" stroke-width="2" stroke-linejoin="round" ecmeta_series_index="0" ecmeta_data_index="1" ecmeta_ssr_type="chart" transform-origin="400px 300px" class="zr1-cls-25 zr1-cls-26"></path>
<path d="M573.5 399A10 10 0 0 1 576.9 413.1A210 210 0 0 1 484.6 492.2A10 10 0 0 1 471.2 486.6L446.2 421.1A10 10 0 0 1 451.3 408.5A120 120 0 0 0 499.3 367.3A10 10 0 0 1 512.6 364.3Z" fill="#E3A6BE" stroke="#fff" stroke-width="2" stroke-linejoin="round" ecmeta_series_index="0" ecmeta_data_index="2" ecmeta_ssr_type="chart" transform-origin="400px 300px" class="zr1-cls-27 zr1-cls-28"></path>
<path d="M471.2 486.6A10 10 0 0 1 465 499.7A210 210 0 0 1 350.8 504.2A10 10 0 0 1 343.6 491.6L363.4 424.3A10 10 0 0 1 375.1 417.4A120 120 0 0 0 434 415.1A10 10 0 0 1 446.2 421.1Z" fill="#BDE1ED" stroke="#fff" stroke-width="2" stroke-linejoin="round" ecmeta_series_index="0" ecmeta_data_index="3" ecmeta_ssr_type="chart" transform-origin="400px 300px" class="zr1-cls-29 zr1-cls-30"></path>
<path d="M343.6 491.6A10 10 0 0 1 330.7 498.2A210 210 0 0 1 241.1 437.3A10 10 0 0 1 242.5 422.9L297.8 379.8A10 10 0 0 1 311.4 380.9A120 120 0 0 0 357.3 412.2A10 10 0 0 1 363.4 424.3Z" fill="#BBEBB2" stroke="#fff" stroke-width="2" stroke-linejoin="round" ecmeta_series_index="0" ecmeta_data_index="4" ecmeta_ssr_type="chart" transform-origin="400px 300px" class="zr1-cls-31 zr1-cls-32"></path>
<path d="M242.5 422.9A10 10 0 0 1 228.2 420.8A210 210 0 0 1 193.4 337.4A10 10 0 0 1 201.9 325.7L271.5 316.7A10 10 0 0 1 282.5 324.6A120 120 0 0 0 300 366.3A10 10 0 0 1 297.8 379.8Z" fill="#FCF4D3" stroke="#fff" stroke-width="2" stroke-linejoin="round" ecmeta_series_index="0" ecmeta_data_index="5" ecmeta_ssr_type="chart" transform-origin="400px 300px" class="zr1-cls-33 zr1-cls-34"></path>
<path d="M201.9 325.7A10 10 0 0 1 190.7 316.6A210 210 0 0 1 199.3 238.3A10 10 0 0 1 212.2 231.8L278.2 255.8A10 10 0 0 1 284.4 267.8A120 120 0 0 0 280.2 306.3A10 10 0 0 1 271.5 316.7Z" fill="#F2D2BA" stroke="#fff" stroke-width="2" stroke-linejoin="round" ecmeta_series_index="0" ecmeta_data_index="6" ecmeta_ssr_type="chart" transform-origin="400px 300px" class="zr1-cls-35 zr1-cls-36"></path>
<path d="M212.2 231.8A10 10 0 0 1 206.4 218.5A210 210 0 0 1 241.2 162.6A10 10 0 0 1 255.7 161.9L306.4 210.4A10 10 0 0 1 307.2 223.9A120 120 0 0 0 290.7 250.5A10 10 0 0 1 278.2 255.8Z" fill="#F4D4A7" stroke="#fff" stroke-width="2" stroke-linejoin="round" ecmeta_series_index="0" ecmeta_data_index="7" ecmeta_ssr_type="chart" transform-origin="400px 300px" class="zr1-cls-37 zr1-cls-38"></path>
<path d="M255.7 161.9A10 10 0 0 1 255.8 147.4A210 210 0 0 1 309 110.7A10 10 0 0 1 322.6 115.9L349.8 180.5A10 10 0 0 1 345.1 193.3A120 120 0 0 0 320 210.6A10 10 0 0 1 306.4 210.4Z" fill="#EBC5C5" stroke="#fff" stroke-width="2" stroke-linejoin="round" ecmeta_series_index="0" ecmeta_data_index="8" ecmeta_ssr_type="chart" transform-origin="400px 300px" class="zr1-cls-39 zr1-cls-40"></path>
<path d="M322.6 115.9A10 10 0 0 1 328.4 102.6A210 210 0 0 1 389.5 90.3A10 10 0 0 1 400 100.3L400 170.4A10 10 0 0 1 390.8 180.4A120 120 0 0 0 362.1 186.1A10 10 0 0 1 349.8 180.5Z" fill="#D3D3D3" stroke="#fff" stroke-width="2" stroke-linejoin="round" ecmeta_series_index="0" ecmeta_data_index="9" ecmeta_ssr_type="chart" transform-origin="400px 300px" class="zr1-cls-41 zr1-cls-42"></path>
<text dominant-baseline="central" text-anchor="start" style="font-size:12px;font-family:Manrope;" xml:space="preserve" transform="translate(564.9077 127.8757)" fill="#333" stroke="rgb(255,255,255)" stroke-width="2" paint-order="stroke" stroke-miterlimit="2">Tallileo: 11.46%</text>
<text dominant-baseline="central" text-anchor="start" style="font-size:12px;font-family:Manrope;" xml:space="preserve" transform="translate(641.6135 338.8904)" fill="#333" stroke="rgb(255,255,255)" stroke-width="2" paint-order="stroke" stroke-miterlimit="2">aayushgoyal.in: 5.65%</text>
<text dominant-baseline="central" text-anchor="start" style="font-size:12px;font-family:Manrope;" xml:space="preserve" transform="translate(566.3738 470.8793)" fill="#333" stroke="rgb(255,255,255)" stroke-width="2" paint-order="stroke" stroke-miterlimit="2">MoneyTally: 5.63%</text>
<text dominant-baseline="central" text-anchor="start" style="font-size:12px;font-family:Manrope;" xml:space="preserve" transform="translate(428.7906 524.8282)" fill="#333" stroke="rgb(255,255,255)" stroke-width="2" paint-order="stroke" stroke-miterlimit="2">chat-frontend-v2: 5.33%</text>
<text dominant-baseline="central" text-anchor="end" style="font-size:12px;font-family:Manrope;" xml:space="preserve" transform="translate(253.4801 486.0584)" fill="#333" stroke="rgb(255,255,255)" stroke-width="2" paint-order="stroke" stroke-miterlimit="2">tallileo-android: 5.09%</text>
<text dominant-baseline="central" text-anchor="end" style="font-size:12px;font-family:Manrope;" xml:space="preserve" transform="translate(172.4108 386.7856)" fill="#333" stroke="rgb(255,255,255)" stroke-width="2" paint-order="stroke" stroke-miterlimit="2">tallileo.com: 4.37%</text>
<text dominant-baseline="central" text-anchor="end" style="font-size:12px;font-family:Manrope;" xml:space="preserve" transform="translate(156.3501 275.3883)" fill="#333" stroke="rgb(255,255,255)" stroke-width="2" paint-order="stroke" stroke-miterlimit="2">BillTea-Web: 3.91%</text>
<text dominant-baseline="central" text-anchor="end" style="font-size:12px;font-family:Manrope;" xml:space="preserve" transform="translate(188.8864 181.254)" fill="#333" stroke="rgb(255,255,255)" stroke-width="2" paint-order="stroke" stroke-miterlimit="2">arena: 3.4%</text>
<text dominant-baseline="central" text-anchor="end" style="font-size:12px;font-family:Manrope;" xml:space="preserve" transform="translate(252.4595 114.6397)" fill="#333" stroke="rgb(255,255,255)" stroke-width="2" paint-order="stroke" stroke-miterlimit="2">app.tallileo.com: 3.35%</text>
<text dominant-baseline="central" text-anchor="end" style="font-size:12px;font-family:Manrope;" xml:space="preserve" transform="translate(335.5069 79.4431)" fill="#333" stroke="rgb(255,255,255)" stroke-width="2" paint-order="stroke" stroke-miterlimit="2">Calculator: 3.26%</text>
<style ><![CDATA[
.zr1-cls-22:hover {
cursor:pointer;
}
.zr1-cls-23 {
animation:zr1-ani-0 1s cubic-bezier(0.65,0,0.35,1) both;
}
.zr1-cls-24:hover {
cursor:pointer;
fill:rgba(227,196,255,1);
}
.zr1-cls-25 {
animation:zr1-ani-1 1s cubic-bezier(0.65,0,0.35,1) both;
}
.zr1-cls-26:hover {
cursor:pointer;
fill:rgba(213,214,255,1);
}
.zr1-cls-27 {
animation:zr1-ani-2 1s cubic-bezier(0.65,0,0.35,1) both;
}
.zr1-cls-28:hover {
cursor:pointer;
fill:rgba(249,182,209,1);
}
.zr1-cls-29 {
animation:zr1-ani-3 1s cubic-bezier(0.65,0,0.35,1) both;
}
.zr1-cls-30:hover {
cursor:pointer;
fill:rgba(207,247,255,1);
}
.zr1-cls-31 {
animation:zr1-ani-4 1s cubic-bezier(0.65,0,0.35,1) both;
}
.zr1-cls-32:hover {
cursor:pointer;
fill:rgba(205,255,195,1);
}
.zr1-cls-33 {
animation:zr1-ani-5 1s cubic-bezier(0.65,0,0.35,1) both;
}
.zr1-cls-34:hover {
cursor:pointer;
fill:rgba(255,255,232,1);
}
.zr1-cls-35 {
animation:zr1-ani-6 1s cubic-bezier(0.65,0,0.35,1) both;
}
.zr1-cls-36:hover {
cursor:pointer;
fill:rgba(255,231,204,1);
}
.zr1-cls-37 {
animation:zr1-ani-7 1s cubic-bezier(0.65,0,0.35,1) both;
}
.zr1-cls-38:hover {
cursor:pointer;
fill:rgba(255,233,183,1);
}
.zr1-cls-39 {
animation:zr1-ani-8 1s cubic-bezier(0.65,0,0.35,1) both;
}
.zr1-cls-40:hover {
cursor:pointer;
fill:rgba(255,216,216,1);
}
.zr1-cls-41 {
animation:zr1-ani-9 1s cubic-bezier(0.65,0,0.35,1) both;
}
.zr1-cls-42:hover {
cursor:pointer;
fill:rgba(232,232,232,1);
}
@keyframes zr1-ani-0 {
0% {
transform:scale(0,0);
}
100% {

}
}
@keyframes zr1-ani-1 {
0% {
transform:scale(0,0);
}
100% {

}
}
@keyframes zr1-ani-2 {
0% {
transform:scale(0,0);
}
100% {

}
}
@keyframes zr1-ani-3 {
0% {
transform:scale(0,0);
}
100% {

}
}
@keyframes zr1-ani-4 {
0% {
transform:scale(0,0);
}
100% {

}
}
@keyframes zr1-ani-5 {
0% {
transform:scale(0,0);
}
100% {

}
}
@keyframes zr1-ani-6 {
0% {
transform:scale(0,0);
}
100% {

}
}
@keyframes zr1-ani-7 {
0% {
transform:scale(0,0);
}
100% {

}
}
@keyframes zr1-ani-8 {
0% {
transform:scale(0,0);
}
100% {

}
}
@keyframes zr1-ani-9 {
0% {
transform:scale(0,0);
}
100% {

}
}
]]>

</style>
</svg>